<?xml version="1.0" encoding="utf-8"?>
<!-- Generator: Adobe Illustrator 27.5.0, SVG Export Plug-In . SVG Version: 6.00 Build 0)  -->
<svg version="1.1" id="Lager_1" xmlns="http://www.w3.org/2000/svg" xmlns:xlink="http://www.w3.org/1999/xlink" x="0px" y="0px"
	 viewBox="0 0 1500 844" style="enable-background:new 0 0 1500 844;" xml:space="preserve">
<style type="text/css">
	.st0{fill:none;}
	.st1{fill:#0FBE73;}
	.st2{fill:#242424;}
	.st3{fill:url(#SVGID_1_);}
	.st4{fill-rule:evenodd;clip-rule:evenodd;fill:#242424;}
	.st5{fill:#FFFFFF;}
	.st6{fill:none;stroke:#242424;stroke-width:2;stroke-miterlimit:10;stroke-dasharray:2,3;}
	.st7{fill:none;stroke:#242424;stroke-miterlimit:10;}
	.st8{fill:none;stroke:#242424;stroke-width:2;stroke-miterlimit:10;}
	.st9{fill:url(#SVGID_00000046318824958862042570000014582213160153320090_);}
	.st10{fill:url(#SVGID_00000110430972510194700080000007157376957771729315_);}
	.st11{fill:url(#SVGID_00000053539818877115014580000011213698310264462211_);}
</style>
<pattern  width="59.7" height="50.7" patternUnits="userSpaceOnUse" id="Unnamed_Pattern_2" viewBox="0 -50.7 59.7 50.7" style="overflow:visible;">
	<g>
		<rect y="-50.7" class="st0" width="59.7" height="50.7"/>
		<rect y="-50.7" class="st1" width="59.7" height="50.7"/>
	</g>
</pattern>
<g>
	<path class="st2" d="M150.7,132.2h-8.4v-2.8h20.3v2.8h-8.3v25.4h-3.6V132.2z"/>
	<path class="st2" d="M164.8,138h2.9l0.3,4.4c1.1-2.9,3.7-5,7-5v3.5c-0.4-0.1-0.8-0.1-1.2-0.1c-2.6,0-5.7,1.9-5.7,6.6v10.2h-3.3V138
		z"/>
	<path class="st2" d="M190.2,157.7c-0.3-1-0.5-2.2-0.5-3.4c-1,2.4-3.4,4-6.4,4c-3.8,0-6.2-2.4-6.2-6c0-4.2,3.2-5.5,7.4-6.1l5-0.8
		v-1.2c0-3.5-1.9-4.1-4-4.1c-3,0-4.9,1.2-6.2,3l-1.7-2.2c1.6-1.9,4.3-3.4,8.3-3.4c4.9,0,7,2.1,7,6.9v8c0,2.6,0.1,3.7,0.6,5.4H190.2z
		 M189.5,147.6l-4.7,0.8c-3.2,0.6-4.5,1.7-4.5,3.8c0,2.1,1.3,3.8,3.7,3.8c3,0,5.5-2.4,5.5-6V147.6z"/>
	<path class="st2" d="M198.2,138h2.9l0.4,3.9c1-2.4,3.3-4.5,6.5-4.5c4.1,0,6,2.8,6,7.4v12.8h-3.3v-12.1c0-3.6-1.6-5.2-4-5.2
		c-2.9,0-5.1,2.5-5.1,6.9v10.4h-3.3V138z"/>
	<path class="st2" d="M219.4,152.8c1.3,1.7,3.6,3,6,3c2.2,0,4.2-1.1,4.2-3.2c0-5-11-2.4-11-9.6c0-3.9,3.4-5.6,7.1-5.6
		c2.8,0,5.1,0.8,6.9,2.4l-1.7,2.2c-1.2-1.2-3.3-2.2-5.4-2.2c-1.8,0-3.6,0.8-3.6,2.8c0,4.6,11,2.3,11,9.5c0,4.1-3.5,6.1-7.4,6.1
		c-3.2,0-5.9-1-7.9-3.2L219.4,152.8z"/>
	<path class="st2" d="M236.8,138h3.3v3.8c0.9-2.3,3-4.4,6.4-4.4c5.1,0,7.5,4.6,7.5,10.3c0,6.8-3.4,10.5-7.9,10.5
		c-2.9,0-5.2-1.6-6-3.8v10.2h-3.3V138z M240.1,148c0,1.1,0.1,2.1,0.2,2.7c0.5,2.6,2.3,4.8,5.1,4.8c3.6,0,5.2-3.7,5.2-7.7
		c0-3.9-1.4-7.6-5.2-7.6c-2.9,0-4.8,2.4-5.1,4.9c-0.1,0.5-0.2,1.5-0.2,2.7V148z"/>
	<path class="st2" d="M270.5,157.7c-0.3-1-0.5-2.2-0.5-3.4c-1,2.4-3.4,4-6.4,4c-3.8,0-6.2-2.4-6.2-6c0-4.2,3.2-5.5,7.4-6.1l5-0.8
		v-1.2c0-3.5-1.9-4.1-4-4.1c-3,0-4.9,1.2-6.2,3l-1.7-2.2c1.6-1.9,4.3-3.4,8.3-3.4c4.9,0,7,2.1,7,6.9v8c0,2.6,0.1,3.7,0.6,5.4H270.5z
		 M269.8,147.6l-4.7,0.8c-3.2,0.6-4.5,1.7-4.5,3.8c0,2.1,1.3,3.8,3.7,3.8c3,0,5.5-2.4,5.5-6V147.6z"/>
	<path class="st2" d="M278.5,138h2.9l0.3,4.4c1.1-2.9,3.7-5,7-5v3.5c-0.4-0.1-0.8-0.1-1.2-0.1c-2.6,0-5.7,1.9-5.7,6.6v10.2h-3.3V138
		z"/>
	<path class="st2" d="M293.9,148.6c0.3,4.5,2.4,7.1,6,7.1c2.4,0,4-1,5.2-3.3l2.5,1.4c-1.5,2.6-4,4.4-7.9,4.4
		c-6.2,0-9.3-4.6-9.3-10.3c0-5.7,3-10.5,9-10.5c5.7,0,8.6,4.6,8.6,10.1c0,0.6,0,0.9,0,1.1H293.9z M294,146.6h10.7
		c0-3.3-1.5-6.6-5.2-6.6C296.1,140,294.2,142.6,294,146.6z"/>
	<path class="st2" d="M312.1,138h2.9l0.4,3.9c1-2.4,3.3-4.5,6.5-4.5c4.1,0,6,2.8,6,7.4v12.8h-3.3v-12.1c0-3.6-1.6-5.2-4-5.2
		c-2.9,0-5.1,2.5-5.1,6.9v10.4h-3.3V138z"/>
	<path class="st2" d="M334.6,140.3h-3.4V138h0.7c3.3,0,3.4-1.3,3.8-4.6l0.1-0.7h2.1v5.4h4.2v2.3h-4.2v12.2c0,2.2,0.6,3.2,2.4,3.2
		c0.8,0,1.4-0.2,2-0.5l0.4,2.4c-1.1,0.5-2.2,0.7-3.4,0.7c-3.8,0-4.7-2.2-4.7-5.2V140.3z"/>
	<path class="st2" d="M355.2,138h3.3v3.8c0.9-2.3,3-4.4,6.4-4.4c5.1,0,7.5,4.6,7.5,10.3c0,6.8-3.4,10.5-7.9,10.5
		c-2.9,0-5.2-1.6-6-3.8v10.2h-3.3V138z M358.5,148c0,1.1,0.1,2.1,0.2,2.7c0.5,2.6,2.3,4.8,5.1,4.8c3.6,0,5.2-3.7,5.2-7.7
		c0-3.9-1.4-7.6-5.2-7.6c-2.9,0-4.8,2.4-5.1,4.9c-0.1,0.5-0.2,1.5-0.2,2.7V148z"/>
	<path class="st2" d="M388.9,157.7c-0.3-1-0.5-2.2-0.5-3.4c-1,2.4-3.4,4-6.4,4c-3.8,0-6.2-2.4-6.2-6c0-4.2,3.2-5.5,7.4-6.1l5-0.8
		v-1.2c0-3.5-1.9-4.1-4-4.1c-3,0-4.9,1.2-6.2,3l-1.7-2.2c1.6-1.9,4.3-3.4,8.3-3.4c4.9,0,7,2.1,7,6.9v8c0,2.6,0.1,3.7,0.6,5.4H388.9z
		 M388.2,147.6l-4.7,0.8c-3.2,0.6-4.5,1.7-4.5,3.8c0,2.1,1.3,3.8,3.7,3.8c3,0,5.5-2.4,5.5-6V147.6z"/>
	<path class="st2" d="M396.2,161.9c0.6,0.2,1.4,0.4,2.2,0.4c1.7,0,2.3-0.8,3.4-4.2l-6.7-20.1h3.6l4.8,16.3l4.8-16.3h3.6l-6,18.1
		c-2,6.2-2.8,8.7-7.4,8.7c-0.9,0-2.1-0.1-2.7-0.3L396.2,161.9z"/>
	<path class="st2" d="M415.4,129.4h3.3v28.2h-3.3V129.4z"/>
	<path class="st2" d="M423,147.8c0-5.8,3.2-10.4,9-10.4c5.9,0,9.1,4.5,9.1,10.4c0,5.8-3.2,10.5-9.1,10.5
		C426,158.3,423,153.6,423,147.8z M437.6,147.8c0-4.4-2-7.8-5.6-7.8c-3.7,0-5.6,3.3-5.6,7.8c0,4.4,1.9,7.9,5.6,7.9
		C435.8,155.7,437.6,152.2,437.6,147.8z"/>
	<path class="st2" d="M457.6,157.7c-0.3-1-0.5-2.2-0.5-3.4c-1,2.4-3.4,4-6.4,4c-3.8,0-6.2-2.4-6.2-6c0-4.2,3.2-5.5,7.4-6.1l5-0.8
		v-1.2c0-3.5-1.9-4.1-4-4.1c-3,0-4.9,1.2-6.2,3l-1.7-2.2c1.6-1.9,4.3-3.4,8.3-3.4c4.9,0,7,2.1,7,6.9v8c0,2.6,0.1,3.7,0.6,5.4H457.6z
		 M456.9,147.6l-4.7,0.8c-3.2,0.6-4.5,1.7-4.5,3.8c0,2.1,1.3,3.8,3.7,3.8c3,0,5.5-2.4,5.5-6V147.6z"/>
	<path class="st2" d="M478.4,153.8c-1.1,2.6-3.2,4.3-6.2,4.3c-4.9,0-7.9-4.2-7.9-10.4c0-6.4,3.2-10.3,7.9-10.3
		c3.2,0,5.2,1.8,6.1,3.9v-11.9h3.4v28.2h-3.2V153.8z M478.2,147.7c0-1.6-0.1-2.5-0.2-3.1c-0.5-2.4-2.2-4.4-5-4.4
		c-3.6,0-5.3,3.4-5.3,7.6c0,4.5,2,7.7,5.4,7.7c2.7,0,4.4-2.1,4.9-4.6c0.2-0.8,0.2-1.8,0.2-3V147.7z"/>
</g>
<g>
	<pattern  id="SVGID_1_" xlink:href="#Unnamed_Pattern_2" patternTransform="matrix(5.1657 0 0 2.7981 29049.332 12420.583)">
	</pattern>
	<rect x="91.7" y="257.4" class="st3" width="308.6" height="141.7"/>
	<path class="st2" d="M476.4,505.1l-5.1,5.1l-3.4-3.4l20.3-20.3L478,476.3l-20.3,20.3l-3.4-3.4l5.1-5.1l-23.8-23.7L422.1,478
		l23.7,23.7l5.1-5.1l3.4,3.4l-13.7,13.7l3.4,3.4l-3.5,3.5c-2.5-1.8-5.4-2.7-8.3-2.7c-3.7,0-7.4,1.4-10.2,4.2l0,0l8.5,8.5l-6.8,6.8
		l3.4,3.4l6.8-6.8l8.5,8.5l0,0c5-5,5.5-12.8,1.5-18.4l3.5-3.5l3.4,3.4l13.7-13.7l3.4,3.4l-5.1,5.1l23.7,23.7l13.6-13.6L476.4,505.1z
		 M435.6,471.2l6.8,6.8l-6.8,6.8l-6.8-6.8L435.6,471.2z M439.1,488.2l6.8-6.8l6.8,6.8l-6.8,6.8L439.1,488.2z M441.4,534.8
		l-11.7-11.7c0.8-0.2,1.6-0.3,2.5-0.3c2.5,0,5,1,6.8,2.8c1.8,1.8,2.8,4.2,2.8,6.8C441.8,533.2,441.6,534,441.4,534.8z M447.4,513.7
		l30.6-30.6l3.4,3.4l-30.6,30.6L447.4,513.7z M476.4,511.9l6.8,6.8l-6.8,6.8l-6.8-6.8L476.4,511.9z M479.8,528.9l6.8-6.8l6.8,6.8
		l-6.8,6.8L479.8,528.9z"/>
	<g>
		<path class="st2" d="M550.1,614.1h-33.5c-4,0-7.2,3.2-7.2,7.2v62.3c0,4,3.2,7.2,7.2,7.2h33.5c4,0,7.2-3.2,7.2-7.2v-62.3
			C557.3,617.3,554.1,614.1,550.1,614.1z M552.5,683.6c0,1.3-1.1,2.4-2.4,2.4h-33.5c-1.3,0-2.4-1.1-2.4-2.4v-62.3
			c0-1.3,1.1-2.4,2.4-2.4h33.5c1.3,0,2.4,1.1,2.4,2.4V683.6z"/>
		<circle class="st2" cx="533.4" cy="676.4" r="3.6"/>
	</g>
	<g>
		<path class="st2" d="M347.6,657.7c1.9-1.2,3.3-2.4,4.9-3.9c0,0-3.3-0.5-5.6-1.4c-5.5-2-13-6.6-20.8-13.9
			c-8.1-7.7-12.8-14.9-15-19.9c-1.1-2.5-1.9-4.5-1.9-4.5c-1.2,0.7-2.5,2.3-3.3,4c-1.9,4.3-3.6,9-3.6,14.1c0,8.3,3.4,15.8,8.9,21.3
			l-16.5,37.4h48.4l-13.3-28.8c0.8,0,1.6,0.1,2.5,0.1C337.9,662,343.1,660.4,347.6,657.7z M307,632.1c0-2.9,0.5-5.7,1.4-8.2
			c3.1,5.7,8.1,12.1,14.4,18.1c6.3,6,12.9,10.6,18.8,13.4c-2.9,1.2-6.1,1.9-9.4,1.9C318.3,657.2,307,645.9,307,632.1z M310.8,666.8
			l14.9,6.2l-21.6,9.1L310.8,666.8z M335.3,686H307l23.5-10.1L335.3,686z M327.1,668.2l-14.4-5.8l2.6-5.6c2.6,1.8,5.5,3.1,8.6,4
			L327.1,668.2z"/>
		
			<rect x="331" y="626.1" transform="matrix(0.7071 -0.7071 0.7071 0.7071 -346.0615 421.4884)" class="st2" width="9.6" height="4.8"/>
	</g>
	<g>
		<path class="st4" d="M207.6,614.1v76.7h57.5v-76.7H207.6z M212.4,642.9h47.9V662h-47.9V642.9z M260.3,618.9v19.2h-47.9v-19.2
			H260.3z M212.4,686v-19.2h47.9V686H212.4z"/>
		<rect x="245.9" y="623.7" class="st4" width="9.6" height="4.8"/>
		<rect x="245.9" y="647.6" class="st4" width="9.6" height="4.8"/>
		<rect x="245.9" y="671.6" class="st4" width="9.6" height="4.8"/>
	</g>
	<g>
		<path class="st2" d="M207.6,567.3v28.8h57.5v-28.8H207.6z M260.3,591.3h-48v-19.2h47.9v19.2H260.3z"/>
	</g>
	<g>
		<path class="st2" d="M89.3,623.1c-15.9,0-28.8,4.3-28.8,9.6v48.5c0,5.3,12.8,9.6,28.8,9.6c15.9,0,28.8-4.3,28.8-9.6v-48.5
			C118.1,627.4,105.2,623.1,89.3,623.1z M113.3,667.3v8.6v5.3c-2.3,1.8-10.7,4.8-24,4.8c-13.3,0-21.7-3-24-4.8v-5.3v-8.5v-20.8V638
			c5.2,2.5,13.9,4.3,24,4.3c10,0,18.8-1.7,24-4.3v8.6V667.3z M89.3,637.5c-13.3,0-21.7-3-24-4.8c2.3-1.8,10.7-4.8,24-4.8
			c13.2,0,21.7,3,24,4.8C111.1,634.5,102.6,637.5,89.3,637.5z"/>
	</g>
	<g>
		<path class="st5" d="M132.1,286.1h6.9c4.4,0,7.5,1.8,7.5,6c0,3.5-2.6,5.2-5.5,5.5c1,0.3,1.8,0.9,2.6,2.3l4.2,7.4h-3.2l-3.3-6.2
			c-0.9-1.7-1.9-2.7-3.9-2.7h-2.6v8.9h-2.7V286.1z M139.1,296.2c2.8,0,4.6-1.2,4.6-4.1c0-2.6-1.8-4-4.6-4h-4.2v8H139.1z"/>
		<path class="st5" d="M150.7,286.1h12.7v2.1h-10v7.4h7.7v2.1h-7.7v9.6h-2.7V286.1z"/>
		<path class="st5" d="M172.3,299.9c0-4.4,2.4-7.8,6.8-7.8c4.4,0,6.8,3.4,6.8,7.8c0,4.4-2.4,7.9-6.8,7.9
			C174.6,307.7,172.3,304.2,172.3,299.9z M183.3,299.9c0-3.3-1.5-5.8-4.2-5.8c-2.8,0-4.2,2.5-4.2,5.8s1.4,5.9,4.2,5.9
			C181.9,305.8,183.3,303.2,183.3,299.9z"/>
		<path class="st5" d="M189.1,292.5h2.5v2.8c0.7-1.7,2.2-3.3,4.8-3.3c3.8,0,5.6,3.4,5.6,7.7c0,5.1-2.6,7.9-5.9,7.9
			c-2.2,0-3.9-1.2-4.5-2.8v7.6h-2.5V292.5z M191.6,300c0,0.8,0.1,1.6,0.1,2c0.4,2,1.7,3.6,3.8,3.6c2.7,0,3.9-2.8,3.9-5.8
			c0-2.9-1.1-5.7-3.9-5.7c-2.2,0-3.6,1.8-3.8,3.7c-0.1,0.4-0.1,1.1-0.1,2V300z"/>
		<path class="st5" d="M207.1,300.5c0.2,3.4,1.8,5.3,4.5,5.3c1.8,0,3-0.8,3.9-2.5l1.9,1c-1.1,1.9-3,3.3-5.9,3.3c-4.6,0-7-3.5-7-7.7
			c0-4.3,2.3-7.9,6.7-7.9c4.3,0,6.4,3.5,6.4,7.6c0,0.4,0,0.7,0,0.8H207.1z M207.2,299h8c0-2.5-1.1-5-3.9-5
			C208.8,294,207.4,295.9,207.2,299z"/>
		<path class="st5" d="M220.8,292.5h2.2l0.2,3.3c0.8-2.2,2.8-3.7,5.3-3.7v2.6c-0.3-0.1-0.6-0.1-0.9-0.1c-2,0-4.3,1.4-4.3,5v7.6h-2.5
			V292.5z"/>
		<path class="st5" d="M239.8,307.3c-0.2-0.8-0.4-1.6-0.4-2.6c-0.8,1.8-2.5,3-4.8,3c-2.9,0-4.7-1.8-4.7-4.5c0-3.1,2.4-4.1,5.6-4.6
			l3.8-0.6v-0.9c0-2.6-1.4-3.1-3-3.1c-2.3,0-3.7,0.9-4.7,2.2l-1.3-1.6c1.2-1.4,3.2-2.5,6.2-2.5c3.7,0,5.2,1.6,5.2,5.2v6
			c0,1.9,0.1,2.8,0.5,4H239.8z M239.3,299.7l-3.5,0.6c-2.4,0.4-3.4,1.3-3.4,2.8c0,1.6,1,2.8,2.8,2.8c2.2,0,4.1-1.8,4.1-4.5V299.7z"
			/>
		<path class="st5" d="M246.8,294.2h-2.5v-1.7h0.5c2.5,0,2.6-1,2.9-3.5l0.1-0.5h1.6v4h3.2v1.7h-3.2v9.2c0,1.7,0.4,2.4,1.8,2.4
			c0.6,0,1-0.1,1.5-0.4l0.3,1.8c-0.8,0.4-1.6,0.5-2.5,0.5c-2.9,0-3.5-1.6-3.5-3.9V294.2z"/>
		<path class="st5" d="M255.4,286.8h2.5v2.5h-2.5V286.8z M255.4,292.5h2.5v14.8h-2.5V292.5z"/>
		<path class="st5" d="M261.1,299.9c0-4.4,2.4-7.8,6.8-7.8c4.4,0,6.8,3.4,6.8,7.8c0,4.4-2.4,7.9-6.8,7.9
			C263.4,307.7,261.1,304.2,261.1,299.9z M272.1,299.9c0-3.3-1.5-5.8-4.2-5.8c-2.8,0-4.2,2.5-4.2,5.8s1.4,5.9,4.2,5.9
			C270.7,305.8,272.1,303.2,272.1,299.9z"/>
		<path class="st5" d="M277.9,292.5h2.2l0.3,2.9c0.8-1.8,2.5-3.4,4.9-3.4c3.1,0,4.5,2.1,4.5,5.6v9.6h-2.5v-9.1c0-2.7-1.2-3.9-3-3.9
			c-2.2,0-3.8,1.9-3.8,5.2v7.8h-2.5V292.5z"/>
		<path class="st5" d="M293.7,303.6c1,1.3,2.7,2.2,4.5,2.2c1.7,0,3.1-0.8,3.1-2.4c0-3.7-8.3-1.8-8.3-7.2c0-2.9,2.6-4.2,5.3-4.2
			c2.1,0,3.8,0.6,5.2,1.8l-1.3,1.7c-0.9-0.9-2.5-1.6-4-1.6c-1.4,0-2.7,0.6-2.7,2.1c0,3.4,8.2,1.7,8.2,7.1c0,3.1-2.6,4.6-5.5,4.6
			c-2.4,0-4.4-0.8-5.9-2.4L293.7,303.6z"/>
		<path class="st5" d="M312.9,299.9c0-4.4,2.4-7.8,6.8-7.8c4.4,0,6.8,3.4,6.8,7.8c0,4.4-2.4,7.9-6.8,7.9
			C315.2,307.7,312.9,304.2,312.9,299.9z M323.9,299.9c0-3.3-1.5-5.8-4.2-5.8c-2.8,0-4.2,2.5-4.2,5.8s1.4,5.9,4.2,5.9
			C322.5,305.8,323.9,303.2,323.9,299.9z"/>
		<path class="st5" d="M329.7,292.5h2.2l0.3,2.9c0.8-1.8,2.5-3.4,4.9-3.4c3.1,0,4.5,2.1,4.5,5.6v9.6H339v-9.1c0-2.7-1.2-3.9-3-3.9
			c-2.2,0-3.8,1.9-3.8,5.2v7.8h-2.5V292.5z"/>
		<path class="st5" d="M345.3,286.1h2.5v21.2h-2.5V286.1z"/>
		<path class="st5" d="M351.3,310.4c0.4,0.1,1,0.3,1.6,0.3c1.3,0,1.7-0.6,2.5-3.1l-5-15.1h2.7l3.6,12.2l3.6-12.2h2.7l-4.5,13.6
			c-1.5,4.6-2.1,6.5-5.6,6.5c-0.7,0-1.6-0.1-2-0.2L351.3,310.4z"/>
		<path class="st5" d="M160.1,343.1c-4.2-3.7-6.3-8.4-6.3-13.9c0-5.3,2.2-10.4,6.3-14l1,1c-3.3,3.7-4.6,7.9-4.6,13
			c0,5.2,1.5,9.3,4.6,12.9L160.1,343.1z"/>
		<path class="st5" d="M164,322.5h2.2l0.3,2.9c0.8-1.8,2.5-3.4,4.9-3.4c3.1,0,4.5,2.1,4.5,5.6v9.6h-2.5v-9.1c0-2.7-1.2-3.9-3-3.9
			c-2.2,0-3.8,1.9-3.8,5.2v7.8H164V322.5z"/>
		<path class="st5" d="M178.9,329.9c0-4.4,2.4-7.8,6.8-7.8c4.4,0,6.8,3.4,6.8,7.8c0,4.4-2.4,7.9-6.8,7.9
			C181.2,337.7,178.9,334.2,178.9,329.9z M189.9,329.9c0-3.3-1.5-5.8-4.2-5.8c-2.8,0-4.2,2.5-4.2,5.8s1.4,5.9,4.2,5.9
			C188.5,335.8,189.9,333.2,189.9,329.9z"/>
		<path class="st5" d="M197,324.2h-2.5v-1.7h0.5c2.5,0,2.6-1,2.9-3.5l0.1-0.5h1.6v4h3.2v1.7h-3.2v9.2c0,1.7,0.4,2.4,1.8,2.4
			c0.6,0,1-0.1,1.5-0.4l0.3,1.8c-0.8,0.4-1.6,0.5-2.5,0.5c-2.9,0-3.5-1.6-3.5-3.9V324.2z"/>
		<path class="st5" d="M224.7,334c-1.2,2.4-3.2,3.7-6.1,3.7c-4.7,0-6.9-3.5-6.9-7.8c0-4.4,2.3-7.8,6.9-7.8c2.9,0,4.8,1.4,6,3.7
			l-2.1,1c-0.8-1.8-2-2.8-3.8-2.8c-3,0-4.4,2.5-4.4,5.7c0,3,1.2,6,4.5,6c2.1,0,3.3-1.2,4-2.8L224.7,334z"/>
		<path class="st5" d="M236.7,337.3c-0.2-0.8-0.4-1.6-0.4-2.6c-0.8,1.8-2.5,3-4.8,3c-2.9,0-4.7-1.8-4.7-4.5c0-3.1,2.4-4.1,5.6-4.6
			l3.8-0.6v-0.9c0-2.6-1.4-3.1-3-3.1c-2.3,0-3.7,0.9-4.7,2.2l-1.3-1.6c1.2-1.4,3.2-2.5,6.2-2.5c3.7,0,5.2,1.6,5.2,5.2v6
			c0,1.9,0.1,2.8,0.5,4H236.7z M236.1,329.7l-3.5,0.6c-2.4,0.4-3.4,1.3-3.4,2.8c0,1.6,1,2.8,2.8,2.8c2.2,0,4.1-1.8,4.1-4.5V329.7z"
			/>
		<path class="st5" d="M242.7,322.5h2.5v2.8c0.7-1.7,2.2-3.3,4.8-3.3c3.8,0,5.6,3.4,5.6,7.7c0,5.1-2.6,7.9-5.9,7.9
			c-2.2,0-3.9-1.2-4.5-2.8v7.6h-2.5V322.5z M245.1,330c0,0.8,0.1,1.6,0.1,2c0.4,2,1.7,3.6,3.8,3.6c2.7,0,3.9-2.8,3.9-5.8
			c0-2.9-1.1-5.7-3.9-5.7c-2.2,0-3.6,1.8-3.8,3.7c-0.1,0.4-0.1,1.1-0.1,2V330z"/>
		<path class="st5" d="M267.9,337.3c-0.2-0.8-0.4-1.6-0.4-2.6c-0.8,1.8-2.5,3-4.8,3c-2.9,0-4.7-1.8-4.7-4.5c0-3.1,2.4-4.1,5.6-4.6
			l3.8-0.6v-0.9c0-2.6-1.4-3.1-3-3.1c-2.3,0-3.7,0.9-4.7,2.2l-1.3-1.6c1.2-1.4,3.2-2.5,6.2-2.5c3.7,0,5.2,1.6,5.2,5.2v6
			c0,1.9,0.1,2.8,0.4,4H267.9z M267.4,329.7l-3.5,0.6c-2.4,0.4-3.4,1.3-3.4,2.8c0,1.6,1,2.8,2.8,2.8c2.2,0,4.1-1.8,4.1-4.5V329.7z"
			/>
		<path class="st5" d="M273.9,316.1h2.5v9c0.8-1.7,2.4-3,4.7-3c3.5,0,5.7,3,5.7,7.6c0,4.6-2.2,7.9-5.9,7.9c-2.1,0-3.9-1.2-4.8-3.2
			l-0.3,2.8h-2V316.1z M276.4,330c0,0.9,0.1,1.6,0.2,2.1c0.4,2,1.7,3.6,3.8,3.6c2.7,0,3.9-2.9,3.9-5.8c0-2.9-1.2-5.7-4-5.7
			c-2.1,0-3.5,1.6-3.8,3.6C276.5,328.2,276.4,328.8,276.4,330L276.4,330z"/>
		<path class="st5" d="M290.1,316.1h2.5v21.2h-2.5V316.1z"/>
		<path class="st5" d="M298.3,330.5c0.2,3.4,1.8,5.3,4.5,5.3c1.8,0,3-0.8,3.9-2.5l1.9,1c-1.1,1.9-3,3.3-5.9,3.3c-4.6,0-7-3.5-7-7.7
			c0-4.3,2.3-7.9,6.7-7.9c4.3,0,6.4,3.5,6.4,7.6c0,0.4,0,0.7,0,0.8H298.3z M298.3,329h8c0-2.5-1.1-5-3.9-5
			C300,324,298.5,325.9,298.3,329z"/>
		<path class="st5" d="M318,329.9c0-4.4,2.4-7.8,6.8-7.8c4.4,0,6.8,3.4,6.8,7.8c0,4.4-2.4,7.9-6.8,7.9
			C320.3,337.7,318,334.2,318,329.9z M329,329.9c0-3.3-1.5-5.8-4.2-5.8c-2.8,0-4.2,2.5-4.2,5.8s1.4,5.9,4.2,5.9
			C327.6,335.8,329,333.2,329,329.9z"/>
		<path class="st5" d="M335.6,324.2H333v-1.7h2.4c-0.3-1.1-0.6-2.3-0.6-3.3c0-1.9,0.8-3.6,3.7-3.6c1.1,0,1.9,0.1,2.7,0.4l-0.4,1.9
			c-0.4-0.2-1.2-0.4-1.7-0.4c-1.1,0-1.7,0.7-1.7,2c0,1,0.3,2.3,0.6,3h2.8v1.7h-2.8v13h-2.5V324.2z"/>
		<path class="st5" d="M146.3,364.4c-0.8,2-2.4,3.2-4.7,3.2c-3.7,0-5.9-3.1-5.9-7.8c0-4.8,2.4-7.7,5.9-7.7c2.4,0,3.9,1.3,4.6,2.9
			v-8.9h2.5v21.2h-2.4V364.4z M146.2,359.8c0-1.2-0.1-1.9-0.1-2.3c-0.4-1.8-1.6-3.3-3.8-3.3c-2.7,0-4,2.5-4,5.7c0,3.4,1.5,5.8,4,5.8
			c2,0,3.3-1.6,3.7-3.4c0.1-0.6,0.2-1.4,0.2-2.2V359.8z"/>
		<path class="st5" d="M154.4,360.5c0.2,3.4,1.8,5.3,4.5,5.3c1.8,0,3-0.8,3.9-2.5l1.9,1c-1.1,1.9-3,3.3-5.9,3.3c-4.6,0-7-3.5-7-7.7
			c0-4.3,2.3-7.9,6.7-7.9c4.3,0,6.4,3.5,6.4,7.6c0,0.4,0,0.7,0,0.8H154.4z M154.5,359h8c0-2.5-1.1-5-3.9-5
			C156.1,354,154.7,355.9,154.5,359z"/>
		<path class="st5" d="M180.4,364c-1.2,2.4-3.2,3.7-6.1,3.7c-4.7,0-6.9-3.5-6.9-7.8c0-4.4,2.3-7.8,6.9-7.8c2.9,0,4.8,1.4,6,3.7
			l-2.1,1c-0.8-1.8-2-2.8-3.8-2.8c-3,0-4.4,2.5-4.4,5.7c0,3,1.2,6,4.5,6c2.1,0,3.3-1.2,4-2.8L180.4,364z"/>
		<path class="st5" d="M182.2,359.9c0-4.4,2.4-7.8,6.8-7.8c4.4,0,6.8,3.4,6.8,7.8c0,4.4-2.4,7.9-6.8,7.9
			C184.5,367.7,182.2,364.2,182.2,359.9z M193.2,359.9c0-3.3-1.5-5.8-4.2-5.8c-2.8,0-4.2,2.5-4.2,5.8s1.4,5.9,4.2,5.9
			C191.8,365.8,193.2,363.2,193.2,359.9z"/>
		<path class="st5" d="M208.9,364.4c-0.8,2-2.4,3.2-4.7,3.2c-3.7,0-5.9-3.1-5.9-7.8c0-4.8,2.4-7.7,5.9-7.7c2.4,0,3.9,1.3,4.6,2.9
			v-8.9h2.5v21.2h-2.4V364.4z M208.8,359.8c0-1.2-0.1-1.9-0.1-2.3c-0.4-1.8-1.6-3.3-3.8-3.3c-2.7,0-4,2.5-4,5.7c0,3.4,1.5,5.8,4,5.8
			c2,0,3.3-1.6,3.7-3.4c0.1-0.6,0.2-1.4,0.2-2.2V359.8z"/>
		<path class="st5" d="M215.2,346.8h2.5v2.5h-2.5V346.8z M215.2,352.5h2.5v14.8h-2.5V352.5z"/>
		<path class="st5" d="M221.5,352.5h2.2l0.3,2.9c0.8-1.8,2.5-3.4,4.9-3.4c3.1,0,4.5,2.1,4.5,5.6v9.6h-2.5v-9.1c0-2.7-1.2-3.9-3-3.9
			c-2.2,0-3.8,1.9-3.8,5.2v7.8h-2.5V352.5z"/>
		<path class="st5" d="M238.3,369c1.1,1.1,2.9,1.8,4.7,1.8c3,0,3.7-2,3.7-4.3v-2.7c-0.8,1.8-2.3,3-4.6,3c-3.5,0-5.7-2.7-5.7-7.2
			c0-4.4,2.3-7.5,5.9-7.5c2.3,0,4,1.3,4.6,3.1l0.4-2.8h1.9v14c0,3.3-1.4,6.3-6.2,6.3c-2.6,0-4.7-0.8-6.1-2L238.3,369z M246.7,359.6
			c0-0.7,0-1.3-0.1-1.7c-0.3-2-1.4-3.8-3.8-3.8c-2.6,0-3.8,2.4-3.8,5.4c0,2.7,1,5.4,3.8,5.4c1.9,0,3.1-1.3,3.6-2.9
			c0.2-0.6,0.3-1.5,0.3-2.2V359.6z"/>
		<path class="st5" d="M259.8,352.5h2.5v2.8c0.7-1.7,2.2-3.3,4.8-3.3c3.8,0,5.6,3.4,5.6,7.7c0,5.1-2.6,7.9-5.9,7.9
			c-2.2,0-3.9-1.2-4.5-2.8v7.6h-2.5V352.5z M262.3,360c0,0.8,0.1,1.6,0.1,2c0.4,2,1.7,3.6,3.8,3.6c2.7,0,3.9-2.8,3.9-5.8
			c0-2.9-1.1-5.7-3.9-5.7c-2.2,0-3.6,1.8-3.8,3.7c-0.1,0.4-0.1,1.1-0.1,2V360z"/>
		<path class="st5" d="M285.1,367.3c-0.2-0.8-0.4-1.6-0.4-2.6c-0.8,1.8-2.5,3-4.8,3c-2.9,0-4.7-1.8-4.7-4.5c0-3.1,2.4-4.1,5.6-4.6
			l3.8-0.6v-0.9c0-2.6-1.4-3.1-3-3.1c-2.3,0-3.7,0.9-4.7,2.2l-1.3-1.6c1.2-1.4,3.2-2.5,6.2-2.5c3.7,0,5.2,1.6,5.2,5.2v6
			c0,1.9,0.1,2.8,0.4,4H285.1z M284.6,359.7l-3.5,0.6c-2.4,0.4-3.4,1.3-3.4,2.8c0,1.6,1,2.8,2.8,2.8c2.2,0,4.1-1.8,4.1-4.5V359.7z"
			/>
		<path class="st5" d="M303.1,364c-1.2,2.4-3.2,3.7-6.1,3.7c-4.7,0-6.9-3.5-6.9-7.8c0-4.4,2.3-7.8,6.9-7.8c2.9,0,4.8,1.4,6,3.7
			l-2.1,1c-0.8-1.8-2-2.8-3.8-2.8c-3,0-4.4,2.5-4.4,5.7c0,3,1.2,6,4.5,6c2.1,0,3.3-1.2,4-2.8L303.1,364z"/>
		<path class="st5" d="M305.9,346.1h2.5v13.3l6.7-6.9h3.1l-5.8,5.6l6.5,9.1H316l-5.2-7.6l-2.4,2.3v5.2h-2.5V346.1z"/>
		<path class="st5" d="M322.2,360.5c0.2,3.4,1.8,5.3,4.5,5.3c1.8,0,3-0.8,3.9-2.5l1.9,1c-1.1,1.9-3,3.3-5.9,3.3c-4.6,0-7-3.5-7-7.7
			c0-4.3,2.3-7.9,6.7-7.9c4.3,0,6.4,3.5,6.4,7.6c0,0.4,0,0.7,0,0.8H322.2z M322.3,359h8c0-2.5-1.1-5-3.9-5
			C323.9,354,322.5,355.9,322.3,359z"/>
		<path class="st5" d="M336.9,354.2h-2.5v-1.7h0.5c2.5,0,2.6-1,2.8-3.5l0.1-0.5h1.6v4h3.2v1.7h-3.2v9.2c0,1.7,0.4,2.4,1.8,2.4
			c0.6,0,1-0.1,1.5-0.4l0.3,1.8c-0.8,0.4-1.6,0.5-2.5,0.5c-2.9,0-3.5-1.6-3.5-3.9V354.2z"/>
		<path class="st5" d="M345.8,363.6c1,1.3,2.7,2.2,4.5,2.2c1.7,0,3.1-0.8,3.1-2.4c0-3.7-8.3-1.8-8.3-7.2c0-2.9,2.6-4.2,5.3-4.2
			c2.1,0,3.8,0.6,5.2,1.8l-1.3,1.7c-0.9-0.9-2.5-1.6-4-1.6c-1.4,0-2.7,0.6-2.7,2.1c0,3.4,8.2,1.7,8.2,7.1c0,3.1-2.6,4.6-5.5,4.6
			c-2.4,0-4.4-0.8-5.9-2.4L345.8,363.6z"/>
		<path class="st5" d="M357.3,372.2c3.2-3.7,4.6-8,4.6-13c0-5.3-1.4-9.2-4.6-12.9l1-1c4.1,3.6,6.3,8.6,6.3,13.9
			c0,5.5-2.2,10.2-6.3,13.9L357.3,372.2z"/>
	</g>
	<g>
		<path class="st2" d="M72.3,712.8c0.5,1.4,1.5,2.1,2.9,2.1c1.9,0,2.9-1.5,2.9-3.4c0-1.8-1-3.3-2.8-3.3c-1.3,0-2.1,0.8-2.6,1.6
			l-1.4-0.2l0.8-7.2h7.2v1.4h-6.1l-0.5,4.5c0.7-0.9,1.7-1.5,3.1-1.5c2.6,0,4.1,2,4.1,4.4c0,2.9-1.9,4.8-4.6,4.8
			c-2,0-3.7-0.8-4.6-2.8L72.3,712.8z"/>
		<path class="st2" d="M92.5,713.4c-0.8,1.7-2.3,2.8-4.4,2.8c-4.2,0-6.4-3.1-6.4-7.4c0-4.2,2.3-7.3,6.4-7.3c2.5,0,4.4,1,5.6,3
			l-1.7,0.8c-0.6-1.4-2.1-2.2-3.8-2.2c-3,0-4.5,2.5-4.5,5.7c0,3.2,1.6,5.9,4.6,5.9c2.6,0,4-2.1,4-3.9v-0.8h-3.5v-1.4h5.2v7.3h-1.1
			L92.5,713.4z"/>
		<path class="st2" d="M107.9,712.9c-1.2,2.2-3,3.3-5.6,3.3c-4.2,0-6.4-3.2-6.4-7.4c0-4.2,2.3-7.3,6.4-7.3c2.4,0,4.3,0.9,5.5,2.9
			l-1.7,0.9c-0.8-1.4-2.1-2.2-3.8-2.2c-3,0-4.5,2.5-4.5,5.7c0,3.2,1.6,5.9,4.5,5.9c1.9,0,3.1-0.8,3.9-2.6L107.9,712.9z"/>
	</g>
	<g>
		<path class="st2" d="M150.8,663.5h2.1c2.5,4.3,4.7,8.1,6.7,11.7c-0.1-4-0.1-7.8-0.1-11.7h1.7v14.1h-2.1c-2.3-3.9-4.9-8.3-6.7-11.7
			c0.1,4,0.1,7.8,0.1,11.7h-1.7V663.5z"/>
		<path class="st2" d="M174.3,675.1c-0.8,1.7-2.3,2.8-4.4,2.8c-4.2,0-6.4-3.1-6.4-7.4c0-4.2,2.3-7.3,6.4-7.3c2.5,0,4.4,1,5.6,3
			l-1.7,0.8c-0.6-1.4-2.1-2.2-3.8-2.2c-3,0-4.5,2.5-4.5,5.7c0,3.2,1.6,5.9,4.6,5.9c2.6,0,4-2.1,4-3.9v-0.8h-3.5v-1.4h5.2v7.3h-1.1
			L174.3,675.1z"/>
	</g>
	<g>
		<path class="st2" d="M220.5,717c0.8,0.7,1.9,1.2,3.1,1.2c2,0,2.5-1.3,2.5-2.9v-1.8c-0.5,1.2-1.5,2-3.1,2c-2.3,0-3.8-1.8-3.8-4.8
			c0-3,1.5-5,3.9-5c1.6,0,2.6,0.9,3.1,2.1l0.3-1.8h1.3v9.3c0,2.2-0.9,4.2-4.2,4.2c-1.7,0-3.1-0.6-4.1-1.3L220.5,717z M226.1,710.8
			c0-0.4,0-0.9-0.1-1.1c-0.2-1.3-0.9-2.5-2.6-2.5c-1.8,0-2.5,1.6-2.5,3.6c0,1.8,0.7,3.6,2.6,3.6c1.3,0,2.1-0.8,2.4-1.9
			C226,712,226.1,711.4,226.1,710.8L226.1,710.8z"/>
		<path class="st2" d="M230.4,701.7h2.1c2.5,4.3,4.7,8.1,6.7,11.7c-0.1-4-0.1-7.8-0.1-11.7h1.7v14.1h-2.1c-2.3-3.9-4.9-8.3-6.7-11.7
			c0.1,4,0.1,7.8,0.1,11.7h-1.7V701.7z"/>
		<path class="st2" d="M243.7,701.7h4.8c2.3,0,4.6,0.8,4.6,3.5c0,1.7-1.1,2.9-2.9,3.2c1.9,0.3,3.3,1.4,3.3,3.5
			c0,2.9-2.1,3.9-4.8,3.9h-4.9V701.7z M247.8,707.8c1.6,0,3.3-0.3,3.3-2.4c0-1.8-1.4-2.2-3-2.2h-2.6v4.7H247.8z M248.4,714.5
			c1.6,0,3.2-0.6,3.2-2.7c0-2-1.7-2.6-3.4-2.6h-2.6v5.3H248.4z"/>
	</g>
	<g>
		<path class="st2" d="M218.4,533.9c0.8,1.2,2.3,2.1,4.2,2.1c1.8,0,3.2-1,3.2-2.6c0-1.7-1.6-2.1-3.8-2.7c-2.4-0.7-4.2-1.7-4.2-4
			c0-2.4,2-3.9,4.8-3.9c1.9,0,3.7,0.7,4.8,1.9l-1.2,1.1c-0.8-0.9-2.1-1.6-3.6-1.6c-1.7,0-2.9,0.7-2.9,2.2c0,1.5,1.4,2.1,3.4,2.6
			c3,0.8,4.6,1.8,4.6,4.1c0,2.7-2.3,4.3-5.1,4.3c-2.5,0-4.3-0.9-5.4-2.4L218.4,533.9z"/>
		<path class="st2" d="M229.8,523.1h2.1c2.5,4.3,4.7,8.1,6.7,11.7c-0.1-4-0.1-7.8-0.1-11.7h1.7v14.1h-2.1c-2.3-3.9-4.9-8.3-6.7-11.7
			c0.1,4,0.1,7.8,0.1,11.7h-1.7V523.1z"/>
		<path class="st2" d="M242.5,530.1c0-4.5,2.6-7.3,6.4-7.3s6.5,2.8,6.5,7.3c0,4.5-2.7,7.4-6.5,7.4
			C245.1,537.5,242.5,534.6,242.5,530.1z M253.5,530.1c0-3.4-1.7-5.8-4.6-5.8c-2.9,0-4.5,2.4-4.5,5.8c0,3.5,1.8,5.8,4.5,5.8
			C251.8,535.9,253.5,533.6,253.5,530.1z"/>
		<path class="st2" d="M217.4,543.1h2.1c2.5,4.3,4.7,8.1,6.7,11.7c-0.1-4-0.1-7.8-0.1-11.7h1.7v14.1h-2.1c-2.3-3.9-4.9-8.3-6.7-11.7
			c0.1,4,0.1,7.8,0.1,11.7h-1.7V543.1z"/>
		<path class="st2" d="M230.6,543.1h2.2c1.4,3.6,3.1,7.9,4.2,10.8c1.1-2.9,2.8-7.2,4.2-10.8h2.1v14.1h-1.7c0-3.9,0-8.5,0.1-11.7
			c-1.2,3.3-3.1,7.8-4.7,11.8H237c-1.5-3.6-3.7-9-4.7-11.8c0.1,3.2,0.1,7.8,0.1,11.7h-1.7V543.1z"/>
		<path class="st2" d="M246.8,553.9c0.8,1.2,2.3,2.1,4.2,2.1c1.8,0,3.2-1,3.2-2.6c0-1.7-1.6-2.1-3.8-2.7c-2.4-0.7-4.2-1.7-4.2-4
			c0-2.4,2-3.9,4.8-3.9c1.9,0,3.7,0.7,4.8,1.9l-1.2,1.1c-0.8-0.9-2.1-1.6-3.6-1.6c-1.7,0-2.9,0.7-2.9,2.2c0,1.5,1.4,2.1,3.4,2.6
			c3,0.8,4.6,1.8,4.6,4.1c0,2.7-2.3,4.3-5.1,4.3c-2.5,0-4.3-0.9-5.4-2.4L246.8,553.9z"/>
	</g>
	<g>
		<path class="st2" d="M294.3,713.4c-0.8,1.7-2.3,2.8-4.4,2.8c-4.2,0-6.4-3.1-6.4-7.4c0-4.2,2.3-7.3,6.4-7.3c2.5,0,4.4,1,5.6,3
			l-1.7,0.8c-0.6-1.4-2.1-2.2-3.8-2.2c-3,0-4.5,2.5-4.5,5.7c0,3.2,1.6,5.9,4.6,5.9c2.6,0,4-2.1,4-3.9v-0.8h-3.5v-1.4h5.2v7.3h-1.1
			L294.3,713.4z"/>
		<path class="st2" d="M304.5,715.9c-0.2-0.5-0.2-1.1-0.3-1.7c-0.5,1.2-1.7,2-3.2,2c-1.9,0-3.1-1.2-3.1-3c0-2.1,1.6-2.7,3.7-3.1
			l2.5-0.4v-0.6c0-1.7-0.9-2-2-2c-1.5,0-2.5,0.6-3.1,1.5l-0.9-1.1c0.8-0.9,2.1-1.7,4.2-1.7c2.4,0,3.5,1.1,3.5,3.5v4
			c0,1.3,0,1.9,0.3,2.7H304.5z M304.2,710.8l-2.4,0.4c-1.6,0.3-2.2,0.8-2.2,1.9c0,1.1,0.6,1.9,1.9,1.9c1.5,0,2.7-1.2,2.7-3V710.8z"
			/>
		<path class="st2" d="M309.2,707.2h-1.7V706h0.4c1.6,0,1.7-0.6,1.9-2.3l0-0.4h1v2.7h2.1v1.1h-2.1v6.1c0,1.1,0.3,1.6,1.2,1.6
			c0.4,0,0.7-0.1,1-0.2l0.2,1.2c-0.5,0.2-1.1,0.3-1.7,0.3c-1.9,0-2.3-1.1-2.3-2.6V707.2z"/>
		<path class="st2" d="M316,711.3c0.1,2.2,1.2,3.6,3,3.6c1.2,0,2-0.5,2.6-1.6l1.3,0.7c-0.8,1.3-2,2.2-4,2.2c-3.1,0-4.6-2.3-4.6-5.2
			c0-2.8,1.5-5.3,4.5-5.3c2.9,0,4.3,2.3,4.3,5c0,0.3,0,0.4,0,0.5H316z M316,710.3h5.3c0-1.6-0.7-3.3-2.6-3.3
			C317.1,707,316.1,708.3,316,710.3z"/>
		<path class="st2" d="M324.1,706h1.8l2,8.2l2-8.2h1.8l1.9,8.2l2-8.2h1.8l-2.9,9.8h-1.8l-2-7.6l-2,7.6H327L324.1,706z"/>
		<path class="st2" d="M345.2,715.9c-0.2-0.5-0.2-1.1-0.3-1.7c-0.5,1.2-1.7,2-3.2,2c-1.9,0-3.1-1.2-3.1-3c0-2.1,1.6-2.7,3.7-3.1
			l2.5-0.4v-0.6c0-1.7-0.9-2-2-2c-1.5,0-2.5,0.6-3.1,1.5l-0.9-1.1c0.8-0.9,2.1-1.7,4.2-1.7c2.4,0,3.5,1.1,3.5,3.5v4
			c0,1.3,0,1.9,0.3,2.7H345.2z M344.9,710.8l-2.4,0.4c-1.6,0.3-2.2,0.8-2.2,1.9c0,1.1,0.6,1.9,1.9,1.9c1.5,0,2.7-1.2,2.7-3V710.8z"
			/>
		<path class="st2" d="M348.9,718c0.3,0.1,0.7,0.2,1.1,0.2c0.9,0,1.2-0.4,1.7-2.1l-3.3-10h1.8l2.4,8.1l2.4-8.1h1.8l-3,9.1
			c-1,3.1-1.4,4.4-3.7,4.4c-0.4,0-1,0-1.3-0.1L348.9,718z"/>
	</g>
	<g>
		<path class="st2" d="M316.9,560.3h8.5v1.4h-6.7v4.9h5.1v1.4h-5.1v6.4h-1.8V560.3z"/>
		<path class="st2" d="M327.5,569.9c0.1,2.2,1.2,3.6,3,3.6c1.2,0,2-0.5,2.6-1.6l1.3,0.7c-0.8,1.3-2,2.2-4,2.2
			c-3.1,0-4.6-2.3-4.6-5.2c0-2.8,1.5-5.3,4.5-5.3c2.9,0,4.3,2.3,4.3,5c0,0.3,0,0.4,0,0.5H327.5z M327.5,568.9h5.3
			c0-1.6-0.7-3.3-2.6-3.3C328.6,565.5,327.7,566.8,327.5,568.9z"/>
		<path class="st2" d="M337.8,569.9c0.1,2.2,1.2,3.6,3,3.6c1.2,0,2-0.5,2.6-1.6l1.3,0.7c-0.8,1.3-2,2.2-4,2.2
			c-3.1,0-4.6-2.3-4.6-5.2c0-2.8,1.5-5.3,4.5-5.3c2.9,0,4.3,2.3,4.3,5c0,0.3,0,0.4,0,0.5H337.8z M337.9,568.9h5.3
			c0-1.6-0.7-3.3-2.6-3.3C338.9,565.5,338,566.8,337.9,568.9z"/>
		<path class="st2" d="M353.5,572.5c-0.5,1.3-1.6,2.2-3.1,2.2c-2.5,0-3.9-2.1-3.9-5.2c0-3.2,1.6-5.1,3.9-5.1c1.6,0,2.6,0.9,3,1.9v-6
			h1.7v14.1h-1.6V572.5z M353.5,569.4c0-0.8,0-1.2-0.1-1.5c-0.2-1.2-1.1-2.2-2.5-2.2c-1.8,0-2.6,1.7-2.6,3.8c0,2.2,1,3.9,2.7,3.9
			c1.3,0,2.2-1.1,2.4-2.3c0.1-0.4,0.1-0.9,0.1-1.5V569.4z"/>
		<path class="st2" d="M358.9,569.9c0.1,2.2,1.2,3.6,3,3.6c1.2,0,2-0.5,2.6-1.6l1.3,0.7c-0.8,1.3-2,2.2-4,2.2
			c-3.1,0-4.6-2.3-4.6-5.2c0-2.8,1.5-5.3,4.5-5.3c2.9,0,4.3,2.3,4.3,5c0,0.3,0,0.4,0,0.5H358.9z M359,568.9h5.3
			c0-1.6-0.7-3.3-2.6-3.3C360,565.5,359.1,566.8,359,568.9z"/>
		<path class="st2" d="M368,564.6h1.4l0.2,2.2c0.6-1.4,1.8-2.5,3.5-2.5v1.8c-0.2,0-0.4-0.1-0.6-0.1c-1.3,0-2.8,0.9-2.8,3.3v5.1H368
			V564.6z"/>
		<path class="st2" d="M331.3,580.3h1.7v14.1h-1.7V580.3z"/>
		<path class="st2" d="M335.5,580.7h1.7v1.7h-1.7V580.7z M335.5,584.6h1.7v9.8h-1.7V584.6z"/>
		<path class="st2" d="M339.7,584.6h1.4l0.2,2c0.5-1.2,1.6-2.2,3.3-2.2c2,0,3,1.4,3,3.7v6.4h-1.7v-6.1c0-1.8-0.8-2.6-2-2.6
			c-1.5,0-2.6,1.3-2.6,3.4v5.2h-1.7V584.6z"/>
		<path class="st2" d="M350.1,580.3h1.7v8.9l4.5-4.6h2.1l-3.9,3.8l4.4,6.1h-1.9l-3.5-5l-1.6,1.5v3.5h-1.7V580.3z"/>
	</g>
	<g>
		<path class="st2" d="M443.7,408.4h2.1c2.5,4.3,4.7,8.1,6.7,11.7c-0.1-4-0.1-7.8-0.1-11.7h1.7v14.1h-2.1c-2.3-3.9-4.9-8.3-6.7-11.7
			c0.1,4,0.1,7.8,0.1,11.7h-1.7V408.4z"/>
		<path class="st2" d="M460.2,409.8H456v-1.4h10.1v1.4H462v12.7h-1.8V409.8z"/>
		<path class="st2" d="M468,408.4h2.1c2.5,4.3,4.7,8.1,6.7,11.7c-0.1-4-0.1-7.8-0.1-11.7h1.7v14.1h-2.1c-2.3-3.9-4.9-8.3-6.7-11.7
			c0.1,4,0.1,7.8,0.1,11.7H468V408.4z"/>
		<path class="st2" d="M429.5,436.7h1.7v1.9c0.5-1.1,1.5-2.2,3.2-2.2c2.6,0,3.8,2.3,3.8,5.1c0,3.4-1.7,5.2-4,5.2
			c-1.5,0-2.6-0.8-3-1.9v5.1h-1.7V436.7z M431.1,441.6c0,0.6,0,1,0.1,1.4c0.2,1.3,1.2,2.4,2.5,2.4c1.8,0,2.6-1.9,2.6-3.8
			c0-2-0.7-3.8-2.6-3.8c-1.5,0-2.4,1.2-2.6,2.4C431.2,440.5,431.1,441,431.1,441.6L431.1,441.6z"/>
		<path class="st2" d="M446.3,446.5c-0.2-0.5-0.2-1.1-0.3-1.7c-0.5,1.2-1.7,2-3.2,2c-1.9,0-3.1-1.2-3.1-3c0-2.1,1.6-2.7,3.7-3.1
			l2.5-0.4v-0.6c0-1.7-0.9-2-2-2c-1.5,0-2.5,0.6-3.1,1.5l-0.9-1.1c0.8-0.9,2.1-1.7,4.2-1.7c2.4,0,3.5,1.1,3.5,3.5v4
			c0,1.3,0,1.9,0.3,2.7H446.3z M446,441.4l-2.4,0.4c-1.6,0.3-2.2,0.8-2.2,1.9c0,1.1,0.6,1.9,1.9,1.9c1.5,0,2.7-1.2,2.7-3V441.4z"/>
		<path class="st2" d="M450,448.6c0.3,0.1,0.7,0.2,1.1,0.2c0.9,0,1.2-0.4,1.7-2.1l-3.3-10h1.8l2.4,8.1l2.4-8.1h1.8l-3,9.1
			c-1,3.1-1.4,4.4-3.7,4.4c-0.4,0-1,0-1.3-0.1L450,448.6z"/>
		<path class="st2" d="M459.6,432.4h1.7v14.1h-1.7V432.4z"/>
		<path class="st2" d="M463.4,441.6c0-2.9,1.6-5.2,4.5-5.2c3,0,4.5,2.2,4.5,5.2c0,2.9-1.6,5.2-4.5,5.2
			C464.9,446.8,463.4,444.5,463.4,441.6z M470.7,441.6c0-2.2-1-3.9-2.8-3.9c-1.8,0-2.8,1.7-2.8,3.9c0,2.2,0.9,3.9,2.8,3.9
			C469.8,445.5,470.7,443.8,470.7,441.6z"/>
		<path class="st2" d="M480.7,446.5c-0.2-0.5-0.2-1.1-0.3-1.7c-0.5,1.2-1.7,2-3.2,2c-1.9,0-3.1-1.2-3.1-3c0-2.1,1.6-2.7,3.7-3.1
			l2.5-0.4v-0.6c0-1.7-0.9-2-2-2c-1.5,0-2.5,0.6-3.1,1.5l-0.9-1.1c0.8-0.9,2.1-1.7,4.2-1.7c2.4,0,3.5,1.1,3.5,3.5v4
			c0,1.3,0,1.9,0.3,2.7H480.7z M480.3,441.4l-2.4,0.4c-1.6,0.3-2.2,0.8-2.2,1.9c0,1.1,0.6,1.9,1.9,1.9c1.5,0,2.7-1.2,2.7-3V441.4z"
			/>
		<path class="st2" d="M491.1,444.6c-0.5,1.3-1.6,2.2-3.1,2.2c-2.5,0-3.9-2.1-3.9-5.2c0-3.2,1.6-5.1,3.9-5.1c1.6,0,2.6,0.9,3,1.9v-6
			h1.7v14.1h-1.6V444.6z M491,441.5c0-0.8,0-1.2-0.1-1.5c-0.2-1.2-1.1-2.2-2.5-2.2c-1.8,0-2.6,1.7-2.6,3.8c0,2.2,1,3.9,2.7,3.9
			c1.3,0,2.2-1.1,2.4-2.3c0.1-0.4,0.1-0.9,0.1-1.5V441.5z"/>
	</g>
	<g>
		<path class="st2" d="M503.6,571.1c0.8,1.2,2.3,2.1,4.2,2.1c1.8,0,3.2-1,3.2-2.6c0-1.7-1.6-2.1-3.8-2.7c-2.4-0.7-4.2-1.7-4.2-4
			c0-2.4,2-3.9,4.8-3.9c1.9,0,3.7,0.7,4.8,1.9l-1.2,1.1c-0.8-0.9-2.1-1.6-3.6-1.6c-1.7,0-2.9,0.7-2.9,2.2c0,1.5,1.4,2.1,3.4,2.6
			c3,0.8,4.6,1.8,4.6,4.1c0,2.7-2.3,4.3-5.1,4.3c-2.5,0-4.3-0.9-5.4-2.4L503.6,571.1z"/>
		<path class="st2" d="M516.2,569.9c0.1,2.2,1.2,3.6,3,3.6c1.2,0,2-0.5,2.6-1.6l1.3,0.7c-0.8,1.3-2,2.2-4,2.2
			c-3.1,0-4.6-2.3-4.6-5.2c0-2.8,1.5-5.3,4.5-5.3c2.9,0,4.3,2.3,4.3,5c0,0.3,0,0.4,0,0.5H516.2z M516.2,568.9h5.3
			c0-1.6-0.7-3.3-2.6-3.3C517.3,565.5,516.4,566.8,516.2,568.9z"/>
		<path class="st2" d="M525.3,564.6h1.4l0.2,2.2c0.6-1.4,1.8-2.5,3.5-2.5v1.8c-0.2,0-0.4-0.1-0.6-0.1c-1.3,0-2.8,0.9-2.8,3.3v5.1
			h-1.7V564.6z"/>
		<path class="st2" d="M531.6,564.6h1.9l2.4,8.3l2.4-8.3h1.8l-3.2,9.8h-2L531.6,564.6z"/>
		<path class="st2" d="M541.8,560.7h1.7v1.7h-1.7V560.7z M541.8,564.6h1.7v9.8h-1.7V564.6z"/>
		<path class="st2" d="M554.2,572.2c-0.8,1.6-2.2,2.5-4.1,2.5c-3.2,0-4.6-2.3-4.6-5.2c0-2.9,1.5-5.2,4.6-5.2c1.9,0,3.2,0.9,4,2.5
			l-1.4,0.7c-0.5-1.2-1.3-1.8-2.6-1.8c-2,0-2.9,1.7-2.9,3.8c0,2,0.8,4,3,4c1.4,0,2.2-0.8,2.7-1.9L554.2,572.2z"/>
		<path class="st2" d="M557.2,569.9c0.1,2.2,1.2,3.6,3,3.6c1.2,0,2-0.5,2.6-1.6l1.3,0.7c-0.8,1.3-2,2.2-4,2.2
			c-3.1,0-4.6-2.3-4.6-5.2c0-2.8,1.5-5.3,4.5-5.3c2.9,0,4.3,2.3,4.3,5c0,0.3,0,0.4,0,0.5H557.2z M557.2,568.9h5.3
			c0-1.6-0.7-3.3-2.6-3.3C558.3,565.5,557.3,566.8,557.2,568.9z"/>
		<path class="st2" d="M520.1,580.3h1.7v14.1h-1.7V580.3z"/>
		<path class="st2" d="M524.3,580.7h1.7v1.7h-1.7V580.7z M524.3,584.6h1.7v9.8h-1.7V584.6z"/>
		<path class="st2" d="M528.5,584.6h1.4l0.2,2c0.5-1.2,1.6-2.2,3.3-2.2c2,0,3,1.4,3,3.7v6.4h-1.7v-6.1c0-1.8-0.8-2.6-2-2.6
			c-1.5,0-2.6,1.3-2.6,3.4v5.2h-1.7V584.6z"/>
		<path class="st2" d="M538.9,580.3h1.7v8.9l4.5-4.6h2.1l-3.9,3.8l4.4,6.1h-1.9l-3.5-5l-1.6,1.5v3.5h-1.7V580.3z"/>
	</g>
	<g>
		<path class="st2" d="M456.1,611.4h1.8v9.1c0,2.6,1.3,3.8,3.4,3.8c2.2,0,3.4-1.2,3.4-3.7v-9.2h1.8v9.3c0,2.6-1.2,5.1-5.2,5.1
			c-4.1,0-5.2-2.5-5.2-5.2V611.4z"/>
		<path class="st2" d="M469.2,615.7h1.7v6c0,1.9,0.7,2.7,2,2.7c1.6,0,2.5-1.4,2.5-3.5v-5.2h1.7v9.8h-1.6v-2
			c-0.5,1.2-1.3,2.3-3.1,2.3c-2.1,0-3.2-1.4-3.2-3.7V615.7z"/>
	</g>
	<g>
		<path class="st2" d="M522.7,701.7h1.8v9.1c0,2.6,1.3,3.8,3.4,3.8c2.2,0,3.4-1.2,3.4-3.7v-9.2h1.8v9.3c0,2.6-1.2,5.1-5.2,5.1
			c-4.1,0-5.2-2.5-5.2-5.2V701.7z"/>
		<path class="st2" d="M535.9,701.7h8.4v1.4h-6.6v4.6h5.1v1.4h-5.1v5.3h6.9v1.4h-8.7V701.7z"/>
	</g>
	<g>
		<g>
			<line class="st6" x1="415.7" y1="549.6" x2="351.3" y2="613.9"/>
			<g>
				<polygon class="st2" points="411.1,547.1 420.7,544.5 418.2,554.1 				"/>
			</g>
			<g>
				<polygon class="st2" points="348.8,609.4 346.3,619 355.9,616.4 				"/>
			</g>
		</g>
	</g>
	<g>
		<g>
			<g>
				<line class="st6" x1="434.6" y1="549.8" x2="498.9" y2="614.1"/>
				<g>
					<polygon class="st2" points="432.1,554.4 429.5,544.7 439.2,547.3 					"/>
				</g>
				<g>
					<polygon class="st2" points="494.4,616.6 504,619.2 501.4,609.6 					"/>
				</g>
			</g>
		</g>
		<g>
			<path class="st7" d="M429.3,572.8c5.8-4.8,9-7.4,15-13.4c6-6,7.9-8.5,12.6-14.2"/>
			<path class="st7" d="M448.7,600.4c5.9-4.8,12.1-10.4,18.2-16.5c6.8-6.8,12.9-13.7,18.1-20.2"/>
			<path class="st7" d="M443.9,593.5c5.8-4.8,11.1-9.5,17.1-15.5c6.7-6.7,12-12.7,17.1-19.1"/>
			<path class="st7" d="M471.3,554.1c-5.1,6.3-9.6,11.5-16.2,18.1c-5.9,5.9-10.4,9.8-16.1,14.5"/>
			<path class="st7" d="M463.7,550c-5,6.2-8,9.8-14.4,16.3c-5.8,5.8-9.4,8.9-15,13.5"/>
		</g>
	</g>
	<line class="st8" x1="236.4" y1="594.4" x2="236.4" y2="618.3"/>
	<line class="st8" x1="207.9" y1="653.1" x2="118.4" y2="653.1"/>
	<line class="st8" x1="306.4" y1="664" x2="236.3" y2="593.8"/>
	
		<pattern  id="SVGID_00000076573548081141382020000017656977172494880943_" xlink:href="#Unnamed_Pattern_2" patternTransform="matrix(5.1657 0 0 3.0131 28920.4082 13774.3086)">
	</pattern>
	<polygon style="fill:url(#SVGID_00000076573548081141382020000017656977172494880943_);" points="400.2,484.8 356.7,441.3 
		313.1,397.8 370.2,397.8 	"/>
</g>
<g>
	<path class="st2" d="M884.8,129.4h9.2c5.8,0,10,2.4,10,8c0,4.6-3.4,6.9-7.4,7.3c1.4,0.4,2.4,1.2,3.5,3l5.6,9.9h-4.2l-4.4-8.3
		c-1.2-2.3-2.5-3.6-5.2-3.6h-3.5v11.9h-3.6V129.4z M894,142.9c3.7,0,6.1-1.6,6.1-5.4c0-3.4-2.4-5.3-6.2-5.3h-5.6v10.7H894z"/>
	<path class="st2" d="M910.6,148.6c0.3,4.5,2.4,7.1,6,7.1c2.4,0,4-1,5.2-3.3l2.5,1.4c-1.5,2.6-4,4.4-7.9,4.4
		c-6.2,0-9.3-4.6-9.3-10.3c0-5.7,3-10.5,9-10.5c5.7,0,8.6,4.6,8.6,10.1c0,0.6,0,0.9,0,1.1H910.6z M910.6,146.6h10.7
		c0-3.3-1.5-6.6-5.2-6.6C912.8,140,910.9,142.6,910.6,146.6z"/>
	<path class="st2" d="M930.3,160c1.5,1.5,3.8,2.4,6.2,2.4c4,0,5-2.7,5-5.7v-3.6c-1,2.4-3,4-6.2,4c-4.6,0-7.6-3.6-7.6-9.6
		c0-5.9,3-10,7.8-10c3.1,0,5.3,1.8,6.2,4.2l0.6-3.7h2.6v18.7c0,4.4-1.9,8.4-8.3,8.4c-3.4,0-6.2-1.1-8.1-2.6L930.3,160z M941.6,147.5
		c0-0.9,0-1.8-0.1-2.2c-0.4-2.6-1.9-5-5.1-5c-3.5,0-5.1,3.2-5.1,7.2c0,3.6,1.4,7.2,5.1,7.2c2.6,0,4.2-1.7,4.8-3.9
		c0.2-0.8,0.4-2,0.4-3V147.5z"/>
	<path class="st2" d="M952.5,148.6c0.3,4.5,2.4,7.1,6,7.1c2.4,0,4-1,5.2-3.3l2.5,1.4c-1.5,2.6-4,4.4-7.9,4.4
		c-6.2,0-9.3-4.6-9.3-10.3c0-5.7,3-10.5,9-10.5c5.7,0,8.6,4.6,8.6,10.1c0,0.6,0,0.9,0,1.1H952.5z M952.6,146.6h10.7
		c0-3.3-1.5-6.6-5.2-6.6C954.7,140,952.8,142.6,952.6,146.6z"/>
	<path class="st2" d="M970.7,138h2.9l0.4,3.9c1-2.4,3.3-4.5,6.5-4.5c4.1,0,6,2.8,6,7.4v12.8h-3.3v-12.1c0-3.6-1.6-5.2-4-5.2
		c-2.9,0-5.1,2.5-5.1,6.9v10.4h-3.3V138z"/>
	<path class="st2" d="M994,148.6c0.3,4.5,2.4,7.1,6,7.1c2.4,0,4-1,5.2-3.3l2.5,1.4c-1.5,2.6-4,4.4-7.9,4.4c-6.2,0-9.3-4.6-9.3-10.3
		c0-5.7,3-10.5,9-10.5c5.7,0,8.6,4.6,8.6,10.1c0,0.6,0,0.9,0,1.1H994z M994,146.6h10.7c0-3.3-1.5-6.6-5.2-6.6
		C996.2,140,994.3,142.6,994,146.6z"/>
	<path class="st2" d="M1012.2,138h2.9l0.3,4.4c1.1-2.9,3.7-5,7-5v3.5c-0.4-0.1-0.8-0.1-1.2-0.1c-2.6,0-5.7,1.9-5.7,6.6v10.2h-3.3
		V138z"/>
	<path class="st2" d="M1037.5,157.7c-0.3-1-0.5-2.2-0.5-3.4c-1,2.4-3.4,4-6.4,4c-3.8,0-6.2-2.4-6.2-6c0-4.2,3.2-5.5,7.4-6.1l5-0.8
		v-1.2c0-3.5-1.9-4.1-4-4.1c-3,0-4.9,1.2-6.2,3l-1.7-2.2c1.6-1.9,4.3-3.4,8.3-3.4c4.9,0,7,2.1,7,6.9v8c0,2.6,0.1,3.7,0.6,5.4H1037.5
		z M1036.8,147.6l-4.7,0.8c-3.2,0.6-4.5,1.7-4.5,3.8c0,2.1,1.3,3.8,3.7,3.8c3,0,5.5-2.4,5.5-6V147.6z"/>
	<path class="st2" d="M1046.8,140.3h-3.4V138h0.7c3.3,0,3.4-1.3,3.8-4.6l0.1-0.7h2.1v5.4h4.2v2.3h-4.2v12.2c0,2.2,0.6,3.2,2.4,3.2
		c0.8,0,1.4-0.2,2-0.5l0.4,2.4c-1.1,0.5-2.2,0.7-3.4,0.7c-3.8,0-4.7-2.2-4.7-5.2V140.3z"/>
	<path class="st2" d="M1058.4,130.4h3.3v3.3h-3.3V130.4z M1058.4,138h3.3v19.7h-3.3V138z"/>
	<path class="st2" d="M1065.3,138h3.8l4.8,16.6l4.8-16.6h3.6l-6.5,19.7h-4L1065.3,138z"/>
	<path class="st2" d="M1087.8,148.6c0.3,4.5,2.4,7.1,6,7.1c2.4,0,4-1,5.2-3.3l2.5,1.4c-1.5,2.6-4,4.4-7.9,4.4
		c-6.2,0-9.3-4.6-9.3-10.3c0-5.7,3-10.5,9-10.5c5.7,0,8.6,4.6,8.6,10.1c0,0.6,0,0.9,0,1.1H1087.8z M1087.8,146.6h10.7
		c0-3.3-1.5-6.6-5.2-6.6C1090,140,1088.1,142.6,1087.8,146.6z"/>
	<path class="st2" d="M1115,138h3.3v3.8c0.9-2.3,3-4.4,6.4-4.4c5.1,0,7.5,4.6,7.5,10.3c0,6.8-3.4,10.5-7.9,10.5
		c-2.9,0-5.2-1.6-6-3.8v10.2h-3.3V138z M1118.3,148c0,1.1,0.1,2.1,0.2,2.7c0.5,2.6,2.3,4.8,5.1,4.8c3.6,0,5.2-3.7,5.2-7.7
		c0-3.9-1.4-7.6-5.2-7.6c-2.9,0-4.8,2.4-5.1,4.9c-0.1,0.5-0.2,1.5-0.2,2.7V148z"/>
	<path class="st2" d="M1148.7,157.7c-0.3-1-0.5-2.2-0.5-3.4c-1,2.4-3.4,4-6.4,4c-3.8,0-6.2-2.4-6.2-6c0-4.2,3.2-5.5,7.4-6.1l5-0.8
		v-1.2c0-3.5-1.9-4.1-4-4.1c-3,0-4.9,1.2-6.2,3l-1.7-2.2c1.6-1.9,4.3-3.4,8.3-3.4c4.9,0,7,2.1,7,6.9v8c0,2.6,0.1,3.7,0.6,5.4H1148.7
		z M1148,147.6l-4.7,0.8c-3.2,0.6-4.5,1.7-4.5,3.8c0,2.1,1.3,3.8,3.7,3.8c3,0,5.5-2.4,5.5-6V147.6z"/>
	<path class="st2" d="M1156,161.9c0.6,0.2,1.4,0.4,2.2,0.4c1.7,0,2.3-0.8,3.4-4.2l-6.7-20.1h3.6l4.8,16.3l4.8-16.3h3.6l-6,18.1
		c-2,6.2-2.8,8.7-7.4,8.7c-0.9,0-2.1-0.1-2.7-0.3L1156,161.9z"/>
	<path class="st2" d="M1175.2,129.4h3.3v28.2h-3.3V129.4z"/>
	<path class="st2" d="M1182.8,147.8c0-5.8,3.2-10.4,9-10.4c5.9,0,9.1,4.5,9.1,10.4c0,5.8-3.2,10.5-9.1,10.5
		C1185.8,158.3,1182.8,153.6,1182.8,147.8z M1197.4,147.8c0-4.4-2-7.8-5.6-7.8c-3.7,0-5.6,3.3-5.6,7.8c0,4.4,1.9,7.9,5.6,7.9
		C1195.6,155.7,1197.4,152.2,1197.4,147.8z"/>
	<path class="st2" d="M1217.4,157.7c-0.3-1-0.5-2.2-0.5-3.4c-1,2.4-3.4,4-6.4,4c-3.8,0-6.2-2.4-6.2-6c0-4.2,3.2-5.5,7.4-6.1l5-0.8
		v-1.2c0-3.5-1.9-4.1-4-4.1c-3,0-4.9,1.2-6.2,3l-1.7-2.2c1.6-1.9,4.3-3.4,8.3-3.4c4.9,0,7,2.1,7,6.9v8c0,2.6,0.1,3.7,0.6,5.4H1217.4
		z M1216.7,147.6l-4.7,0.8c-3.2,0.6-4.5,1.7-4.5,3.8c0,2.1,1.3,3.8,3.7,3.8c3,0,5.5-2.4,5.5-6V147.6z"/>
	<path class="st2" d="M1238.2,153.8c-1.1,2.6-3.2,4.3-6.2,4.3c-4.9,0-7.9-4.2-7.9-10.4c0-6.4,3.2-10.3,7.9-10.3
		c3.2,0,5.2,1.8,6.1,3.9v-11.9h3.4v28.2h-3.2V153.8z M1238,147.7c0-1.6-0.1-2.5-0.2-3.1c-0.5-2.4-2.2-4.4-5-4.4
		c-3.6,0-5.3,3.4-5.3,7.6c0,4.5,2,7.7,5.4,7.7c2.7,0,4.4-2.1,4.9-4.6c0.2-0.8,0.2-1.8,0.2-3V147.7z"/>
</g>
<g>
	<g>
		<rect x="887" y="648.3" class="st2" width="9.6" height="4.8"/>
		<path class="st2" d="M848.7,638.7v28.8h57.5v-28.8H848.7z M901.4,662.7h-48v-19.2h47.9v19.2H901.4z"/>
	</g>
	
		<pattern  id="SVGID_00000178897624703899411570000018122277271897199258_" xlink:href="#Unnamed_Pattern_2" patternTransform="matrix(5.1657 0 0 2.7981 29035.9512 12420.583)">
	</pattern>
	
		<rect x="695.4" y="257.4" style="fill:url(#SVGID_00000178897624703899411570000018122277271897199258_);" width="308.6" height="141.7"/>
	<g>
		<path class="st5" d="M732.7,302.8c-1.7,3.3-4.4,4.9-8.4,4.9c-6.3,0-9.7-4.9-9.7-11.1c0-6.3,3.4-10.9,9.7-10.9
			c3.6,0,6.4,1.4,8.2,4.4l-2.6,1.3c-1.1-2.1-3.1-3.4-5.7-3.4c-4.5,0-6.8,3.8-6.8,8.6c0,4.8,2.4,8.8,6.8,8.8c2.8,0,4.7-1.3,5.8-3.9
			L732.7,302.8z"/>
		<path class="st5" d="M745.1,307.3c-0.2-0.8-0.4-1.6-0.4-2.6c-0.8,1.8-2.5,3-4.8,3c-2.9,0-4.7-1.8-4.7-4.5c0-3.1,2.4-4.1,5.6-4.6
			l3.8-0.6v-0.9c0-2.6-1.4-3.1-3-3.1c-2.3,0-3.7,0.9-4.7,2.2l-1.3-1.6c1.2-1.4,3.2-2.5,6.2-2.5c3.7,0,5.2,1.6,5.2,5.2v6
			c0,1.9,0.1,2.8,0.5,4H745.1z M744.6,299.7l-3.5,0.6c-2.4,0.4-3.4,1.3-3.4,2.8c0,1.6,1,2.8,2.8,2.8c2.2,0,4.1-1.8,4.1-4.5V299.7z"
			/>
		<path class="st5" d="M751.1,292.5h2.5v2.8c0.7-1.7,2.2-3.3,4.8-3.3c3.8,0,5.6,3.4,5.6,7.7c0,5.1-2.6,7.9-5.9,7.9
			c-2.2,0-3.9-1.2-4.5-2.8v7.6h-2.5V292.5z M753.6,300c0,0.8,0.1,1.6,0.1,2c0.4,2,1.7,3.6,3.8,3.6c2.7,0,3.9-2.8,3.9-5.8
			c0-2.9-1.1-5.7-3.9-5.7c-2.2,0-3.6,1.8-3.8,3.7c-0.1,0.4-0.1,1.1-0.1,2V300z"/>
		<path class="st5" d="M776.4,307.3c-0.2-0.8-0.4-1.6-0.4-2.6c-0.8,1.8-2.5,3-4.8,3c-2.9,0-4.7-1.8-4.7-4.5c0-3.1,2.4-4.1,5.6-4.6
			l3.8-0.6v-0.9c0-2.6-1.4-3.1-3-3.1c-2.3,0-3.7,0.9-4.7,2.2l-1.3-1.6c1.2-1.4,3.2-2.5,6.2-2.5c3.7,0,5.2,1.6,5.2,5.2v6
			c0,1.9,0.1,2.8,0.4,4H776.4z M775.9,299.7l-3.5,0.6c-2.4,0.4-3.4,1.3-3.4,2.8c0,1.6,1,2.8,2.8,2.8c2.2,0,4.1-1.8,4.1-4.5V299.7z"
			/>
		<path class="st5" d="M782.4,286.1h2.5v9c0.8-1.7,2.4-3,4.7-3c3.5,0,5.7,3,5.7,7.6c0,4.6-2.2,7.9-5.9,7.9c-2.1,0-3.9-1.2-4.8-3.2
			l-0.3,2.8h-2V286.1z M784.9,300c0,0.9,0.1,1.6,0.2,2.1c0.4,2,1.7,3.6,3.8,3.6c2.7,0,3.9-2.9,3.9-5.8c0-2.9-1.2-5.7-4-5.7
			c-2.1,0-3.5,1.6-3.8,3.6C785,298.2,784.9,298.8,784.9,300L784.9,300z"/>
		<path class="st5" d="M798.6,286.1h2.5v21.2h-2.5V286.1z"/>
		<path class="st5" d="M806.8,300.5c0.2,3.4,1.8,5.3,4.5,5.3c1.8,0,3-0.8,3.9-2.5l1.9,1c-1.1,1.9-3,3.3-5.9,3.3c-4.6,0-7-3.5-7-7.7
			c0-4.3,2.3-7.9,6.7-7.9c4.3,0,6.4,3.5,6.4,7.6c0,0.4,0,0.7,0,0.8H806.8z M806.8,299h8c0-2.5-1.1-5-3.9-5
			C808.4,294,807,295.9,806.8,299z"/>
		<path class="st5" d="M826.5,299.9c0-4.4,2.4-7.8,6.8-7.8c4.4,0,6.8,3.4,6.8,7.8c0,4.4-2.4,7.9-6.8,7.9
			C828.8,307.7,826.5,304.2,826.5,299.9z M837.5,299.9c0-3.3-1.5-5.8-4.2-5.8c-2.8,0-4.2,2.5-4.2,5.8s1.4,5.9,4.2,5.9
			C836.1,305.8,837.5,303.2,837.5,299.9z"/>
		<path class="st5" d="M844.1,294.2h-2.5v-1.7h2.4c-0.3-1.1-0.6-2.3-0.6-3.3c0-1.9,0.8-3.6,3.7-3.6c1.1,0,1.9,0.1,2.7,0.4l-0.4,1.9
			c-0.4-0.2-1.2-0.4-1.7-0.4c-1.1,0-1.7,0.7-1.7,2c0,1,0.3,2.3,0.6,3h2.8v1.7h-2.8v13h-2.5V294.2z"/>
		<path class="st5" d="M868.6,304.4c-0.8,2-2.4,3.2-4.7,3.2c-3.7,0-5.9-3.1-5.9-7.8c0-4.8,2.4-7.7,5.9-7.7c2.4,0,3.9,1.3,4.6,2.9
			v-8.9h2.5v21.2h-2.4V304.4z M868.4,299.8c0-1.2-0.1-1.9-0.1-2.3c-0.4-1.8-1.6-3.3-3.8-3.3c-2.7,0-4,2.5-4,5.7c0,3.4,1.5,5.8,4,5.8
			c2,0,3.3-1.6,3.7-3.4c0.1-0.6,0.2-1.4,0.2-2.2V299.8z"/>
		<path class="st5" d="M876.7,300.5c0.2,3.4,1.8,5.3,4.5,5.3c1.8,0,3-0.8,3.9-2.5l1.9,1c-1.1,1.9-3,3.3-5.9,3.3c-4.6,0-7-3.5-7-7.7
			c0-4.3,2.3-7.9,6.7-7.9c4.3,0,6.4,3.5,6.4,7.6c0,0.4,0,0.7,0,0.8H876.7z M876.7,299h8c0-2.5-1.1-5-3.9-5
			C878.3,294,876.9,295.9,876.7,299z"/>
		<path class="st5" d="M902.6,304c-1.2,2.4-3.2,3.7-6.1,3.7c-4.7,0-6.9-3.5-6.9-7.8c0-4.4,2.3-7.8,6.9-7.8c2.9,0,4.8,1.4,6,3.7
			l-2.1,1c-0.8-1.8-2-2.8-3.8-2.8c-3,0-4.4,2.5-4.4,5.7c0,3,1.2,6,4.5,6c2.1,0,3.3-1.2,4-2.8L902.6,304z"/>
		<path class="st5" d="M904.5,299.9c0-4.4,2.4-7.8,6.8-7.8c4.4,0,6.8,3.4,6.8,7.8c0,4.4-2.4,7.9-6.8,7.9
			C906.7,307.7,904.5,304.2,904.5,299.9z M915.4,299.9c0-3.3-1.5-5.8-4.2-5.8c-2.8,0-4.2,2.5-4.2,5.8s1.4,5.9,4.2,5.9
			C914,305.8,915.4,303.2,915.4,299.9z"/>
		<path class="st5" d="M931.2,304.4c-0.8,2-2.4,3.2-4.7,3.2c-3.7,0-5.9-3.1-5.9-7.8c0-4.8,2.4-7.7,5.9-7.7c2.4,0,3.9,1.3,4.6,2.9
			v-8.9h2.5v21.2h-2.4V304.4z M931,299.8c0-1.2-0.1-1.9-0.1-2.3c-0.4-1.8-1.6-3.3-3.8-3.3c-2.7,0-4,2.5-4,5.7c0,3.4,1.5,5.8,4,5.8
			c2,0,3.3-1.6,3.7-3.4c0.1-0.6,0.2-1.4,0.2-2.2V299.8z"/>
		<path class="st5" d="M937.4,286.8h2.5v2.5h-2.5V286.8z M937.4,292.5h2.5v14.8h-2.5V292.5z"/>
		<path class="st5" d="M943.7,292.5h2.2l0.3,2.9c0.8-1.8,2.5-3.4,4.9-3.4c3.1,0,4.5,2.1,4.5,5.6v9.6H953v-9.1c0-2.7-1.2-3.9-3-3.9
			c-2.2,0-3.8,1.9-3.8,5.2v7.8h-2.5V292.5z"/>
		<path class="st5" d="M960.5,309c1.1,1.1,2.8,1.8,4.7,1.8c3,0,3.7-2,3.7-4.3v-2.7c-0.7,1.8-2.3,3-4.6,3c-3.5,0-5.7-2.7-5.7-7.2
			c0-4.4,2.3-7.5,5.9-7.5c2.3,0,4,1.3,4.6,3.1l0.4-2.8h1.9v14c0,3.3-1.4,6.3-6.2,6.3c-2.6,0-4.7-0.8-6.1-2L960.5,309z M968.9,299.6
			c0-0.7,0-1.3-0.1-1.7c-0.3-2-1.4-3.8-3.8-3.8c-2.6,0-3.8,2.4-3.8,5.4c0,2.7,1,5.4,3.8,5.4c1.9,0,3.1-1.3,3.6-2.9
			c0.2-0.6,0.3-1.5,0.3-2.2V299.6z"/>
		<path class="st5" d="M974.7,309.9c1.1-0.6,1.3-1.2,1.3-2.2v-0.4h-1.3v-2.9h2.8v3.2c0,2-0.7,2.9-2.2,3.5L974.7,309.9z"/>
		<path class="st5" d="M753.2,322.5h2.5v2.8c0.7-1.7,2.2-3.3,4.8-3.3c3.8,0,5.6,3.4,5.6,7.7c0,5.1-2.6,7.9-5.9,7.9
			c-2.2,0-3.9-1.2-4.5-2.8v7.6h-2.5V322.5z M755.7,330c0,0.8,0.1,1.6,0.1,2c0.4,2,1.7,3.6,3.8,3.6c2.7,0,3.9-2.8,3.9-5.8
			c0-2.9-1.1-5.7-3.9-5.7c-2.2,0-3.6,1.8-3.8,3.7c-0.1,0.4-0.1,1.1-0.1,2V330z"/>
		<path class="st5" d="M769.3,322.5h2.2l0.2,3.3c0.8-2.2,2.8-3.7,5.3-3.7v2.6c-0.3-0.1-0.6-0.1-0.9-0.1c-2,0-4.3,1.4-4.3,5v7.6h-2.5
			V322.5z"/>
		<path class="st5" d="M778.3,329.9c0-4.4,2.4-7.8,6.8-7.8c4.4,0,6.8,3.4,6.8,7.8c0,4.4-2.4,7.9-6.8,7.9
			C780.6,337.7,778.3,334.2,778.3,329.9z M789.3,329.9c0-3.3-1.5-5.8-4.2-5.8c-2.8,0-4.2,2.5-4.2,5.8s1.4,5.9,4.2,5.9
			C787.9,335.8,789.3,333.2,789.3,329.9z"/>
		<path class="st5" d="M807.4,334c-1.2,2.4-3.2,3.7-6.1,3.7c-4.7,0-6.9-3.5-6.9-7.8c0-4.4,2.3-7.8,6.9-7.8c2.9,0,4.8,1.4,6,3.7
			l-2.1,1c-0.8-1.8-2-2.8-3.8-2.8c-3,0-4.4,2.5-4.4,5.7c0,3,1.2,6,4.5,6c2.1,0,3.3-1.2,4-2.8L807.4,334z"/>
		<path class="st5" d="M811.8,330.5c0.2,3.4,1.8,5.3,4.5,5.3c1.8,0,3-0.8,3.9-2.5l1.9,1c-1.1,1.9-3,3.3-5.9,3.3c-4.6,0-7-3.5-7-7.7
			c0-4.3,2.3-7.9,6.7-7.9c4.3,0,6.4,3.5,6.4,7.6c0,0.4,0,0.7,0,0.8H811.8z M811.9,329h8c0-2.5-1.1-5-3.9-5
			C813.5,324,812.1,325.9,811.9,329z"/>
		<path class="st5" d="M825.4,333.6c1,1.3,2.7,2.2,4.5,2.2c1.7,0,3.1-0.8,3.1-2.4c0-3.7-8.3-1.8-8.3-7.2c0-2.9,2.6-4.2,5.3-4.2
			c2.1,0,3.8,0.6,5.2,1.8l-1.3,1.7c-0.9-0.9-2.5-1.6-4-1.6c-1.4,0-2.7,0.6-2.7,2.1c0,3.4,8.2,1.7,8.2,7.1c0,3.1-2.6,4.6-5.5,4.6
			c-2.4,0-4.4-0.8-5.9-2.4L825.4,333.6z"/>
		<path class="st5" d="M838.5,333.6c1,1.3,2.7,2.2,4.5,2.2c1.7,0,3.1-0.8,3.1-2.4c0-3.7-8.3-1.8-8.3-7.2c0-2.9,2.6-4.2,5.3-4.2
			c2.1,0,3.8,0.6,5.2,1.8l-1.3,1.7c-0.9-0.9-2.5-1.6-4-1.6c-1.4,0-2.7,0.6-2.7,2.1c0,3.4,8.2,1.7,8.2,7.1c0,3.1-2.6,4.6-5.5,4.6
			c-2.4,0-4.4-0.8-5.9-2.4L838.5,333.6z"/>
		<path class="st5" d="M851.6,316.8h2.5v2.5h-2.5V316.8z M851.6,322.5h2.5v14.8h-2.5V322.5z"/>
		<path class="st5" d="M857.9,322.5h2.2l0.3,2.9c0.8-1.8,2.5-3.4,4.9-3.4c3.1,0,4.5,2.1,4.5,5.6v9.6h-2.5v-9.1c0-2.7-1.2-3.9-3-3.9
			c-2.2,0-3.8,1.9-3.8,5.2v7.8h-2.5V322.5z"/>
		<path class="st5" d="M874.7,339c1.1,1.1,2.8,1.8,4.7,1.8c3,0,3.7-2,3.7-4.3v-2.7c-0.7,1.8-2.3,3-4.6,3c-3.5,0-5.7-2.7-5.7-7.2
			c0-4.4,2.3-7.5,5.9-7.5c2.3,0,4,1.3,4.6,3.1l0.4-2.8h1.9v14c0,3.3-1.4,6.3-6.2,6.3c-2.6,0-4.7-0.8-6.1-2L874.7,339z M883.1,329.6
			c0-0.7,0-1.3-0.1-1.7c-0.3-2-1.4-3.8-3.8-3.8c-2.6,0-3.8,2.4-3.8,5.4c0,2.7,1,5.4,3.8,5.4c1.9,0,3.1-1.3,3.6-2.9
			c0.2-0.6,0.3-1.5,0.3-2.2V329.6z"/>
		<path class="st5" d="M905.5,337.3c-0.2-0.8-0.4-1.6-0.4-2.6c-0.8,1.8-2.5,3-4.8,3c-2.9,0-4.7-1.8-4.7-4.5c0-3.1,2.4-4.1,5.6-4.6
			l3.8-0.6v-0.9c0-2.6-1.4-3.1-3-3.1c-2.3,0-3.7,0.9-4.7,2.2l-1.3-1.6c1.2-1.4,3.2-2.5,6.2-2.5c3.7,0,5.2,1.6,5.2,5.2v6
			c0,1.9,0.1,2.8,0.4,4H905.5z M905,329.7l-3.5,0.6c-2.4,0.4-3.4,1.3-3.4,2.8c0,1.6,1,2.8,2.8,2.8c2.2,0,4.1-1.8,4.1-4.5V329.7z"/>
		<path class="st5" d="M911.5,322.5h2.2l0.3,2.9c0.8-1.8,2.5-3.4,4.9-3.4c3.1,0,4.5,2.1,4.5,5.6v9.6h-2.5v-9.1c0-2.7-1.2-3.9-3-3.9
			c-2.2,0-3.8,1.9-3.8,5.2v7.8h-2.5V322.5z"/>
		<path class="st5" d="M937,334.4c-0.8,2-2.4,3.2-4.7,3.2c-3.7,0-5.9-3.1-5.9-7.8c0-4.8,2.4-7.7,5.9-7.7c2.4,0,3.9,1.3,4.6,2.9v-8.9
			h2.5v21.2H937V334.4z M936.9,329.8c0-1.2-0.1-1.9-0.1-2.3c-0.4-1.8-1.6-3.3-3.8-3.3c-2.7,0-4,2.5-4,5.7c0,3.4,1.5,5.8,4,5.8
			c2,0,3.3-1.6,3.7-3.4c0.1-0.6,0.2-1.4,0.2-2.2V329.8z"/>
		<path class="st5" d="M732.2,354.2h-2.5v-1.7h2.4c-0.3-1.1-0.6-2.3-0.6-3.3c0-1.9,0.8-3.6,3.7-3.6c1.1,0,1.9,0.1,2.7,0.4l-0.4,1.9
			c-0.4-0.2-1.2-0.4-1.7-0.4c-1.1,0-1.7,0.7-1.7,2c0,1,0.3,2.3,0.6,3h2.8v1.7h-2.8v13h-2.5V354.2z"/>
		<path class="st5" d="M738.9,359.9c0-4.4,2.4-7.8,6.8-7.8c4.4,0,6.8,3.4,6.8,7.8c0,4.4-2.4,7.9-6.8,7.9
			C741.2,367.7,738.9,364.2,738.9,359.9z M749.9,359.9c0-3.3-1.5-5.8-4.2-5.8c-2.8,0-4.2,2.5-4.2,5.8s1.4,5.9,4.2,5.9
			C748.5,365.8,749.9,363.2,749.9,359.9z"/>
		<path class="st5" d="M755.7,352.5h2.2l0.2,3.3c0.8-2.2,2.8-3.7,5.3-3.7v2.6c-0.3-0.1-0.6-0.1-0.9-0.1c-2,0-4.3,1.4-4.3,5v7.6h-2.5
			V352.5z"/>
		<path class="st5" d="M765.1,352.5h2.7l3,12.4l3-12.4h2.8l2.9,12.4l3-12.4h2.7l-4.3,14.8H778l-2.9-11.4l-2.9,11.4h-2.8L765.1,352.5
			z"/>
		<path class="st5" d="M796.7,367.3c-0.2-0.8-0.4-1.6-0.4-2.6c-0.8,1.8-2.5,3-4.8,3c-2.9,0-4.7-1.8-4.7-4.5c0-3.1,2.4-4.1,5.6-4.6
			l3.8-0.6v-0.9c0-2.6-1.4-3.1-3-3.1c-2.3,0-3.7,0.9-4.7,2.2l-1.3-1.6c1.2-1.4,3.2-2.5,6.2-2.5c3.7,0,5.2,1.6,5.2,5.2v6
			c0,1.9,0.1,2.8,0.5,4H796.7z M796.2,359.7l-3.5,0.6c-2.4,0.4-3.4,1.3-3.4,2.8c0,1.6,1,2.8,2.8,2.8c2.2,0,4.1-1.8,4.1-4.5V359.7z"
			/>
		<path class="st5" d="M802.7,352.5h2.2l0.2,3.3c0.8-2.2,2.8-3.7,5.3-3.7v2.6c-0.3-0.1-0.6-0.1-0.9-0.1c-2,0-4.3,1.4-4.3,5v7.6h-2.5
			V352.5z"/>
		<path class="st5" d="M822.3,364.4c-0.8,2-2.4,3.2-4.7,3.2c-3.7,0-5.9-3.1-5.9-7.8c0-4.8,2.4-7.7,5.9-7.7c2.4,0,3.9,1.3,4.6,2.9
			v-8.9h2.5v21.2h-2.4V364.4z M822.2,359.8c0-1.2-0.1-1.9-0.1-2.3c-0.4-1.8-1.6-3.3-3.8-3.3c-2.7,0-4,2.5-4,5.7c0,3.4,1.5,5.8,4,5.8
			c2,0,3.3-1.6,3.7-3.4c0.1-0.6,0.2-1.4,0.2-2.2V359.8z"/>
		<path class="st5" d="M828.5,346.8h2.5v2.5h-2.5V346.8z M828.5,352.5h2.5v14.8h-2.5V352.5z"/>
		<path class="st5" d="M834.8,352.5h2.2l0.3,2.9c0.8-1.8,2.5-3.4,4.9-3.4c3.1,0,4.5,2.1,4.5,5.6v9.6h-2.5v-9.1c0-2.7-1.2-3.9-3-3.9
			c-2.2,0-3.8,1.9-3.8,5.2v7.8h-2.5V352.5z"/>
		<path class="st5" d="M851.6,369c1.1,1.1,2.9,1.8,4.7,1.8c3,0,3.7-2,3.7-4.3v-2.7c-0.8,1.8-2.3,3-4.6,3c-3.5,0-5.7-2.7-5.7-7.2
			c0-4.4,2.3-7.5,5.9-7.5c2.3,0,4,1.3,4.6,3.1l0.4-2.8h1.9v14c0,3.3-1.4,6.3-6.2,6.3c-2.6,0-4.7-0.8-6.1-2L851.6,369z M860.1,359.6
			c0-0.7,0-1.3-0.1-1.7c-0.3-2-1.4-3.8-3.8-3.8c-2.6,0-3.8,2.4-3.8,5.4c0,2.7,1,5.4,3.8,5.4c1.9,0,3.1-1.3,3.6-2.9
			c0.2-0.6,0.3-1.5,0.3-2.2V359.6z"/>
		<path class="st5" d="M873.1,352.5h2.5v2.8c0.7-1.7,2.2-3.3,4.8-3.3c3.8,0,5.6,3.4,5.6,7.7c0,5.1-2.6,7.9-5.9,7.9
			c-2.2,0-3.9-1.2-4.5-2.8v7.6h-2.5V352.5z M875.6,360c0,0.8,0.1,1.6,0.1,2c0.4,2,1.7,3.6,3.8,3.6c2.7,0,3.9-2.8,3.9-5.8
			c0-2.9-1.1-5.7-3.9-5.7c-2.2,0-3.6,1.8-3.8,3.7c-0.1,0.4-0.1,1.1-0.1,2V360z"/>
		<path class="st5" d="M898.4,367.3c-0.2-0.8-0.4-1.6-0.4-2.6c-0.8,1.8-2.5,3-4.8,3c-2.9,0-4.7-1.8-4.7-4.5c0-3.1,2.4-4.1,5.6-4.6
			l3.8-0.6v-0.9c0-2.6-1.4-3.1-3-3.1c-2.3,0-3.7,0.9-4.7,2.2l-1.3-1.6c1.2-1.4,3.2-2.5,6.2-2.5c3.7,0,5.2,1.6,5.2,5.2v6
			c0,1.9,0.1,2.8,0.4,4H898.4z M897.9,359.7l-3.5,0.6c-2.4,0.4-3.4,1.3-3.4,2.8c0,1.6,1,2.8,2.8,2.8c2.2,0,4.1-1.8,4.1-4.5V359.7z"
			/>
		<path class="st5" d="M916.5,364c-1.2,2.4-3.2,3.7-6.1,3.7c-4.7,0-6.9-3.5-6.9-7.8c0-4.4,2.3-7.8,6.9-7.8c2.9,0,4.8,1.4,6,3.7
			l-2.1,1c-0.8-1.8-2-2.8-3.8-2.8c-3,0-4.4,2.5-4.4,5.7c0,3,1.2,6,4.5,6c2.1,0,3.3-1.2,4-2.8L916.5,364z"/>
		<path class="st5" d="M919.2,346.1h2.5v13.3l6.7-6.9h3.1l-5.8,5.6l6.5,9.1h-2.9l-5.2-7.6l-2.4,2.3v5.2h-2.5V346.1z"/>
		<path class="st5" d="M935.6,360.5c0.2,3.4,1.8,5.3,4.5,5.3c1.8,0,3-0.8,3.9-2.5l1.9,1c-1.1,1.9-3,3.3-5.9,3.3c-4.6,0-7-3.5-7-7.7
			c0-4.3,2.3-7.9,6.7-7.9c4.3,0,6.4,3.5,6.4,7.6c0,0.4,0,0.7,0,0.8H935.6z M935.6,359h8c0-2.5-1.1-5-3.9-5
			C937.2,354,935.8,355.9,935.6,359z"/>
		<path class="st5" d="M950.2,354.2h-2.5v-1.7h0.5c2.5,0,2.6-1,2.8-3.5l0.1-0.5h1.6v4h3.2v1.7h-3.2v9.2c0,1.7,0.4,2.4,1.8,2.4
			c0.6,0,1-0.1,1.5-0.4l0.3,1.8c-0.8,0.4-1.6,0.5-2.5,0.5c-2.9,0-3.5-1.6-3.5-3.9V354.2z"/>
		<path class="st5" d="M959.2,363.6c1,1.3,2.7,2.2,4.5,2.2c1.7,0,3.1-0.8,3.1-2.4c0-3.7-8.3-1.8-8.3-7.2c0-2.9,2.6-4.2,5.3-4.2
			c2.1,0,3.8,0.6,5.2,1.8l-1.3,1.7c-0.9-0.9-2.5-1.6-4-1.6c-1.4,0-2.7,0.6-2.7,2.1c0,3.4,8.2,1.7,8.2,7.1c0,3.1-2.6,4.6-5.5,4.6
			c-2.4,0-4.4-0.8-5.9-2.4L959.2,363.6z"/>
	</g>
	<path class="st2" d="M1117.5,505.1l-5.1,5.1l-3.4-3.4l20.3-20.3l-10.2-10.2l-20.3,20.3l-3.4-3.4l5.1-5.1l-23.8-23.7l-13.6,13.6
		l23.7,23.7l5.1-5.1l3.4,3.4l-13.7,13.7l3.4,3.4l-3.5,3.5c-2.5-1.8-5.4-2.7-8.3-2.7c-3.7,0-7.4,1.4-10.2,4.2l0,0l8.5,8.5l-6.8,6.8
		l3.4,3.4l6.8-6.8l8.5,8.5l0,0c5-5,5.5-12.8,1.5-18.4l3.5-3.5l3.4,3.4l13.7-13.7l3.4,3.4l-5.1,5.1l23.7,23.7l13.6-13.6L1117.5,505.1
		z M1076.8,471.2l6.8,6.8l-6.8,6.8l-6.8-6.8L1076.8,471.2z M1080.2,488.2l6.8-6.8l6.8,6.8l-6.8,6.8L1080.2,488.2z M1082.6,534.8
		l-11.7-11.7c0.8-0.2,1.6-0.3,2.5-0.3c2.5,0,5,1,6.8,2.8c1.8,1.8,2.8,4.2,2.8,6.8C1082.9,533.2,1082.8,534,1082.6,534.8z
		 M1088.6,513.7l30.6-30.6l3.4,3.4l-30.6,30.6L1088.6,513.7z M1117.5,511.9l6.8,6.8l-6.8,6.8l-6.8-6.8L1117.5,511.9z M1120.9,528.9
		l6.8-6.8l6.8,6.8l-6.8,6.8L1120.9,528.9z"/>
	<g>
		<path class="st2" d="M1191.3,614.1h-33.5c-4,0-7.2,3.2-7.2,7.2v62.3c0,4,3.2,7.2,7.2,7.2h33.5c4,0,7.2-3.2,7.2-7.2v-62.3
			C1198.4,617.3,1195.2,614.1,1191.3,614.1z M1193.7,683.6c0,1.3-1.1,2.4-2.4,2.4h-33.5c-1.3,0-2.4-1.1-2.4-2.4v-62.3
			c0-1.3,1.1-2.4,2.4-2.4h33.5c1.3,0,2.4,1.1,2.4,2.4V683.6z"/>
		<circle class="st2" cx="1174.5" cy="676.4" r="3.6"/>
	</g>
	<g>
		<path class="st2" d="M988.8,657.7c1.9-1.2,3.3-2.4,4.9-3.9c0,0-3.3-0.5-5.6-1.4c-5.5-2-13-6.6-20.8-13.9
			c-8.1-7.7-12.8-14.9-15-19.9c-1.1-2.5-1.9-4.5-1.9-4.5c-1.2,0.7-2.5,2.3-3.3,4c-1.9,4.3-3.6,9-3.6,14.1c0,8.3,3.4,15.8,8.9,21.3
			l-16.5,37.4h48.4l-13.3-28.8c0.8,0,1.6,0.1,2.5,0.1C979,662,984.3,660.4,988.8,657.7z M948.1,632.1c0-2.9,0.5-5.7,1.4-8.2
			c3.1,5.7,8.1,12.1,14.4,18.1c6.3,6,12.9,10.6,18.8,13.4c-2.9,1.2-6.1,1.9-9.4,1.9C959.4,657.2,948.1,645.9,948.1,632.1z
			 M952,666.8l14.9,6.2l-21.6,9.1L952,666.8z M976.4,686h-28.3l23.5-10.1L976.4,686z M968.3,668.2l-14.4-5.8l2.6-5.6
			c2.6,1.8,5.5,3.1,8.6,4L968.3,668.2z"/>
		
			<rect x="972.1" y="626.1" transform="matrix(0.7071 -0.7071 0.7071 0.7071 -158.2764 874.8417)" class="st2" width="9.6" height="4.8"/>
	</g>
	<g>
		<path class="st4" d="M1040.2,494.1v25.6h19.2v-25.6H1040.2z M1041.8,503.7h16v6.4h-16V503.7z M1057.8,495.7v6.4h-16v-6.4H1057.8z
			 M1041.8,518.1v-6.4h16v6.4H1041.8z"/>
		<rect x="1053" y="497.3" class="st4" width="3.2" height="1.6"/>
		<rect x="1053" y="505.3" class="st4" width="3.2" height="1.6"/>
		<rect x="1053" y="513.3" class="st4" width="3.2" height="1.6"/>
	</g>
	<g>
		<path class="st4" d="M1365.3,494.1v25.6h19.2v-25.6H1365.3z M1366.9,503.7h16v6.4h-16V503.7z M1382.9,495.7v6.4h-16v-6.4H1382.9z
			 M1366.9,518.1v-6.4h16v6.4H1366.9z"/>
		<rect x="1378.1" y="497.3" class="st4" width="3.2" height="1.6"/>
		<rect x="1378.1" y="505.3" class="st4" width="3.2" height="1.6"/>
		<rect x="1378.1" y="513.3" class="st4" width="3.2" height="1.6"/>
	</g>
	<g>
		<path class="st2" d="M848.8,567.3v28.8h57.5v-28.8H848.8z M901.5,591.3h-48v-19.2h47.9v19.2H901.5z"/>
	</g>
	<g>
		<path class="st2" d="M730.5,623.1c-15.9,0-28.8,4.3-28.8,9.6v48.5c0,5.3,12.8,9.6,28.8,9.6c15.9,0,28.8-4.3,28.8-9.6v-48.5
			C759.2,627.4,746.3,623.1,730.5,623.1z M754.4,667.3v8.6v5.3c-2.3,1.8-10.7,4.8-24,4.8c-13.3,0-21.7-3-24-4.8v-5.3v-8.5v-20.8V638
			c5.2,2.5,13.9,4.3,24,4.3c10,0,18.8-1.7,24-4.3v8.6V667.3z M730.5,637.5c-13.3,0-21.7-3-24-4.8c2.3-1.8,10.7-4.8,24-4.8
			c13.2,0,21.7,3,24,4.8C752.2,634.5,743.7,637.5,730.5,637.5z"/>
	</g>
	<g>
		<path class="st2" d="M713.5,712.8c0.5,1.4,1.5,2.1,2.9,2.1c1.9,0,2.9-1.5,2.9-3.4c0-1.8-1-3.3-2.8-3.3c-1.3,0-2.1,0.8-2.6,1.6
			l-1.4-0.2l0.8-7.2h7.2v1.4h-6.1l-0.5,4.5c0.7-0.9,1.7-1.5,3.1-1.5c2.6,0,4.1,2,4.1,4.4c0,2.9-1.9,4.8-4.6,4.8
			c-2,0-3.7-0.8-4.6-2.8L713.5,712.8z"/>
		<path class="st2" d="M733.6,713.4c-0.8,1.7-2.3,2.8-4.4,2.8c-4.2,0-6.4-3.1-6.4-7.4c0-4.2,2.3-7.3,6.4-7.3c2.5,0,4.4,1,5.6,3
			l-1.7,0.8c-0.6-1.4-2.1-2.2-3.8-2.2c-3,0-4.5,2.5-4.5,5.7c0,3.2,1.6,5.9,4.6,5.9c2.6,0,4-2.1,4-3.9v-0.8h-3.5v-1.4h5.2v7.3h-1.1
			L733.6,713.4z"/>
		<path class="st2" d="M749,712.9c-1.2,2.2-3,3.3-5.6,3.3c-4.2,0-6.4-3.2-6.4-7.4c0-4.2,2.3-7.3,6.4-7.3c2.4,0,4.3,0.9,5.5,2.9
			l-1.7,0.9c-0.8-1.4-2.1-2.2-3.8-2.2c-3,0-4.5,2.5-4.5,5.7c0,3.2,1.6,5.9,4.5,5.9c1.9,0,3.1-0.8,3.9-2.6L749,712.9z"/>
	</g>
	<g>
		<path class="st2" d="M791.9,663.5h2.1c2.5,4.3,4.7,8.1,6.7,11.7c-0.1-4-0.1-7.8-0.1-11.7h1.7v14.1h-2.1c-2.3-3.9-4.9-8.3-6.7-11.7
			c0.1,4,0.1,7.8,0.1,11.7h-1.7V663.5z"/>
		<path class="st2" d="M815.4,675.1c-0.8,1.7-2.3,2.8-4.4,2.8c-4.2,0-6.4-3.1-6.4-7.4c0-4.2,2.3-7.3,6.4-7.3c2.5,0,4.4,1,5.6,3
			l-1.7,0.8c-0.6-1.4-2.1-2.2-3.8-2.2c-3,0-4.5,2.5-4.5,5.7c0,3.2,1.6,5.9,4.6,5.9c2.6,0,4-2.1,4-3.9v-0.8h-3.5v-1.4h5.2v7.3h-1.1
			L815.4,675.1z"/>
	</g>
	<g>
		<path class="st2" d="M859.5,533.9c0.8,1.2,2.3,2.1,4.2,2.1c1.8,0,3.2-1,3.2-2.6c0-1.7-1.6-2.1-3.8-2.7c-2.4-0.7-4.2-1.7-4.2-4
			c0-2.4,2-3.9,4.8-3.9c1.9,0,3.7,0.7,4.8,1.9l-1.2,1.1c-0.8-0.9-2.1-1.6-3.6-1.6c-1.7,0-2.9,0.7-2.9,2.2c0,1.5,1.4,2.1,3.4,2.6
			c3,0.8,4.6,1.8,4.6,4.1c0,2.7-2.3,4.3-5.1,4.3c-2.5,0-4.3-0.9-5.4-2.4L859.5,533.9z"/>
		<path class="st2" d="M870.9,523.1h2.1c2.5,4.3,4.7,8.1,6.7,11.7c-0.1-4-0.1-7.8-0.1-11.7h1.7v14.1h-2.1c-2.3-3.9-4.9-8.3-6.7-11.7
			c0.1,4,0.1,7.8,0.1,11.7h-1.7V523.1z"/>
		<path class="st2" d="M883.6,530.1c0-4.5,2.6-7.3,6.4-7.3s6.5,2.8,6.5,7.3c0,4.5-2.7,7.4-6.5,7.4
			C886.3,537.5,883.6,534.6,883.6,530.1z M894.6,530.1c0-3.4-1.7-5.8-4.6-5.8c-2.9,0-4.5,2.4-4.5,5.8c0,3.5,1.8,5.8,4.5,5.8
			C892.9,535.9,894.6,533.6,894.6,530.1z"/>
		<path class="st2" d="M858.5,543.1h2.1c2.5,4.3,4.7,8.1,6.7,11.7c-0.1-4-0.1-7.8-0.1-11.7h1.7v14.1h-2.1c-2.3-3.9-4.9-8.3-6.7-11.7
			c0.1,4,0.1,7.8,0.1,11.7h-1.7V543.1z"/>
		<path class="st2" d="M871.8,543.1h2.2c1.4,3.6,3.1,7.9,4.2,10.8c1.1-2.9,2.8-7.2,4.2-10.8h2.1v14.1h-1.7c0-3.9,0-8.5,0.1-11.7
			c-1.2,3.3-3.1,7.8-4.7,11.8h-0.2c-1.5-3.6-3.7-9-4.7-11.8c0.1,3.2,0.1,7.8,0.1,11.7h-1.7V543.1z"/>
		<path class="st2" d="M887.9,553.9c0.8,1.2,2.3,2.1,4.2,2.1c1.8,0,3.2-1,3.2-2.6c0-1.7-1.6-2.1-3.8-2.7c-2.4-0.7-4.2-1.7-4.2-4
			c0-2.4,2-3.9,4.8-3.9c1.9,0,3.7,0.7,4.8,1.9l-1.2,1.1c-0.8-0.9-2.1-1.6-3.6-1.6c-1.7,0-2.9,0.7-2.9,2.2c0,1.5,1.4,2.1,3.4,2.6
			c3,0.8,4.6,1.8,4.6,4.1c0,2.7-2.3,4.3-5.1,4.3c-2.5,0-4.3-0.9-5.4-2.4L887.9,553.9z"/>
	</g>
	<g>
		<path class="st2" d="M935.5,713.4c-0.8,1.7-2.3,2.8-4.4,2.8c-4.2,0-6.4-3.1-6.4-7.4c0-4.2,2.3-7.3,6.4-7.3c2.5,0,4.4,1,5.6,3
			l-1.7,0.8c-0.6-1.4-2.1-2.2-3.8-2.2c-3,0-4.5,2.5-4.5,5.7c0,3.2,1.6,5.9,4.6,5.9c2.6,0,4-2.1,4-3.9v-0.8h-3.5v-1.4h5.2v7.3h-1.1
			L935.5,713.4z"/>
		<path class="st2" d="M945.6,715.9c-0.2-0.5-0.2-1.1-0.3-1.7c-0.5,1.2-1.7,2-3.2,2c-1.9,0-3.1-1.2-3.1-3c0-2.1,1.6-2.7,3.7-3.1
			l2.5-0.4v-0.6c0-1.7-0.9-2-2-2c-1.5,0-2.5,0.6-3.1,1.5l-0.9-1.1c0.8-0.9,2.1-1.7,4.2-1.7c2.4,0,3.5,1.1,3.5,3.5v4
			c0,1.3,0,1.9,0.3,2.7H945.6z M945.3,710.8l-2.4,0.4c-1.6,0.3-2.2,0.8-2.2,1.9c0,1.1,0.6,1.9,1.9,1.9c1.5,0,2.7-1.2,2.7-3V710.8z"
			/>
		<path class="st2" d="M950.3,707.2h-1.7V706h0.4c1.6,0,1.7-0.6,1.9-2.3l0-0.4h1v2.7h2.1v1.1h-2.1v6.1c0,1.1,0.3,1.6,1.2,1.6
			c0.4,0,0.7-0.1,1-0.2l0.2,1.2c-0.5,0.2-1.1,0.3-1.7,0.3c-1.9,0-2.3-1.1-2.3-2.6V707.2z"/>
		<path class="st2" d="M957.1,711.3c0.1,2.2,1.2,3.6,3,3.6c1.2,0,2-0.5,2.6-1.6l1.3,0.7c-0.8,1.3-2,2.2-4,2.2
			c-3.1,0-4.6-2.3-4.6-5.2c0-2.8,1.5-5.3,4.5-5.3c2.9,0,4.3,2.3,4.3,5c0,0.3,0,0.4,0,0.5H957.1z M957.1,710.3h5.3
			c0-1.6-0.7-3.3-2.6-3.3C958.2,707,957.3,708.3,957.1,710.3z"/>
		<path class="st2" d="M965.2,706h1.8l2,8.2l2-8.2h1.8l1.9,8.2l2-8.2h1.8l-2.9,9.8h-1.8l-2-7.6l-2,7.6h-1.8L965.2,706z"/>
		<path class="st2" d="M986.3,715.9c-0.2-0.5-0.2-1.1-0.3-1.7c-0.5,1.2-1.7,2-3.2,2c-1.9,0-3.1-1.2-3.1-3c0-2.1,1.6-2.7,3.7-3.1
			l2.5-0.4v-0.6c0-1.7-0.9-2-2-2c-1.5,0-2.5,0.6-3.1,1.5l-0.9-1.1c0.8-0.9,2.1-1.7,4.2-1.7c2.4,0,3.5,1.1,3.5,3.5v4
			c0,1.3,0,1.9,0.3,2.7H986.3z M986,710.8l-2.4,0.4c-1.6,0.3-2.2,0.8-2.2,1.9c0,1.1,0.6,1.9,1.9,1.9c1.5,0,2.7-1.2,2.7-3V710.8z"/>
		<path class="st2" d="M990,718c0.3,0.1,0.7,0.2,1.1,0.2c0.9,0,1.2-0.4,1.7-2.1l-3.3-10h1.8l2.4,8.1l2.4-8.1h1.8l-3,9.1
			c-1,3.1-1.4,4.4-3.7,4.4c-0.4,0-1,0-1.3-0.1L990,718z"/>
	</g>
	<g>
		<path class="st2" d="M958.1,560.3h8.5v1.4h-6.7v4.9h5.1v1.4h-5.1v6.4h-1.8V560.3z"/>
		<path class="st2" d="M968.6,569.9c0.1,2.2,1.2,3.6,3,3.6c1.2,0,2-0.5,2.6-1.6l1.3,0.7c-0.8,1.3-2,2.2-4,2.2
			c-3.1,0-4.6-2.3-4.6-5.2c0-2.8,1.5-5.3,4.5-5.3c2.9,0,4.3,2.3,4.3,5c0,0.3,0,0.4,0,0.5H968.6z M968.7,568.9h5.3
			c0-1.6-0.7-3.3-2.6-3.3C969.7,565.5,968.8,566.8,968.7,568.9z"/>
		<path class="st2" d="M979,569.9c0.1,2.2,1.2,3.6,3,3.6c1.2,0,2-0.5,2.6-1.6l1.3,0.7c-0.8,1.3-2,2.2-4,2.2c-3.1,0-4.6-2.3-4.6-5.2
			c0-2.8,1.5-5.3,4.5-5.3c2.9,0,4.3,2.3,4.3,5c0,0.3,0,0.4,0,0.5H979z M979,568.9h5.3c0-1.6-0.7-3.3-2.6-3.3
			C980.1,565.5,979.1,566.8,979,568.9z"/>
		<path class="st2" d="M994.7,572.5c-0.5,1.3-1.6,2.2-3.1,2.2c-2.5,0-3.9-2.1-3.9-5.2c0-3.2,1.6-5.1,3.9-5.1c1.6,0,2.6,0.9,3,1.9v-6
			h1.7v14.1h-1.6V572.5z M994.6,569.4c0-0.8,0-1.2-0.1-1.5c-0.2-1.2-1.1-2.2-2.5-2.2c-1.8,0-2.6,1.7-2.6,3.8c0,2.2,1,3.9,2.7,3.9
			c1.3,0,2.2-1.1,2.4-2.3c0.1-0.4,0.1-0.9,0.1-1.5V569.4z"/>
		<path class="st2" d="M1000.1,569.9c0.1,2.2,1.2,3.6,3,3.6c1.2,0,2-0.5,2.6-1.6l1.3,0.7c-0.8,1.3-2,2.2-4,2.2
			c-3.1,0-4.6-2.3-4.6-5.2c0-2.8,1.5-5.3,4.5-5.3c2.9,0,4.3,2.3,4.3,5c0,0.3,0,0.4,0,0.5H1000.1z M1000.1,568.9h5.3
			c0-1.6-0.7-3.3-2.6-3.3C1001.2,565.5,1000.2,566.8,1000.1,568.9z"/>
		<path class="st2" d="M1009.2,564.6h1.4l0.2,2.2c0.6-1.4,1.8-2.5,3.5-2.5v1.8c-0.2,0-0.4-0.1-0.6-0.1c-1.3,0-2.8,0.9-2.8,3.3v5.1
			h-1.7V564.6z"/>
		<path class="st2" d="M972.4,580.3h1.7v14.1h-1.7V580.3z"/>
		<path class="st2" d="M976.6,580.7h1.7v1.7h-1.7V580.7z M976.6,584.6h1.7v9.8h-1.7V584.6z"/>
		<path class="st2" d="M980.8,584.6h1.4l0.2,2c0.5-1.2,1.6-2.2,3.3-2.2c2,0,3,1.4,3,3.7v6.4h-1.7v-6.1c0-1.8-0.8-2.6-2-2.6
			c-1.5,0-2.6,1.3-2.6,3.4v5.2h-1.7V584.6z"/>
		<path class="st2" d="M991.2,580.3h1.7v8.9l4.5-4.6h2.1l-3.9,3.8l4.4,6.1H998l-3.5-5l-1.6,1.5v3.5h-1.7V580.3z"/>
	</g>
	<g>
		<path class="st2" d="M1084.8,408.4h2.1c2.5,4.3,4.7,8.1,6.7,11.7c-0.1-4-0.1-7.8-0.1-11.7h1.7v14.1h-2.1
			c-2.3-3.9-4.9-8.3-6.7-11.7c0.1,4,0.1,7.8,0.1,11.7h-1.7V408.4z"/>
		<path class="st2" d="M1101.3,409.8h-4.2v-1.4h10.1v1.4h-4.2v12.7h-1.8V409.8z"/>
		<path class="st2" d="M1109.1,408.4h2.1c2.5,4.3,4.7,8.1,6.7,11.7c-0.1-4-0.1-7.8-0.1-11.7h1.7v14.1h-2.1
			c-2.3-3.9-4.9-8.3-6.7-11.7c0.1,4,0.1,7.8,0.1,11.7h-1.7V408.4z"/>
		<path class="st2" d="M1058.1,436.7h1.7v1.9c0.5-1.1,1.5-2.2,3.2-2.2c2.6,0,3.8,2.3,3.8,5.1c0,3.4-1.7,5.2-4,5.2
			c-1.5,0-2.6-0.8-3-1.9v5.1h-1.7V436.7z M1059.7,441.6c0,0.6,0,1,0.1,1.4c0.2,1.3,1.2,2.4,2.5,2.4c1.8,0,2.6-1.9,2.6-3.8
			c0-2-0.7-3.8-2.6-3.8c-1.5,0-2.4,1.2-2.6,2.4C1059.8,440.5,1059.7,441,1059.7,441.6L1059.7,441.6z"/>
		<path class="st2" d="M1068.8,436.7h1.4l0.2,2.2c0.6-1.4,1.8-2.5,3.5-2.5v1.8c-0.2,0-0.4-0.1-0.6-0.1c-1.3,0-2.8,0.9-2.8,3.3v5.1
			h-1.7V436.7z"/>
		<path class="st2" d="M1074.8,441.6c0-2.9,1.6-5.2,4.5-5.2c3,0,4.5,2.2,4.5,5.2c0,2.9-1.6,5.2-4.5,5.2
			C1076.3,446.8,1074.8,444.5,1074.8,441.6z M1082.1,441.6c0-2.2-1-3.9-2.8-3.9c-1.8,0-2.8,1.7-2.8,3.9c0,2.2,0.9,3.9,2.8,3.9
			C1081.2,445.5,1082.1,443.8,1082.1,441.6z"/>
		<path class="st2" d="M1094.2,444.3c-0.8,1.6-2.2,2.5-4.1,2.5c-3.2,0-4.6-2.3-4.6-5.2c0-2.9,1.5-5.2,4.6-5.2c1.9,0,3.2,0.9,4,2.5
			l-1.4,0.7c-0.5-1.2-1.3-1.8-2.6-1.8c-2,0-2.9,1.7-2.9,3.8c0,2,0.8,4,3,4c1.4,0,2.2-0.8,2.7-1.9L1094.2,444.3z"/>
		<path class="st2" d="M1097.2,442c0.1,2.2,1.2,3.6,3,3.6c1.2,0,2-0.5,2.6-1.6l1.3,0.7c-0.8,1.3-2,2.2-4,2.2c-3.1,0-4.6-2.3-4.6-5.2
			c0-2.8,1.5-5.3,4.5-5.3c2.9,0,4.3,2.3,4.3,5c0,0.3,0,0.4,0,0.5H1097.2z M1097.2,441h5.3c0-1.6-0.7-3.3-2.6-3.3
			C1098.3,437.6,1097.3,438.9,1097.2,441z"/>
		<path class="st2" d="M1106.2,444.1c0.7,0.9,1.8,1.5,3,1.5c1.1,0,2.1-0.5,2.1-1.6c0-2.5-5.5-1.2-5.5-4.8c0-2,1.7-2.8,3.6-2.8
			c1.4,0,2.6,0.4,3.5,1.2l-0.8,1.1c-0.6-0.6-1.6-1.1-2.7-1.1c-0.9,0-1.8,0.4-1.8,1.4c0,2.3,5.5,1.2,5.5,4.7c0,2-1.8,3-3.7,3
			c-1.6,0-3-0.5-3.9-1.6L1106.2,444.1z"/>
		<path class="st2" d="M1114.9,444.1c0.7,0.9,1.8,1.5,3,1.5c1.1,0,2.1-0.5,2.1-1.6c0-2.5-5.5-1.2-5.5-4.8c0-2,1.7-2.8,3.6-2.8
			c1.4,0,2.6,0.4,3.5,1.2l-0.8,1.1c-0.6-0.6-1.6-1.1-2.7-1.1c-0.9,0-1.8,0.4-1.8,1.4c0,2.3,5.5,1.2,5.5,4.7c0,2-1.8,3-3.7,3
			c-1.6,0-3-0.5-3.9-1.6L1114.9,444.1z"/>
		<path class="st2" d="M1123.7,432.8h1.7v1.7h-1.7V432.8z M1123.7,436.7h1.7v9.8h-1.7V436.7z"/>
		<path class="st2" d="M1127.9,436.7h1.4l0.2,2c0.5-1.2,1.6-2.2,3.3-2.2c2,0,3,1.4,3,3.7v6.4h-1.7v-6.1c0-1.8-0.8-2.6-2-2.6
			c-1.5,0-2.6,1.3-2.6,3.4v5.2h-1.7V436.7z"/>
		<path class="st2" d="M1139.1,447.7c0.8,0.7,1.9,1.2,3.1,1.2c2,0,2.5-1.3,2.5-2.9v-1.8c-0.5,1.2-1.5,2-3.1,2
			c-2.3,0-3.8-1.8-3.8-4.8c0-3,1.5-5,3.9-5c1.6,0,2.6,0.9,3.1,2.1l0.3-1.8h1.3v9.3c0,2.2-0.9,4.2-4.2,4.2c-1.7,0-3.1-0.6-4.1-1.3
			L1139.1,447.7z M1144.7,441.4c0-0.4,0-0.9-0.1-1.1c-0.2-1.3-0.9-2.5-2.6-2.5c-1.8,0-2.5,1.6-2.5,3.6c0,1.8,0.7,3.6,2.6,3.6
			c1.3,0,2.1-0.8,2.4-1.9c0.1-0.4,0.2-1,0.2-1.5V441.4z"/>
	</g>
	<g>
		<path class="st2" d="M1144.8,571.1c0.8,1.2,2.3,2.1,4.2,2.1c1.8,0,3.2-1,3.2-2.6c0-1.7-1.6-2.1-3.8-2.7c-2.4-0.7-4.2-1.7-4.2-4
			c0-2.4,2-3.9,4.8-3.9c1.9,0,3.7,0.7,4.8,1.9l-1.2,1.1c-0.8-0.9-2.1-1.6-3.6-1.6c-1.7,0-2.9,0.7-2.9,2.2c0,1.5,1.4,2.1,3.4,2.6
			c3,0.8,4.6,1.8,4.6,4.1c0,2.7-2.3,4.3-5.1,4.3c-2.5,0-4.3-0.9-5.4-2.4L1144.8,571.1z"/>
		<path class="st2" d="M1157.3,569.9c0.1,2.2,1.2,3.6,3,3.6c1.2,0,2-0.5,2.6-1.6l1.3,0.7c-0.8,1.3-2,2.2-4,2.2
			c-3.1,0-4.6-2.3-4.6-5.2c0-2.8,1.5-5.3,4.5-5.3c2.9,0,4.3,2.3,4.3,5c0,0.3,0,0.4,0,0.5H1157.3z M1157.4,568.9h5.3
			c0-1.6-0.7-3.3-2.6-3.3C1158.4,565.5,1157.5,566.8,1157.4,568.9z"/>
		<path class="st2" d="M1166.4,564.6h1.4l0.2,2.2c0.6-1.4,1.8-2.5,3.5-2.5v1.8c-0.2,0-0.4-0.1-0.6-0.1c-1.3,0-2.8,0.9-2.8,3.3v5.1
			h-1.7V564.6z"/>
		<path class="st2" d="M1172.7,564.6h1.9l2.4,8.3l2.4-8.3h1.8l-3.2,9.8h-2L1172.7,564.6z"/>
		<path class="st2" d="M1182.9,560.7h1.7v1.7h-1.7V560.7z M1182.9,564.6h1.7v9.8h-1.7V564.6z"/>
		<path class="st2" d="M1195.4,572.2c-0.8,1.6-2.2,2.5-4.1,2.5c-3.2,0-4.6-2.3-4.6-5.2c0-2.9,1.5-5.2,4.6-5.2c1.9,0,3.2,0.9,4,2.5
			l-1.4,0.7c-0.5-1.2-1.3-1.8-2.6-1.8c-2,0-2.9,1.7-2.9,3.8c0,2,0.8,4,3,4c1.4,0,2.2-0.8,2.7-1.9L1195.4,572.2z"/>
		<path class="st2" d="M1198.3,569.9c0.1,2.2,1.2,3.6,3,3.6c1.2,0,2-0.5,2.6-1.6l1.3,0.7c-0.8,1.3-2,2.2-4,2.2
			c-3.1,0-4.6-2.3-4.6-5.2c0-2.8,1.5-5.3,4.5-5.3c2.9,0,4.3,2.3,4.3,5c0,0.3,0,0.4,0,0.5H1198.3z M1198.3,568.9h5.3
			c0-1.6-0.7-3.3-2.6-3.3C1199.4,565.5,1198.5,566.8,1198.3,568.9z"/>
		<path class="st2" d="M1161.2,580.3h1.7v14.1h-1.7V580.3z"/>
		<path class="st2" d="M1165.4,580.7h1.7v1.7h-1.7V580.7z M1165.4,584.6h1.7v9.8h-1.7V584.6z"/>
		<path class="st2" d="M1169.7,584.6h1.4l0.2,2c0.5-1.2,1.6-2.2,3.3-2.2c2,0,3,1.4,3,3.7v6.4h-1.7v-6.1c0-1.8-0.8-2.6-2-2.6
			c-1.5,0-2.6,1.3-2.6,3.4v5.2h-1.7V584.6z"/>
		<path class="st2" d="M1180.1,580.3h1.7v8.9l4.5-4.6h2.1l-3.9,3.8l4.4,6.1h-1.9l-3.5-5l-1.6,1.5v3.5h-1.7V580.3z"/>
	</g>
	<g>
		<path class="st2" d="M1097.2,611.4h1.8v9.1c0,2.6,1.3,3.8,3.4,3.8c2.2,0,3.4-1.2,3.4-3.7v-9.2h1.8v9.3c0,2.6-1.2,5.1-5.2,5.1
			c-4.1,0-5.2-2.5-5.2-5.2V611.4z"/>
		<path class="st2" d="M1110.3,615.7h1.7v6c0,1.9,0.7,2.7,2,2.7c1.6,0,2.5-1.4,2.5-3.5v-5.2h1.7v9.8h-1.6v-2
			c-0.5,1.2-1.3,2.3-3.1,2.3c-2.1,0-3.2-1.4-3.2-3.7V615.7z"/>
	</g>
	<g>
		<path class="st2" d="M1163.8,701.7h1.8v9.1c0,2.6,1.3,3.8,3.4,3.8c2.2,0,3.4-1.2,3.4-3.7v-9.2h1.8v9.3c0,2.6-1.2,5.1-5.2,5.1
			c-4.1,0-5.2-2.5-5.2-5.2V701.7z"/>
		<path class="st2" d="M1177,701.7h8.4v1.4h-6.6v4.6h5.1v1.4h-5.1v5.3h6.9v1.4h-8.7V701.7z"/>
	</g>
	<g>
		<g>
			<line class="st8" x1="1056.8" y1="549.6" x2="992.5" y2="613.9"/>
			<g>
				<polygon class="st2" points="1052.3,547.1 1061.9,544.5 1059.3,554.1 				"/>
			</g>
			<g>
				<polygon class="st2" points="990,609.4 987.4,619 997,616.4 				"/>
			</g>
		</g>
	</g>
	<g>
		<g>
			<g>
				<line class="st8" x1="1075.7" y1="549.8" x2="1140.1" y2="614.1"/>
				<g>
					<polygon class="st2" points="1073.2,554.4 1070.7,544.7 1080.3,547.3 					"/>
				</g>
				<g>
					<polygon class="st2" points="1135.5,616.6 1145.2,619.2 1142.6,609.6 					"/>
				</g>
			</g>
		</g>
		<g>
			<path class="st7" d="M1070.5,572.8c5.8-4.8,9-7.4,15-13.4c6-6,7.9-8.5,12.6-14.2"/>
			<path class="st7" d="M1089.8,600.4c5.9-4.8,12.1-10.4,18.2-16.5c6.8-6.8,12.9-13.7,18.1-20.2"/>
			<path class="st7" d="M1085,593.5c5.8-4.8,11.1-9.5,17.1-15.5c6.7-6.7,12-12.7,17.1-19.1"/>
			<path class="st7" d="M1112.5,554.1c-5.1,6.3-9.6,11.5-16.2,18.1c-5.9,5.9-10.4,9.8-16.1,14.5"/>
			<path class="st7" d="M1104.9,550c-5,6.2-8,9.8-14.4,16.3c-5.8,5.8-9.4,8.9-15,13.5"/>
		</g>
	</g>
	<path class="st2" d="M1341.9,505.1l-5.1,5.1l-3.4-3.4l20.3-20.3l-10.2-10.2l-20.3,20.3l-3.4-3.4l5.1-5.1l-23.8-23.7l-13.6,13.6
		l23.7,23.7l5.1-5.1l3.4,3.4l-13.7,13.7l3.4,3.4l-3.5,3.5c-2.5-1.8-5.4-2.7-8.3-2.7c-3.7,0-7.4,1.4-10.2,4.2l0,0l8.5,8.5l-6.8,6.8
		l3.4,3.4l6.8-6.8l8.5,8.5l0,0c5-5,5.5-12.8,1.5-18.4l3.5-3.5l3.4,3.4l13.7-13.7l3.4,3.4l-5.1,5.1l23.7,23.7l13.6-13.6L1341.9,505.1
		z M1301.1,471.2l6.8,6.8l-6.8,6.8l-6.8-6.8L1301.1,471.2z M1304.6,488.2l6.8-6.8l6.8,6.8l-6.8,6.8L1304.6,488.2z M1306.9,534.8
		l-11.7-11.7c0.8-0.2,1.6-0.3,2.5-0.3c2.5,0,5,1,6.8,2.8c1.8,1.8,2.8,4.2,2.8,6.8C1307.3,533.2,1307.1,534,1306.9,534.8z
		 M1312.9,513.7l30.6-30.6l3.4,3.4l-30.6,30.6L1312.9,513.7z M1341.9,511.9l6.8,6.8l-6.8,6.8l-6.8-6.8L1341.9,511.9z M1345.3,528.9
		l6.8-6.8l6.8,6.8l-6.8,6.8L1345.3,528.9z"/>
	<g>
		<path class="st2" d="M1415.6,614.1h-33.5c-4,0-7.2,3.2-7.2,7.2v62.3c0,4,3.2,7.2,7.2,7.2h33.5c4,0,7.2-3.2,7.2-7.2v-62.3
			C1422.8,617.3,1419.6,614.1,1415.6,614.1z M1418,683.6c0,1.3-1.1,2.4-2.4,2.4h-33.5c-1.3,0-2.4-1.1-2.4-2.4v-62.3
			c0-1.3,1.1-2.4,2.4-2.4h33.5c1.3,0,2.4,1.1,2.4,2.4V683.6z"/>
		<circle class="st2" cx="1398.9" cy="676.4" r="3.6"/>
	</g>
	<g>
		<path class="st2" d="M1309.2,408.4h2.1c2.5,4.3,4.7,8.1,6.7,11.7c-0.1-4-0.1-7.8-0.1-11.7h1.7v14.1h-2.1
			c-2.3-3.9-4.9-8.3-6.7-11.7c0.1,4,0.1,7.8,0.1,11.7h-1.7V408.4z"/>
		<path class="st2" d="M1325.7,409.8h-4.2v-1.4h10.1v1.4h-4.2v12.7h-1.8V409.8z"/>
		<path class="st2" d="M1333.5,408.4h2.1c2.5,4.3,4.7,8.1,6.7,11.7c-0.1-4-0.1-7.8-0.1-11.7h1.7v14.1h-2.1
			c-2.3-3.9-4.9-8.3-6.7-11.7c0.1,4,0.1,7.8,0.1,11.7h-1.7V408.4z"/>
		<path class="st2" d="M1282.4,436.7h1.7v1.9c0.5-1.1,1.5-2.2,3.2-2.2c2.6,0,3.8,2.3,3.8,5.1c0,3.4-1.7,5.2-4,5.2
			c-1.5,0-2.6-0.8-3-1.9v5.1h-1.7V436.7z M1284.1,441.6c0,0.6,0,1,0.1,1.4c0.2,1.3,1.2,2.4,2.5,2.4c1.8,0,2.6-1.9,2.6-3.8
			c0-2-0.7-3.8-2.6-3.8c-1.5,0-2.4,1.2-2.6,2.4C1284.1,440.5,1284.1,441,1284.1,441.6L1284.1,441.6z"/>
		<path class="st2" d="M1293.2,436.7h1.4l0.2,2.2c0.6-1.4,1.8-2.5,3.5-2.5v1.8c-0.2,0-0.4-0.1-0.6-0.1c-1.3,0-2.8,0.9-2.8,3.3v5.1
			h-1.7V436.7z"/>
		<path class="st2" d="M1299.2,441.6c0-2.9,1.6-5.2,4.5-5.2c3,0,4.5,2.2,4.5,5.2c0,2.9-1.6,5.2-4.5,5.2
			C1300.7,446.8,1299.2,444.5,1299.2,441.6z M1306.5,441.6c0-2.2-1-3.9-2.8-3.9c-1.8,0-2.8,1.7-2.8,3.9c0,2.2,0.9,3.9,2.8,3.9
			C1305.6,445.5,1306.5,443.8,1306.5,441.6z"/>
		<path class="st2" d="M1318.6,444.3c-0.8,1.6-2.2,2.5-4.1,2.5c-3.2,0-4.6-2.3-4.6-5.2c0-2.9,1.5-5.2,4.6-5.2c1.9,0,3.2,0.9,4,2.5
			l-1.4,0.7c-0.5-1.2-1.3-1.8-2.6-1.8c-2,0-2.9,1.7-2.9,3.8c0,2,0.8,4,3,4c1.4,0,2.2-0.8,2.7-1.9L1318.6,444.3z"/>
		<path class="st2" d="M1321.5,442c0.1,2.2,1.2,3.6,3,3.6c1.2,0,2-0.5,2.6-1.6l1.3,0.7c-0.8,1.3-2,2.2-4,2.2c-3.1,0-4.6-2.3-4.6-5.2
			c0-2.8,1.5-5.3,4.5-5.3c2.9,0,4.3,2.3,4.3,5c0,0.3,0,0.4,0,0.5H1321.5z M1321.6,441h5.3c0-1.6-0.7-3.3-2.6-3.3
			C1322.6,437.6,1321.7,438.9,1321.6,441z"/>
		<path class="st2" d="M1330.6,444.1c0.7,0.9,1.8,1.5,3,1.5c1.1,0,2.1-0.5,2.1-1.6c0-2.5-5.5-1.2-5.5-4.8c0-2,1.7-2.8,3.6-2.8
			c1.4,0,2.6,0.4,3.5,1.2l-0.8,1.1c-0.6-0.6-1.6-1.1-2.7-1.1c-0.9,0-1.8,0.4-1.8,1.4c0,2.3,5.5,1.2,5.5,4.7c0,2-1.8,3-3.7,3
			c-1.6,0-3-0.5-3.9-1.6L1330.6,444.1z"/>
		<path class="st2" d="M1339.3,444.1c0.7,0.9,1.8,1.5,3,1.5c1.1,0,2.1-0.5,2.1-1.6c0-2.5-5.5-1.2-5.5-4.8c0-2,1.7-2.8,3.6-2.8
			c1.4,0,2.6,0.4,3.5,1.2l-0.8,1.1c-0.6-0.6-1.6-1.1-2.7-1.1c-0.9,0-1.8,0.4-1.8,1.4c0,2.3,5.5,1.2,5.5,4.7c0,2-1.8,3-3.7,3
			c-1.6,0-3-0.5-3.9-1.6L1339.3,444.1z"/>
		<path class="st2" d="M1348,432.8h1.7v1.7h-1.7V432.8z M1348,436.7h1.7v9.8h-1.7V436.7z"/>
		<path class="st2" d="M1352.3,436.7h1.4l0.2,2c0.5-1.2,1.6-2.2,3.3-2.2c2,0,3,1.4,3,3.7v6.4h-1.7v-6.1c0-1.8-0.8-2.6-2-2.6
			c-1.5,0-2.6,1.3-2.6,3.4v5.2h-1.7V436.7z"/>
		<path class="st2" d="M1363.5,447.7c0.8,0.7,1.9,1.2,3.1,1.2c2,0,2.5-1.3,2.5-2.9v-1.8c-0.5,1.2-1.5,2-3.1,2
			c-2.3,0-3.8-1.8-3.8-4.8c0-3,1.5-5,3.9-5c1.6,0,2.6,0.9,3.1,2.1l0.3-1.8h1.3v9.3c0,2.2-0.9,4.2-4.2,4.2c-1.7,0-3.1-0.6-4.1-1.3
			L1363.5,447.7z M1369.1,441.4c0-0.4,0-0.9-0.1-1.1c-0.2-1.3-0.9-2.5-2.6-2.5c-1.8,0-2.5,1.6-2.5,3.6c0,1.8,0.7,3.6,2.6,3.6
			c1.3,0,2.1-0.8,2.4-1.9c0.1-0.4,0.2-1,0.2-1.5V441.4z"/>
	</g>
	<g>
		<path class="st2" d="M1369.1,571.1c0.8,1.2,2.3,2.1,4.2,2.1c1.8,0,3.2-1,3.2-2.6c0-1.7-1.6-2.1-3.8-2.7c-2.4-0.7-4.2-1.7-4.2-4
			c0-2.4,2-3.9,4.8-3.9c1.9,0,3.7,0.7,4.8,1.9l-1.2,1.1c-0.8-0.9-2.1-1.6-3.6-1.6c-1.7,0-2.9,0.7-2.9,2.2c0,1.5,1.4,2.1,3.4,2.6
			c3,0.8,4.6,1.8,4.6,4.1c0,2.7-2.3,4.3-5.1,4.3c-2.5,0-4.3-0.9-5.4-2.4L1369.1,571.1z"/>
		<path class="st2" d="M1381.7,569.9c0.1,2.2,1.2,3.6,3,3.6c1.2,0,2-0.5,2.6-1.6l1.3,0.7c-0.8,1.3-2,2.2-4,2.2
			c-3.1,0-4.6-2.3-4.6-5.2c0-2.8,1.5-5.3,4.5-5.3c2.9,0,4.3,2.3,4.3,5c0,0.3,0,0.4,0,0.5H1381.7z M1381.7,568.9h5.3
			c0-1.6-0.7-3.3-2.6-3.3C1382.8,565.5,1381.9,566.8,1381.7,568.9z"/>
		<path class="st2" d="M1390.8,564.6h1.4l0.2,2.2c0.6-1.4,1.8-2.5,3.5-2.5v1.8c-0.2,0-0.4-0.1-0.6-0.1c-1.3,0-2.8,0.9-2.8,3.3v5.1
			h-1.7V564.6z"/>
		<path class="st2" d="M1397.1,564.6h1.9l2.4,8.3l2.4-8.3h1.8l-3.2,9.8h-2L1397.1,564.6z"/>
		<path class="st2" d="M1407.3,560.7h1.7v1.7h-1.7V560.7z M1407.3,564.6h1.7v9.8h-1.7V564.6z"/>
		<path class="st2" d="M1419.7,572.2c-0.8,1.6-2.2,2.5-4.1,2.5c-3.2,0-4.6-2.3-4.6-5.2c0-2.9,1.5-5.2,4.6-5.2c1.9,0,3.2,0.9,4,2.5
			l-1.4,0.7c-0.5-1.2-1.3-1.8-2.6-1.8c-2,0-2.9,1.7-2.9,3.8c0,2,0.8,4,3,4c1.4,0,2.2-0.8,2.7-1.9L1419.7,572.2z"/>
		<path class="st2" d="M1422.7,569.9c0.1,2.2,1.2,3.6,3,3.6c1.2,0,2-0.5,2.6-1.6l1.3,0.7c-0.8,1.3-2,2.2-4,2.2
			c-3.1,0-4.6-2.3-4.6-5.2c0-2.8,1.5-5.3,4.5-5.3c2.9,0,4.3,2.3,4.3,5c0,0.3,0,0.4,0,0.5H1422.7z M1422.7,568.9h5.3
			c0-1.6-0.7-3.3-2.6-3.3C1423.8,565.5,1422.8,566.8,1422.7,568.9z"/>
		<path class="st2" d="M1385.6,580.3h1.7v14.1h-1.7V580.3z"/>
		<path class="st2" d="M1389.8,580.7h1.7v1.7h-1.7V580.7z M1389.8,584.6h1.7v9.8h-1.7V584.6z"/>
		<path class="st2" d="M1394,584.6h1.4l0.2,2c0.5-1.2,1.6-2.2,3.3-2.2c2,0,3,1.4,3,3.7v6.4h-1.7v-6.1c0-1.8-0.8-2.6-2-2.6
			c-1.5,0-2.6,1.3-2.6,3.4v5.2h-1.7V584.6z"/>
		<path class="st2" d="M1404.4,580.3h1.7v8.9l4.5-4.6h2.1l-3.9,3.8l4.4,6.1h-1.9l-3.5-5l-1.6,1.5v3.5h-1.7V580.3z"/>
	</g>
	<g>
		<path class="st2" d="M1321.6,611.4h1.8v9.1c0,2.6,1.3,3.8,3.4,3.8c2.2,0,3.4-1.2,3.4-3.7v-9.2h1.8v9.3c0,2.6-1.2,5.1-5.2,5.1
			c-4.1,0-5.2-2.5-5.2-5.2V611.4z"/>
		<path class="st2" d="M1334.7,615.7h1.7v6c0,1.9,0.7,2.7,2,2.7c1.6,0,2.5-1.4,2.5-3.5v-5.2h1.7v9.8h-1.6v-2
			c-0.5,1.2-1.3,2.3-3.1,2.3c-2.1,0-3.2-1.4-3.2-3.7V615.7z"/>
	</g>
	<g>
		<g>
			<g>
				<line class="st8" x1="1300.1" y1="549.8" x2="1364.5" y2="614.1"/>
				<g>
					<polygon class="st2" points="1297.6,554.4 1295,544.7 1304.7,547.3 					"/>
				</g>
				<g>
					<polygon class="st2" points="1359.9,616.6 1369.5,619.2 1366.9,609.6 					"/>
				</g>
			</g>
		</g>
		<g>
			<path class="st7" d="M1294.9,572.8c5.8-4.8,9-7.4,15-13.4c6-6,7.9-8.5,12.6-14.2"/>
			<path class="st7" d="M1314.2,600.4c5.9-4.8,12.1-10.4,18.2-16.5c6.8-6.8,12.9-13.7,18.1-20.2"/>
			<path class="st7" d="M1309.4,593.5c5.8-4.8,11.1-9.5,17.1-15.5c6.7-6.7,12-12.7,17.1-19.1"/>
			<path class="st7" d="M1336.8,554.1c-5.1,6.3-9.6,11.5-16.2,18.1c-5.9,5.9-10.4,9.8-16.1,14.5"/>
			<path class="st7" d="M1329.2,550c-5,6.2-8,9.8-14.4,16.3c-5.8,5.8-9.4,8.9-15,13.5"/>
		</g>
	</g>
	<line class="st8" x1="877.5" y1="594.4" x2="877.5" y2="640.6"/>
	<line class="st8" x1="849.1" y1="653.1" x2="759.6" y2="653.1"/>
	<g>
		<path class="st2" d="M1158.6,454.5h1.8v14.1h-1.8V454.5z"/>
		<path class="st2" d="M1163.3,458.8h1.4l0.2,2c0.5-1.2,1.6-2.2,3.3-2.2c2,0,3,1.4,3,3.7v6.4h-1.7v-6.1c0-1.8-0.8-2.6-2-2.6
			c-1.5,0-2.6,1.3-2.6,3.4v5.2h-1.7V458.8z"/>
		<path class="st2" d="M1174.5,459.9h-1.7v-1.1h0.4c1.6,0,1.7-0.6,1.9-2.3l0-0.4h1v2.7h2.1v1.1h-2.1v6.1c0,1.1,0.3,1.6,1.2,1.6
			c0.4,0,0.7-0.1,1-0.2l0.2,1.2c-0.5,0.2-1.1,0.3-1.7,0.3c-1.9,0-2.3-1.1-2.3-2.6V459.9z"/>
		<path class="st2" d="M1181.3,464.1c0.1,2.2,1.2,3.6,3,3.6c1.2,0,2-0.5,2.6-1.6l1.3,0.7c-0.8,1.3-2,2.2-4,2.2
			c-3.1,0-4.6-2.3-4.6-5.2c0-2.8,1.5-5.3,4.5-5.3c2.9,0,4.3,2.3,4.3,5c0,0.3,0,0.4,0,0.5H1181.3z M1181.4,463.1h5.3
			c0-1.6-0.7-3.3-2.6-3.3C1182.4,459.7,1181.5,461,1181.4,463.1z"/>
		<path class="st2" d="M1190.4,458.8h1.4l0.2,2.2c0.6-1.4,1.8-2.5,3.5-2.5v1.8c-0.2,0-0.4-0.1-0.6-0.1c-1.3,0-2.8,0.9-2.8,3.3v5.1
			h-1.7V458.8z"/>
		<path class="st2" d="M1197.2,461.9h5.3v1.5h-5.3V461.9z"/>
		<path class="st2" d="M1205,466.2c0.7,0.9,1.8,1.5,3,1.5c1.1,0,2.1-0.5,2.1-1.6c0-2.5-5.5-1.2-5.5-4.8c0-2,1.7-2.8,3.6-2.8
			c1.4,0,2.6,0.4,3.5,1.2l-0.8,1.1c-0.6-0.6-1.6-1.1-2.7-1.1c-0.9,0-1.8,0.4-1.8,1.4c0,2.3,5.5,1.2,5.5,4.7c0,2-1.8,3-3.7,3
			c-1.6,0-3-0.5-3.9-1.6L1205,466.2z"/>
		<path class="st2" d="M1219.9,468.6c-0.2-0.5-0.2-1.1-0.3-1.7c-0.5,1.2-1.7,2-3.2,2c-1.9,0-3.1-1.2-3.1-3c0-2.1,1.6-2.7,3.7-3.1
			l2.5-0.4v-0.6c0-1.7-0.9-2-2-2c-1.5,0-2.5,0.6-3.1,1.5l-0.9-1.1c0.8-0.9,2.1-1.7,4.2-1.7c2.4,0,3.5,1.1,3.5,3.5v4
			c0,1.3,0,1.9,0.3,2.7H1219.9z M1219.6,463.5l-2.4,0.4c-1.6,0.3-2.2,0.8-2.2,1.9c0,1.1,0.6,1.9,1.9,1.9c1.5,0,2.7-1.2,2.7-3V463.5z
			"/>
		<path class="st2" d="M1224.6,459.9h-1.7v-1.1h0.4c1.6,0,1.7-0.6,1.9-2.3l0-0.4h1v2.7h2.1v1.1h-2.1v6.1c0,1.1,0.3,1.6,1.2,1.6
			c0.4,0,0.7-0.1,1-0.2l0.2,1.2c-0.5,0.2-1.1,0.3-1.7,0.3c-1.9,0-2.3-1.1-2.3-2.6V459.9z"/>
		<path class="st2" d="M1231.4,464.1c0.1,2.2,1.2,3.6,3,3.6c1.2,0,2-0.5,2.6-1.6l1.3,0.7c-0.8,1.3-2,2.2-4,2.2
			c-3.1,0-4.6-2.3-4.6-5.2c0-2.8,1.5-5.3,4.5-5.3c2.9,0,4.3,2.3,4.3,5c0,0.3,0,0.4,0,0.5H1231.4z M1231.4,463.1h5.3
			c0-1.6-0.7-3.3-2.6-3.3C1232.5,459.7,1231.5,461,1231.4,463.1z"/>
		<path class="st2" d="M1240.5,454.5h1.7v14.1h-1.7V454.5z"/>
		<path class="st2" d="M1244.7,454.5h1.7v14.1h-1.7V454.5z"/>
		<path class="st2" d="M1248.9,454.9h1.7v1.7h-1.7V454.9z M1248.9,458.8h1.7v9.8h-1.7V458.8z"/>
		<path class="st2" d="M1254,459.9h-1.7v-1.1h0.4c1.6,0,1.7-0.6,1.9-2.3l0-0.4h1v2.7h2.1v1.1h-2.1v6.1c0,1.1,0.3,1.6,1.2,1.6
			c0.4,0,0.7-0.1,1-0.2l0.2,1.2c-0.5,0.2-1.1,0.3-1.7,0.3c-1.9,0-2.3-1.1-2.3-2.6V459.9z"/>
		<path class="st2" d="M1260.8,464.1c0.1,2.2,1.2,3.6,3,3.6c1.2,0,2-0.5,2.6-1.6l1.3,0.7c-0.8,1.3-2,2.2-4,2.2
			c-3.1,0-4.6-2.3-4.6-5.2c0-2.8,1.5-5.3,4.5-5.3c2.9,0,4.3,2.3,4.3,5c0,0.3,0,0.4,0,0.5H1260.8z M1260.8,463.1h5.3
			c0-1.6-0.7-3.3-2.6-3.3C1261.9,459.7,1261,461,1260.8,463.1z"/>
		<path class="st2" d="M1201.8,474.5h1.7v14.1h-1.7V474.5z"/>
		<path class="st2" d="M1206,474.9h1.7v1.7h-1.7V474.9z M1206,478.8h1.7v9.8h-1.7V478.8z"/>
		<path class="st2" d="M1210.2,478.8h1.4l0.2,2c0.5-1.2,1.6-2.2,3.3-2.2c2,0,3,1.4,3,3.7v6.4h-1.7v-6.1c0-1.8-0.8-2.6-2-2.6
			c-1.5,0-2.6,1.3-2.6,3.4v5.2h-1.7V478.8z"/>
		<path class="st2" d="M1220.6,474.5h1.7v8.9l4.5-4.6h2.1l-3.9,3.8l4.4,6.1h-1.9l-3.5-5l-1.6,1.5v3.5h-1.7V474.5z"/>
	</g>
	<g>
		<g>
			<line class="st8" x1="1274.6" y1="494.1" x2="1155.5" y2="494.1"/>
			<g>
				<polygon class="st2" points="1273.1,489.1 1281.8,494.1 1273.1,499.1 				"/>
			</g>
			<g>
				<polygon class="st2" points="1157,489.1 1148.3,494.1 1157,499.1 				"/>
			</g>
		</g>
	</g>
	<line class="st8" x1="947.5" y1="664" x2="877.4" y2="593.8"/>
	<g>
		<path class="st2" d="M1396.9,468.3c-0.4-1-1.1-2-1.9-2.9c-0.4-0.5-0.9-0.9-1.4-1.3c-1-0.7-2-1.3-3.2-1.7c-1.1-0.4-2.3-0.7-3.6-0.8
			c-1.2-0.1-2.3-0.1-3.3-0.1c-1,0.1-1.9,0.3-2.7,0.6c-1.6,0.5-2.9,1.4-4,2.6c-1,1.1-1.7,2.3-2.3,3.8c-0.3,0.7-0.4,1.3-0.5,1.9
			c-0.1,0.7,0,1.2,0.3,1.7c0.2,0.3,0.3,0.5,0.5,0.8c0,0.1,0.1,0.1,0,0.2c-0.1,0.4-0.4,0.8-0.6,1.1c-0.2,0.3-0.4,0.6-0.5,0.8
			c-0.2,0.4-0.5,0.7-0.7,1.1c-0.2,0.4-0.5,0.8-0.6,1.3c-0.1,0.6,0,1,0.4,1.4c0.2,0.2,0.4,0.3,0.6,0.4c0.4,0.2,0.8,0.3,1.3,0.5l0,0.1
			c0,0.1,0,0.3,0,0.4l0,0.2c0,0.3-0.1,0.5-0.2,0.8c-0.1,0.4,0,0.8,0.4,1c0.1,0,0.2,0.1,0.2,0.1c-0.1,0.1-0.1,0.2-0.2,0.3
			c-0.2,0.3-0.1,0.7,0.1,0.9c0.1,0.1,0.2,0.2,0.2,0.2c0.3,0.2,0.4,0.5,0.4,0.9c0,0.3,0,0.6,0.1,0.8c0.2,1,1,1.5,1.9,1.5l0.6,0
			c0.6,0,1.2,0,1.7-0.1c1-0.1,1.9-0.2,3-0.3c0.8-0.1,1.5-0.5,2.1-1.1c0.4-0.4,0.7-0.9,1-1.5c0.5-1,0.8-2.1,1.1-3.1
			c0-0.1,0-0.3,0-0.4c-0.1-0.3-0.4-0.5-0.8-0.5c-0.3,0-0.6,0.2-0.7,0.5l-0.2,0.5c-0.1,0.3-0.2,0.6-0.3,0.9c-0.2,0.7-0.5,1.4-0.9,2
			c-0.2,0.3-0.4,0.5-0.6,0.8c-0.3,0.3-0.7,0.4-1.2,0.5l-0.5,0.1c-0.5,0.1-1,0.1-1.5,0.2c-0.8,0.1-1.6,0.1-2.3,0.1l-0.5,0
			c-0.2,0-0.3-0.1-0.4-0.3c-0.1-0.2-0.1-0.3-0.1-0.6c0-0.5-0.1-0.9-0.3-1.2c-0.1-0.1-0.2-0.3-0.3-0.4l0,0l0.2-0.2
			c0.2-0.1,0.3-0.4,0.3-0.6c0-0.2-0.1-0.4-0.3-0.6c-0.1-0.1-0.3-0.2-0.4-0.3c-0.1-0.1-0.3-0.1-0.4-0.2c0-0.1,0-0.1,0-0.2
			c0-0.3,0.1-0.6,0.1-0.9c0,0,0.1,0,0.1,0c0.4-0.1,0.6-0.4,0.6-0.8c0-0.4-0.3-0.7-0.7-0.7c-0.1,0-0.1,0-0.2,0c0,0-0.1,0-0.1,0
			c-0.5-0.1-0.9-0.2-1.4-0.3c-0.2-0.1-0.4-0.2-0.6-0.3c0,0,0,0,0,0c0,0,0,0,0,0c0.1-0.3,0.2-0.4,0.3-0.6c0.2-0.4,0.5-0.8,0.7-1.2
			c0.2-0.4,0.5-0.8,0.7-1.1c0.3-0.5,0.5-0.9,0.6-1.3c0.2-0.6,0.1-1.1-0.3-1.5c-0.1-0.1-0.2-0.3-0.3-0.4c-0.2-0.4-0.3-0.8-0.2-1.3
			c0.4-1.6,0.9-2.9,1.8-4c0.9-1.2,2.1-2.2,3.6-2.7c1.1-0.4,2.2-0.6,3.5-0.7c1,0,2,0,3,0.2c1.5,0.2,2.8,0.6,3.9,1.3
			c1.1,0.6,2.1,1.3,2.8,2.2c0.5,0.5,0.8,1.1,1.1,1.7c0.4,0.8,0.6,1.5,0.7,2.3c0,0.6,0,1.2-0.1,1.9c-0.2,1.5-0.8,2.9-1.8,4.1
			c-0.8,1-1.8,1.9-3.1,2.5c-0.3,0.2-0.5,0.4-0.4,0.8c0,0.8,0.1,1.7,0.2,2.5c0.2,1.2,0.4,2.3,0.8,3.2c0.2,0.5,0.4,0.9,0.5,1.3
			c0.1,0.2,0.2,0.3,0.4,0.4c0.1,0,0.2,0,0.2,0c0.1,0,0.3,0,0.4-0.1c0.4-0.2,0.5-0.6,0.3-1c-0.3-0.6-0.5-1.2-0.7-2
			c-0.3-1.3-0.5-2.6-0.6-3.9c1-0.6,1.9-1.3,2.6-2.1c0.8-0.9,1.5-1.9,2-3.1c0.6-1.3,0.8-2.8,0.8-4.3
			C1397.4,470.1,1397.2,469.2,1396.9,468.3z"/>
		<path class="st2" d="M1389.1,477.2c-0.5-0.8-1.2-1.2-2.2-1.3c-0.5,0-0.8-0.2-1-0.6c-0.2-0.4-0.1-0.8,0.2-1.1
			c0.2-0.2,0.3-0.3,0.5-0.3c0.2,0,0.3-0.1,0.5-0.1c0.4,0,0.9,0,1.3,0l2.2,0c0.1,0,0.2,0,0.3,0.1c0.1,0.1,0.1,0.2,0,0.3
			c-0.1,0.1-0.2,0.2-0.3,0.2l-2.3,0c-0.1,0-0.2,0-0.3,0c-0.4,0.1-0.6,0.5-0.5,0.8c0.1,0.4,0.4,0.7,0.8,0.7c0.8,0,1.6,0,2.4,0
			c0.9,0,1.7-0.7,1.8-1.6c0-0.2,0-0.4,0-0.6c0.9-0.4,1.4-1.3,1.5-2.3c0-1-0.5-1.9-1.3-2.3c0-0.1,0-0.3,0-0.4c0-0.8-0.3-1.5-0.9-2.1
			c-0.6-0.5-1.3-0.7-2.1-0.6c-0.5-1-1.7-1.6-2.8-1.4c-0.2,0-0.3,0.1-0.5,0.2c0,0,0,0-0.1,0c-0.6-0.7-1.3-1-2.2-0.9
			c-0.9,0.1-1.6,0.5-2,1.2c-0.9-0.2-1.7,0.1-2.3,0.7c-0.6,0.6-0.9,1.3-0.8,2.1c-0.7,0.3-1.1,0.8-1.3,1.5c-0.3,0.8-0.2,1.6,0.3,2.3
			c0.5,0.9,1.3,1.4,2.3,1.4c0.6,0,1.2,0,1.8,0c0.4,0.9,1.3,1.5,2.3,1.5c0.1,0,0.2,0,0.3,0c-0.1,0.9,0.2,1.6,0.9,2.2
			c0.5,0.4,1,0.6,1.7,0.6c0.5,0,0.9,0.4,1,0.9c0,0.3,0.1,0.6,0.1,1l0.1,0.7c0,0.2,0.1,0.4,0.3,0.5c0.1,0.1,0.3,0.1,0.5,0.1
			c0,0,0.1,0,0.1,0c0.4-0.1,0.7-0.4,0.6-0.9c-0.1-0.5-0.1-1-0.2-1.5C1389.4,478,1389.3,477.5,1389.1,477.2z M1384,471.1
			c0.1,0,0.2,0,0.3,0c0.1,0,0.1,0,0.2,0l0.5,0c0.9,0,1.9,0,2.8,0c0,0,0,0,0.1,0c0.2,0.1,0.3,0.2,0.3,0.4c0.1,0.3,0.6,0.5,0.9,0.4
			c0.4-0.1,0.6-0.5,0.5-0.9c-0.1-0.3-0.2-0.6-0.4-0.7c0,0-0.1-0.1-0.1-0.1l0,0c0.1-0.2,0.2-0.3,0.2-0.5c0.1-0.3,0.1-0.5,0-0.8
			c-0.1-0.3-0.4-0.5-0.8-0.5c-0.4,0-0.6,0.2-0.7,0.6c-0.1,0.2-0.1,0.4-0.3,0.6c-1.2,0-2.4,0-3.6,0c-1.2,0-2.2,0.8-2.5,1.9
			c0,0,0,0,0,0l-0.4,0c-0.4,0-0.8,0-1.2,0c-0.3,0-0.6-0.1-0.8-0.5c-0.3-0.4-0.4-1-0.1-1.4c0.2-0.3,0.5-0.4,0.8-0.5l0.1,0
			c0.1,0,0.1,0,0.2,0c0.2,0,0.3-0.1,0.4-0.3c0.1-0.1,0.1-0.3,0-0.5l-0.1-0.1c-0.1-0.1-0.1-0.2-0.1-0.4c-0.1-0.3,0-0.5,0.2-0.8
			c0.2-0.2,0.4-0.4,0.7-0.5c0.3-0.1,0.5,0,0.8,0.1l0.3,0.1c0.2,0.1,0.3,0.1,0.5,0c0.2-0.1,0.3-0.2,0.3-0.4c0.1-0.3,0.2-0.6,0.4-0.7
			c0.2-0.2,0.5-0.3,0.8-0.3c0.3,0,0.6,0.1,0.8,0.4c0.1,0.1,0.1,0.2,0.2,0.3l0,0.1c0,0.1,0,0.1,0.1,0.2c0,0,0,0.1,0,0.1
			c0.1,0.2,0.2,0.3,0.4,0.4c0.2,0,0.4,0,0.5-0.1c0.1-0.1,0.1-0.1,0.2-0.2c0.1-0.1,0.2-0.2,0.3-0.3c0.3-0.2,0.7-0.2,1-0.1
			c0.3,0.2,0.6,0.5,0.6,0.8l0,0.3c0,0.2,0.1,0.4,0.3,0.5c0.2,0.1,0.4,0.1,0.5,0l0.1-0.1c0.1-0.1,0.2-0.1,0.3-0.2
			c0.5-0.2,1,0.1,1.3,0.5c0.2,0.4,0.2,0.7-0.1,1.1c0,0.1-0.1,0.1-0.1,0.2c-0.1,0.2-0.1,0.3,0,0.5c0.1,0.2,0.2,0.3,0.4,0.3l0.2,0
			c0.2,0,0.3,0.1,0.4,0.1c0.4,0.2,0.7,0.6,0.6,1.1c-0.1,0.5-0.4,0.8-0.9,0.9c-0.3-0.1-0.5-0.2-0.8-0.2l-0.3,0c-0.9,0-1.8,0-2.7,0
			c-0.3,0-0.7,0-1,0c-0.4,0-0.8,0.1-1.2,0.4c-0.1,0.1-0.2,0.2-0.3,0.2c-0.1,0-0.1,0.1-0.2,0.1c-0.3,0-0.6,0-1,0
			c-0.3,0-0.6-0.1-0.7-0.3c-0.2-0.2-0.3-0.4-0.2-0.7C1383.2,471.5,1383.6,471.1,1384,471.1z"/>
		<path class="st2" d="M1386.2,467.2c-0.4,0.2-0.7,0.2-1,0.1c-0.2-0.1-0.3-0.2-0.5-0.4c-0.2-0.2-0.4-0.2-0.6-0.2
			c-0.2,0-0.4,0.2-0.4,0.4c-0.1,0.2-0.1,0.3-0.2,0.4c-0.3,0.5-1,0.6-1.5,0.3l-0.1,0c-0.1,0-0.1-0.1-0.2-0.1c-0.2-0.1-0.4-0.1-0.5,0
			c-0.2,0.1-0.3,0.2-0.3,0.4c0,0.1,0,0.1,0,0.2l0,0.1c0,0.4-0.1,0.7-0.4,0.9c-0.1,0-0.1,0.1-0.1,0.1c-0.2,0.2-0.2,0.5-0.1,0.7
			s0.3,0.4,0.5,0.5c0.1,0,0.1,0,0.2,0c0.3,0,0.5-0.2,0.6-0.3c0.2-0.2,0.4-0.5,0.5-0.8c0.3,0.1,0.6,0,0.9,0c0.6-0.1,1.1-0.4,1.5-0.9
			c0.5,0.2,1,0.2,1.6,0.1c0.3-0.1,0.7-0.2,0.9-0.5c0.1-0.2,0.2-0.4,0.2-0.5c0-0.2-0.1-0.4-0.3-0.5
			C1386.8,467,1386.5,467,1386.2,467.2z"/>
	</g>
	<g>
		<path class="st2" d="M1052.2,468.3c-0.4-1-1.1-2-1.9-2.9c-0.4-0.5-0.9-0.9-1.4-1.3c-1-0.7-2-1.3-3.2-1.7c-1.1-0.4-2.3-0.7-3.6-0.8
			c-1.2-0.1-2.3-0.1-3.3-0.1c-1,0.1-1.9,0.3-2.7,0.6c-1.6,0.5-2.9,1.4-4,2.6c-1,1.1-1.7,2.3-2.3,3.8c-0.3,0.7-0.4,1.3-0.5,1.9
			c-0.1,0.7,0,1.2,0.3,1.7c0.2,0.3,0.3,0.5,0.5,0.8c0,0.1,0.1,0.1,0,0.2c-0.1,0.4-0.4,0.8-0.6,1.1c-0.2,0.3-0.4,0.6-0.5,0.8
			c-0.2,0.4-0.5,0.7-0.7,1.1c-0.2,0.4-0.5,0.8-0.6,1.3c-0.1,0.6,0,1,0.4,1.4c0.2,0.2,0.4,0.3,0.6,0.4c0.4,0.2,0.8,0.3,1.3,0.5l0,0.1
			c0,0.1,0,0.3,0,0.4l0,0.2c0,0.3-0.1,0.5-0.2,0.8c-0.1,0.4,0,0.8,0.4,1c0.1,0,0.2,0.1,0.2,0.1c-0.1,0.1-0.1,0.2-0.2,0.3
			c-0.2,0.3-0.1,0.7,0.1,0.9c0.1,0.1,0.2,0.2,0.2,0.2c0.3,0.2,0.4,0.5,0.4,0.9c0,0.3,0,0.6,0.1,0.8c0.2,1,1,1.5,1.9,1.5l0.6,0
			c0.6,0,1.2,0,1.7-0.1c1-0.1,1.9-0.2,3-0.3c0.8-0.1,1.5-0.5,2.1-1.1c0.4-0.4,0.7-0.9,1-1.5c0.5-1,0.8-2.1,1.1-3.1
			c0-0.1,0-0.3,0-0.4c-0.1-0.3-0.4-0.5-0.8-0.5c-0.3,0-0.6,0.2-0.7,0.5l-0.2,0.5c-0.1,0.3-0.2,0.6-0.3,0.9c-0.2,0.7-0.5,1.4-0.9,2
			c-0.2,0.3-0.4,0.5-0.6,0.8c-0.3,0.3-0.7,0.4-1.2,0.5l-0.5,0.1c-0.5,0.1-1,0.1-1.5,0.2c-0.8,0.1-1.6,0.1-2.3,0.1l-0.5,0
			c-0.2,0-0.3-0.1-0.4-0.3c-0.1-0.2-0.1-0.3-0.1-0.6c0-0.5-0.1-0.9-0.3-1.2c-0.1-0.1-0.2-0.3-0.3-0.4l0,0l0.2-0.2
			c0.2-0.1,0.3-0.4,0.3-0.6c0-0.2-0.1-0.4-0.3-0.6c-0.1-0.1-0.3-0.2-0.4-0.3c-0.1-0.1-0.3-0.1-0.4-0.2c0-0.1,0-0.1,0-0.2
			c0-0.3,0.1-0.6,0.1-0.9c0,0,0.1,0,0.1,0c0.4-0.1,0.6-0.4,0.6-0.8c0-0.4-0.3-0.7-0.7-0.7c-0.1,0-0.1,0-0.2,0c0,0-0.1,0-0.1,0
			c-0.5-0.1-0.9-0.2-1.4-0.3c-0.2-0.1-0.4-0.2-0.6-0.3c0,0,0,0,0,0c0,0,0,0,0,0c0.1-0.3,0.2-0.4,0.3-0.6c0.2-0.4,0.5-0.8,0.7-1.2
			c0.2-0.4,0.5-0.8,0.7-1.1c0.3-0.5,0.5-0.9,0.6-1.3c0.2-0.6,0.1-1.1-0.3-1.5c-0.1-0.1-0.2-0.3-0.3-0.4c-0.2-0.4-0.3-0.8-0.2-1.3
			c0.4-1.6,0.9-2.9,1.8-4c0.9-1.2,2.1-2.2,3.6-2.7c1.1-0.4,2.2-0.6,3.5-0.7c1,0,2,0,3,0.2c1.5,0.2,2.8,0.6,3.9,1.3
			c1.1,0.6,2.1,1.3,2.8,2.2c0.5,0.5,0.8,1.1,1.1,1.7c0.4,0.8,0.6,1.5,0.7,2.3c0,0.6,0,1.2-0.1,1.9c-0.2,1.5-0.8,2.9-1.8,4.1
			c-0.8,1-1.8,1.9-3.1,2.5c-0.3,0.2-0.5,0.4-0.4,0.8c0,0.8,0.1,1.7,0.2,2.5c0.2,1.2,0.4,2.3,0.8,3.2c0.2,0.5,0.4,0.9,0.5,1.3
			c0.1,0.2,0.2,0.3,0.4,0.4c0.1,0,0.2,0,0.2,0c0.1,0,0.3,0,0.4-0.1c0.4-0.2,0.5-0.6,0.3-1c-0.3-0.6-0.5-1.2-0.7-2
			c-0.3-1.3-0.5-2.6-0.6-3.9c1-0.6,1.9-1.3,2.6-2.1c0.8-0.9,1.5-1.9,2-3.1c0.6-1.3,0.8-2.8,0.8-4.3
			C1052.8,470.1,1052.6,469.2,1052.2,468.3z"/>
		<path class="st2" d="M1044.5,477.2c-0.5-0.8-1.2-1.2-2.2-1.3c-0.5,0-0.8-0.2-1-0.6c-0.2-0.4-0.1-0.8,0.2-1.1
			c0.2-0.2,0.3-0.3,0.5-0.3c0.2,0,0.3-0.1,0.5-0.1c0.4,0,0.9,0,1.3,0l2.2,0c0.1,0,0.2,0,0.3,0.1c0.1,0.1,0.1,0.2,0,0.3
			c-0.1,0.1-0.2,0.2-0.3,0.2l-2.3,0c-0.1,0-0.2,0-0.3,0c-0.4,0.1-0.6,0.5-0.5,0.8c0.1,0.4,0.4,0.7,0.8,0.7c0.8,0,1.6,0,2.4,0
			c0.9,0,1.7-0.7,1.8-1.6c0-0.2,0-0.4,0-0.6c0.9-0.4,1.4-1.3,1.5-2.3c0-1-0.5-1.9-1.3-2.3c0-0.1,0-0.3,0-0.4c0-0.8-0.3-1.5-0.9-2.1
			c-0.6-0.5-1.3-0.7-2.1-0.6c-0.5-1-1.7-1.6-2.8-1.4c-0.2,0-0.3,0.1-0.5,0.2c0,0,0,0-0.1,0c-0.6-0.7-1.3-1-2.2-0.9
			c-0.9,0.1-1.6,0.5-2,1.2c-0.9-0.2-1.7,0.1-2.3,0.7c-0.6,0.6-0.9,1.3-0.8,2.1c-0.7,0.3-1.1,0.8-1.3,1.5c-0.3,0.8-0.2,1.6,0.3,2.3
			c0.5,0.9,1.3,1.4,2.3,1.4c0.6,0,1.2,0,1.8,0c0.4,0.9,1.3,1.5,2.3,1.5c0.1,0,0.2,0,0.3,0c-0.1,0.9,0.2,1.6,0.9,2.2
			c0.5,0.4,1,0.6,1.7,0.6c0.5,0,0.9,0.4,1,0.9c0,0.3,0.1,0.6,0.1,1l0.1,0.7c0,0.2,0.1,0.4,0.3,0.5c0.1,0.1,0.3,0.1,0.5,0.1
			c0,0,0.1,0,0.1,0c0.4-0.1,0.7-0.4,0.6-0.9c-0.1-0.5-0.1-1-0.2-1.5C1044.8,478,1044.7,477.5,1044.5,477.2z M1039.4,471.1
			c0.1,0,0.2,0,0.3,0c0.1,0,0.1,0,0.2,0l0.5,0c0.9,0,1.9,0,2.8,0c0,0,0,0,0.1,0c0.2,0.1,0.3,0.2,0.3,0.4c0.1,0.3,0.6,0.5,0.9,0.4
			c0.4-0.1,0.6-0.5,0.5-0.9c-0.1-0.3-0.2-0.6-0.4-0.7c0,0-0.1-0.1-0.1-0.1l0,0c0.1-0.2,0.2-0.3,0.2-0.5c0.1-0.3,0.1-0.5,0-0.8
			c-0.1-0.3-0.4-0.5-0.8-0.5c-0.4,0-0.6,0.2-0.7,0.6c-0.1,0.2-0.1,0.4-0.3,0.6c-1.2,0-2.4,0-3.6,0c-1.2,0-2.2,0.8-2.5,1.9
			c0,0,0,0,0,0l-0.4,0c-0.4,0-0.8,0-1.2,0c-0.3,0-0.6-0.1-0.8-0.5c-0.3-0.4-0.4-1-0.1-1.4c0.2-0.3,0.5-0.4,0.8-0.5l0.1,0
			c0.1,0,0.1,0,0.2,0c0.2,0,0.3-0.1,0.4-0.3c0.1-0.1,0.1-0.3,0-0.5l-0.1-0.1c-0.1-0.1-0.1-0.2-0.1-0.4c-0.1-0.3,0-0.5,0.2-0.8
			c0.2-0.2,0.4-0.4,0.7-0.5c0.3-0.1,0.5,0,0.8,0.1l0.3,0.1c0.2,0.1,0.3,0.1,0.5,0c0.2-0.1,0.3-0.2,0.3-0.4c0.1-0.3,0.2-0.6,0.4-0.7
			c0.2-0.2,0.5-0.3,0.8-0.3c0.3,0,0.6,0.1,0.8,0.4c0.1,0.1,0.1,0.2,0.2,0.3l0,0.1c0,0.1,0,0.1,0.1,0.2c0,0,0,0.1,0,0.1
			c0.1,0.2,0.2,0.3,0.4,0.4c0.2,0,0.4,0,0.5-0.1c0.1-0.1,0.1-0.1,0.2-0.2c0.1-0.1,0.2-0.2,0.3-0.3c0.3-0.2,0.7-0.2,1-0.1
			c0.3,0.2,0.6,0.5,0.6,0.8l0,0.3c0,0.2,0.1,0.4,0.3,0.5c0.2,0.1,0.4,0.1,0.5,0l0.1-0.1c0.1-0.1,0.2-0.1,0.3-0.2
			c0.5-0.2,1,0.1,1.3,0.5c0.2,0.4,0.2,0.7-0.1,1.1c0,0.1-0.1,0.1-0.1,0.2c-0.1,0.2-0.1,0.3,0,0.5c0.1,0.2,0.2,0.3,0.4,0.3l0.2,0
			c0.2,0,0.3,0.1,0.4,0.1c0.4,0.2,0.7,0.6,0.6,1.1c-0.1,0.5-0.4,0.8-0.9,0.9c-0.3-0.1-0.5-0.2-0.8-0.2l-0.3,0c-0.9,0-1.8,0-2.7,0
			c-0.3,0-0.7,0-1,0c-0.4,0-0.8,0.1-1.2,0.4c-0.1,0.1-0.2,0.2-0.3,0.2c-0.1,0-0.1,0.1-0.2,0.1c-0.3,0-0.6,0-1,0
			c-0.3,0-0.6-0.1-0.7-0.3c-0.2-0.2-0.3-0.4-0.2-0.7C1038.5,471.5,1038.9,471.1,1039.4,471.1z"/>
		<path class="st2" d="M1041.6,467.2c-0.4,0.2-0.7,0.2-1,0.1c-0.2-0.1-0.3-0.2-0.5-0.4c-0.2-0.2-0.4-0.2-0.6-0.2
			c-0.2,0-0.4,0.2-0.4,0.4c-0.1,0.2-0.1,0.3-0.2,0.4c-0.3,0.5-1,0.6-1.5,0.3l-0.1,0c-0.1,0-0.1-0.1-0.2-0.1c-0.2-0.1-0.4-0.1-0.5,0
			c-0.2,0.1-0.3,0.2-0.3,0.4c0,0.1,0,0.1,0,0.2l0,0.1c0,0.4-0.1,0.7-0.4,0.9c-0.1,0-0.1,0.1-0.1,0.1c-0.2,0.2-0.2,0.5-0.1,0.7
			s0.3,0.4,0.5,0.5c0.1,0,0.1,0,0.2,0c0.3,0,0.5-0.2,0.6-0.3c0.2-0.2,0.4-0.5,0.5-0.8c0.3,0.1,0.6,0,0.9,0c0.6-0.1,1.1-0.4,1.5-0.9
			c0.5,0.2,1,0.2,1.6,0.1c0.3-0.1,0.7-0.2,0.9-0.5c0.1-0.2,0.2-0.4,0.2-0.5c0-0.2-0.1-0.4-0.3-0.5
			C1042.2,467,1041.9,467,1041.6,467.2z"/>
	</g>
	
		<pattern  id="SVGID_00000018207714071961612730000014159373844936064439_" xlink:href="#Unnamed_Pattern_2" patternTransform="matrix(5.1657 0 0 3.0131 28907.0273 13774.3086)">
	</pattern>
	<polygon style="fill:url(#SVGID_00000018207714071961612730000014159373844936064439_);" points="1003.9,484.8 960.4,441.3 
		916.9,397.8 973.9,397.8 	"/>
</g>
</svg>
