<?xml version="1.0" encoding="UTF-8"?>
<svg width="631px" height="458px" viewBox="0 0 631 458" version="1.1" xmlns="http://www.w3.org/2000/svg" xmlns:xlink="http://www.w3.org/1999/xlink">
    <!-- Generator: Sketch 63.1 (92452) - https://sketch.com -->
    <title>CMS Flywheel</title>
    <desc>Created with Sketch.</desc>
    <g id="Page-1" stroke="none" stroke-width="1" fill="none" fill-rule="evenodd">
        <g id="CMS-Flywheel" transform="translate(-128.000000, -154.000000)" fill-rule="nonzero">
            <g transform="translate(128.300000, 154.000000)">
                <g id="Net-Solutions'-Digital-Transformation-Flywheel" transform="translate(12.700000, 47.000000)">
                    <path d="M362.704311,410.247214 C320.789727,410.247214 281.900326,397.315047 249.819669,375.228807 L250.436848,375.226851 L250.434061,367.740078 C282.042914,390.414759 320.811486,403.767215 362.704311,403.767215 C433.128727,403.767215 494.723999,366.034043 528.319534,309.713431 L535.823051,309.713133 C501.561071,369.759501 436.868383,410.247214 362.704311,410.247214 Z M210.532268,338.299204 L210.528408,339.649653 C210.149326,339.201508 209.772192,338.751665 209.397022,338.300138 L210.532268,338.299204 Z M190.897333,110.904755 L189.344587,117.901061 L193.806482,118.893041 C178.68278,146.349994 170.079724,177.89241 170.079724,211.440566 C170.079724,225.333334 171.555069,238.88213 174.357872,251.939258 L167.734208,251.940733 C165.023873,238.864637 163.599725,225.31866 163.599725,211.440566 C163.599725,174.760892 173.547964,140.401138 190.897333,110.904755 Z M501.287194,68.6938008 C538.612287,104.828811 561.809556,155.429875 561.809556,211.440566 C561.809556,224.897655 560.470504,238.042469 557.918181,250.749407 L551.301725,250.749259 L551.580454,249.390099 C554.039552,237.121523 555.329556,224.431426 555.329556,211.440566 C555.329556,155.113401 531.077371,104.440507 492.429212,69.2653947 L501.287676,69.2653997 L501.287194,68.6938008 Z M362.704311,12.6332587 C399.931808,12.6332587 434.772868,22.8348372 464.576601,40.5909084 L454.266861,40.5942044 L454.26902,42.1895869 C427.035107,27.4705947 395.847453,19.1132585 362.704311,19.1132585 C300.469435,19.1132585 245.129491,48.5814337 209.915109,94.3042135 L202.958009,92.7542069 C239.254248,44.126169 297.295825,12.6332587 362.704311,12.6332587 Z" id="Combined-Shape" fill="#01DDEF"></path>
                    <polygon id="Path" fill="#01DDEF" points="447.273227 49.387331 462.94068 27.2028132 477.291801 53.9625252"></polygon>
                    <polygon id="Path" fill="#01DDEF" points="543.675292 238.792199 569.980846 245.549196 550.071072 268.475922"></polygon>
                    <path d="M205.387526,342.795789 L206.33772,349.206617 C198.418798,350.370128 190.317485,350.972709 182.075431,350.972709 C179.736006,350.972709 177.40792,350.924162 175.092125,350.82802 L174.125668,344.297422 C176.759249,344.427105 179.409679,344.492709 182.075431,344.492709 C189.994698,344.492709 197.778736,343.913729 205.387526,342.795789 Z M50.3895994,274.622409 C69.9501122,303.467784 98.7395012,325.546455 132.516037,336.616692 L133.573198,343.75079 C95.6752172,332.149793 63.5623163,307.30891 42.6277922,274.621438 Z M324.355979,256.537498 L330.922238,257.878299 C313.247363,294.158332 282.698879,323.012804 245.220883,338.497618 L244.238295,331.881499 C279.054773,317.077711 307.508131,290.215582 324.355979,256.537498 Z M23.1536069,180.644301 C23.1052695,182.256354 23.0809283,183.874438 23.0809283,185.498206 C23.0809283,192.413521 23.5224149,199.225721 24.3787404,205.908158 L17.8472546,205.908777 C17.0245544,199.220565 16.6009284,192.408857 16.6009284,185.498206 C16.6009284,183.874592 16.624312,182.25644 16.6707607,180.644068 Z M346.560678,167.300094 C347.214413,173.27623 347.549934,179.348035 347.549934,185.498206 C347.549934,190.20747 347.353213,194.870787 346.96754,199.480388 L340.571948,198.17491 C340.901852,193.992773 341.069934,189.765118 341.069934,185.498206 C341.069934,179.344602 340.720349,173.272649 340.039956,167.301121 Z M120.208736,31.9767272 L120.209506,38.989014 C77.7967405,56.9205739 44.7850005,92.7312745 30.6217125,136.973689 L23.8298922,136.972966 C38.4795756,89.1406259 74.2210397,50.5266968 120.208736,31.9767272 Z M231.206347,27.4394483 C278.75854,42.2043896 317.124744,77.8375623 335.596508,123.630514 L328.584202,123.631285 C310.734488,81.4129109 275.169099,48.5097218 231.206252,34.239934 Z M182.075431,20.0237036 C185.128495,20.0237036 188.162246,20.1063866 191.17457,20.2696356 L191.174555,26.7597112 C188.163154,26.5898044 185.129347,26.5037034 182.075431,26.5037034 C174.667264,26.5037034 167.377433,27.0103618 160.2387,27.9909175 L160.239758,21.4516061 C167.384684,20.5097283 174.673299,20.0237036 182.075431,20.0237036 Z" id="Combined-Shape" fill="#F13624"></path>
                    <path d="M512.49331,370.191435 L507.572718,370.191435 L507.572718,373.029756 L512.016082,373.029756 L512.016082,375.562229 L507.572718,375.562229 L507.572718,380.509846 L504.77922,380.509846 L504.77922,367.587114 L512.49331,367.587114 L512.49331,370.191435 Z M522.05567,380.509846 L521.154605,378.058449 L516.009242,378.058449 L515.125974,380.509846 L512.161096,380.509846 L517.225383,367.587114 L519.856729,367.587114 L525.083828,380.509846 L522.05567,380.509846 Z M518.568081,371.002196 L516.883281,375.625508 L520.271338,375.625508 L518.568081,371.002196 Z M530.212712,380.762302 C528.710498,380.762302 527.49963,380.365491 526.580768,379.572528 C525.661247,378.773632 525.201816,377.689322 525.201816,376.319598 L528.013771,376.319598 C528.013771,376.914156 528.224042,377.373587 528.644582,377.697891 C529.065123,378.016263 529.581901,378.175779 530.194256,378.175779 C530.753219,378.175779 531.239675,378.037356 531.654284,377.76117 C532.068892,377.484984 532.275867,377.115198 532.275867,376.652472 C532.275867,376.490319 532.246205,376.343328 532.186222,376.211497 C532.132171,376.079007 532.035935,375.961677 531.897512,375.859508 C531.765681,375.757339 531.636487,375.670331 531.509929,375.598483 C531.389963,375.525976 531.210013,375.454128 530.969422,375.38228 C530.72883,375.309773 530.531084,375.255722 530.374864,375.220128 C530.224577,375.177942 529.99585,375.120596 529.690002,375.048748 C528.608329,374.784427 527.82723,374.535266 527.346706,374.300607 C526.20505,373.754167 525.562374,372.913086 525.418019,371.777362 C525.39429,371.597413 525.381766,371.410872 525.381766,371.218398 C525.381766,369.99303 525.79967,369.043846 526.634819,368.370849 C527.475901,367.69192 528.620194,367.352455 530.068357,367.352455 C531.546182,367.352455 532.690475,367.722241 533.501895,368.461153 C534.318588,369.194134 534.727264,370.209232 534.727264,371.507108 L531.960791,371.507108 C531.960791,370.978466 531.771613,370.575722 531.393258,370.299537 C531.020177,370.016759 530.554813,369.8757 529.99585,369.8757 C529.497529,369.8757 529.06776,369.981165 528.707202,370.191435 C528.353236,370.401706 528.175923,370.704917 528.175923,371.101728 C528.175923,371.275745 528.220746,371.434601 528.31105,371.578956 C528.407287,371.723311 528.518025,371.840641 528.644582,371.930286 C528.770481,372.02059 528.959659,372.113531 529.212115,372.209767 C529.464571,372.300072 529.680774,372.369283 529.860723,372.417401 C530.047264,372.46552 530.314881,372.531435 530.662915,372.615148 C530.957557,372.687655 531.182988,372.744342 531.339208,372.786528 C531.50136,372.828714 531.726132,372.894629 532.014842,372.984934 C532.302892,373.075238 532.531619,373.158951 532.699704,373.23739 C532.867788,373.309238 533.075422,373.411407 533.321287,373.543897 C533.567811,373.669796 533.76292,373.79899 533.907275,373.93148 C534.057563,374.057379 534.216419,374.216235 534.385163,374.408708 C534.55918,374.601182 534.69101,374.802224 534.781315,375.012494 C534.871619,375.222765 534.946763,375.465993 535.006746,375.742838 C535.072661,376.019024 535.105619,376.313007 535.105619,376.625446 C535.105619,377.304376 534.976425,377.911457 534.718036,378.446032 C534.460306,378.980607 534.105681,379.416308 533.654819,379.753136 C533.210549,380.083373 532.693771,380.335829 532.105146,380.509846 C531.522453,380.677931 530.891642,380.762302 530.212712,380.762302 Z M545.70483,367.587114 L545.70483,370.182207 L542.10914,370.182207 L542.10914,380.509846 L539.314982,380.509846 L539.314982,370.182207 L535.72852,370.182207 L535.72852,367.587114 L545.70483,367.587114 Z M550.076345,377.905525 L555.240165,377.905525 L555.240165,380.509846 L547.282188,380.509846 L547.282188,367.587114 L555.041759,367.587114 L555.041759,370.172979 L550.076345,370.172979 L550.076345,372.723908 L554.555303,372.723908 L554.555303,375.255722 L550.076345,375.255722 L550.076345,377.905525 Z M564.405714,380.509846 L561.882469,376.102736 L560.088908,376.102736 L560.088908,380.509846 L557.29541,380.509846 L557.29541,367.587114 L562.51328,367.587114 C563.811156,367.587114 564.886238,367.992494 565.739843,368.803255 C566.598722,369.608742 567.028491,370.629773 567.028491,371.867666 C567.028491,372.702815 566.818221,373.450297 566.39768,374.111429 C565.977139,374.76597 565.403015,375.270883 564.675967,375.625508 L567.532745,380.509846 L564.405714,380.509846 Z M560.088908,370.172979 L560.088908,373.516872 L562.324103,373.516872 C562.900863,373.516872 563.357658,373.363289 563.693827,373.056782 C564.030655,372.744342 564.198739,372.342258 564.198739,371.84921 C564.198739,371.356821 564.030655,370.954077 563.693827,370.641638 C563.357658,370.329199 562.900863,370.172979 562.324103,370.172979 L560.088908,370.172979 Z M510.916611,401.22313 C509.943039,401.22313 509.03011,401.05175 508.176504,400.709648 C507.323558,400.360955 506.590577,399.889001 505.978223,399.294443 C505.371141,398.699885 504.890617,397.984702 504.535992,397.149553 C504.187299,396.314403 504.013282,395.425203 504.013282,394.481953 C504.013282,393.538702 504.187299,392.649502 504.535992,391.814353 C504.890617,390.979204 505.371141,390.26468 505.978223,389.669463 C506.590577,389.074905 507.323558,388.606246 508.176504,388.264145 C509.03011,387.915452 509.943039,387.741435 510.916611,387.741435 C511.883591,387.741435 512.790589,387.912156 513.638262,388.254916 C514.491208,388.597677 515.218256,389.068973 515.818746,389.669463 C516.425828,390.26468 516.903056,390.979204 517.251749,391.814353 C517.600442,392.64357 517.774459,393.53277 517.774459,394.481953 C517.774459,395.431136 517.600442,396.323632 517.251749,397.158781 C516.903056,397.987998 516.425828,398.702522 515.818746,399.303671 C515.218256,399.898229 514.491208,400.366888 513.638262,400.709648 C512.790589,401.05175 511.883591,401.22313 510.916611,401.22313 Z M508.02358,397.411237 C508.804679,398.198268 509.769022,398.591784 510.916611,398.591784 C512.0642,398.591784 513.021952,398.200905 513.791186,397.419806 C514.560419,396.632775 514.944707,395.65393 514.944707,394.481953 C514.944707,393.310635 514.560419,392.334426 513.791186,391.553328 C513.021952,390.772229 512.0642,390.382009 510.916611,390.382009 C509.769022,390.382009 508.804679,390.775525 508.02358,391.562556 C507.242482,392.349587 506.852262,393.322499 506.852262,394.481953 C506.852262,395.641406 507.242482,396.618274 508.02358,397.411237 Z M524.651422,388.020916 C525.504368,388.020916 526.276239,388.21273 526.967692,388.597677 C527.664419,388.976032 528.210859,389.507311 528.60767,390.192173 C529.009754,390.871102 529.211456,391.628471 529.211456,392.46362 C529.211456,393.737108 528.775754,394.797688 527.904352,395.644702 C527.033608,396.485784 525.949298,396.906325 524.651422,396.906325 L522.470278,396.906325 L522.470278,400.943648 L519.67678,400.943648 L519.67678,388.020916 L524.651422,388.020916 Z M524.524864,394.319801 C525.071963,394.319801 525.516233,394.145784 525.858994,393.797091 C526.201095,393.449057 526.372476,393.004127 526.372476,392.46362 C526.372476,391.922454 526.201095,391.48148 525.858994,391.138719 C525.522166,390.790026 525.077895,390.616009 524.524864,390.616009 L522.470278,390.616009 L522.470278,394.319801 L524.524864,394.319801 Z M533.654819,398.339327 L538.818639,398.339327 L538.818639,400.943648 L530.86132,400.943648 L530.86132,388.020916 L538.620233,388.020916 L538.620233,390.606781 L533.654819,390.606781 L533.654819,393.157711 L538.133777,393.157711 L538.133777,395.689525 L533.654819,395.689525 L533.654819,398.339327 Z M547.984847,400.943648 L545.461602,396.536539 L543.668041,396.536539 L543.668041,400.943648 L540.874543,400.943648 L540.874543,388.020916 L546.092413,388.020916 C547.38963,388.020916 548.465371,388.426297 549.318317,389.237057 C550.177196,390.042544 550.606965,391.063575 550.606965,392.301468 C550.606965,393.136618 550.396695,393.884099 549.976154,394.545232 C549.555613,395.199773 548.982148,395.704685 548.2551,396.059311 L551.111878,400.943648 L547.984847,400.943648 Z M543.668041,390.606781 L543.668041,393.950674 L545.902576,393.950674 C546.479337,393.950674 546.936131,393.797091 547.272959,393.490584 C547.609128,393.178144 547.777213,392.77606 547.777213,392.283012 C547.777213,391.790623 547.609128,391.38788 547.272959,391.07544 C546.936131,390.763001 546.479337,390.606781 545.902576,390.606781 L543.668041,390.606781 Z M561.250999,400.943648 L560.349934,398.492251 L555.203911,398.492251 L554.320644,400.943648 L551.355765,400.943648 L556.420711,388.020916 L559.052058,388.020916 L564.279156,400.943648 L561.250999,400.943648 Z M557.76341,391.435998 L556.077951,396.059311 L559.466666,396.059311 L557.76341,391.435998 Z M573.282553,388.020916 L573.282553,390.616009 L569.686863,390.616009 L569.686863,400.943648 L566.893365,400.943648 L566.893365,390.616009 L563.306244,390.616009 L563.306244,388.020916 L573.282553,388.020916 Z M574.86057,400.943648 L574.86057,388.020916 L577.654069,388.020916 L577.654069,400.943648 L574.86057,400.943648 Z M586.450491,401.22313 C585.476919,401.22313 584.563989,401.05175 583.711043,400.709648 C582.857437,400.360955 582.124457,399.889001 581.512102,399.294443 C580.905021,398.699885 580.424497,397.984702 580.069871,397.149553 C579.721837,396.314403 579.547161,395.425203 579.547161,394.481953 C579.547161,393.538702 579.721837,392.649502 580.069871,391.814353 C580.424497,390.979204 580.905021,390.26468 581.512102,389.669463 C582.124457,389.074905 582.857437,388.606246 583.711043,388.264145 C584.563989,387.915452 585.476919,387.741435 586.450491,387.741435 C587.417471,387.741435 588.325127,387.912156 589.172141,388.254916 C590.025088,388.597677 590.752136,389.068973 591.352626,389.669463 C591.959708,390.26468 592.437595,390.979204 592.785629,391.814353 C593.134322,392.64357 593.308339,393.53277 593.308339,394.481953 C593.308339,395.431136 593.134322,396.323632 592.785629,397.158781 C592.437595,397.987998 591.959708,398.702522 591.352626,399.303671 C590.752136,399.898229 590.025088,400.366888 589.172141,400.709648 C588.325127,401.05175 587.417471,401.22313 586.450491,401.22313 Z M583.55746,397.411237 C584.338558,398.198268 585.302902,398.591784 586.450491,398.591784 C587.59808,398.591784 588.556491,398.200905 589.325065,397.419806 C590.094299,396.632775 590.478586,395.65393 590.478586,394.481953 C590.478586,393.310635 590.094299,392.334426 589.325065,391.553328 C588.556491,390.772229 587.59808,390.382009 586.450491,390.382009 C585.302902,390.382009 584.338558,390.775525 583.55746,391.562556 C582.776361,392.349587 582.386142,393.322499 582.386142,394.481953 C582.386142,395.641406 582.776361,396.618274 583.55746,397.411237 Z M603.400659,388.020916 L606.142744,388.020916 L606.142744,400.943648 L603.809335,400.943648 L597.949448,392.869001 L597.949448,400.943648 L595.21066,400.943648 L595.21066,388.020916 L597.731927,388.020916 L603.400659,395.905727 L603.400659,388.020916 Z M613.083645,401.196105 C611.580772,401.196105 610.367927,400.799293 609.451701,400.00633 C608.528885,399.207434 608.074068,398.123125 608.074068,396.753401 L610.882068,396.753401 C610.882068,397.347958 611.092997,397.807389 611.514856,398.131694 C611.936715,398.450065 612.450856,398.609581 613.06387,398.609581 C613.624152,398.609581 614.111927,398.471158 614.527194,398.194972 C614.93587,397.918787 615.1468,397.549001 615.1468,397.086274 C615.1468,396.924122 615.113842,396.77713 615.054518,396.645299 C615.001786,396.512809 614.902913,396.39548 614.76449,396.293311 C614.632659,396.191141 614.50742,396.104133 614.38218,396.032285 C614.256941,395.959778 614.078969,395.88793 613.841673,395.816082 C613.597786,395.743575 613.400039,395.689525 613.241842,395.65393 C613.096828,395.611744 612.866124,395.554398 612.556321,395.48255 C611.475307,395.218229 610.697504,394.969068 610.216321,394.734409 C609.075983,394.18797 608.430011,393.346888 608.284997,392.211164 C608.265223,392.031215 608.25204,391.844674 608.25204,391.652201 C608.25204,390.426832 608.667307,389.477649 609.504434,388.804652 C610.348152,388.125722 611.48849,387.786257 612.938631,387.786257 C614.415138,387.786257 615.562068,388.156043 616.372828,388.894956 C617.19018,389.627936 617.598856,390.643035 617.598856,391.940911 L614.830406,391.940911 C614.830406,391.412268 614.639251,391.009525 614.263532,390.733339 C613.887814,390.450561 613.426406,390.309502 612.866124,390.309502 C612.365166,390.309502 611.936715,390.414967 611.57418,390.625237 C611.224828,390.835508 611.046856,391.138719 611.046856,391.53553 C611.046856,391.709547 611.092997,391.868404 611.178687,392.012759 C611.277561,392.157113 611.389617,392.274443 611.514856,392.364088 C611.640096,392.454392 611.831251,392.547333 612.08173,392.64357 C612.332208,392.733874 612.54973,392.803085 612.727701,392.851204 C612.918856,392.899322 613.182518,392.965237 613.53187,393.04895 C613.82849,393.121457 614.052603,393.178144 614.2108,393.22033 C614.368997,393.262516 614.59311,393.328432 614.883138,393.418736 C615.173166,393.50904 615.40387,393.592753 615.568659,393.671192 C615.740039,393.74304 615.944377,393.845209 616.188265,393.977699 C616.438744,394.103598 616.629898,394.232792 616.774913,394.365282 C616.926518,394.491181 617.084715,394.650037 617.256096,394.842511 C617.427476,395.034984 617.559307,395.236026 617.651589,395.446296 C617.74387,395.656567 617.816377,395.899795 617.875701,396.17664 C617.941617,396.452826 617.974574,396.746809 617.974574,397.059249 C617.974574,397.738178 617.849335,398.34526 617.585673,398.879834 C617.328603,399.414409 616.972659,399.85011 616.524434,400.186939 C616.0828,400.517175 615.562068,400.769632 614.97542,400.943648 C614.388772,401.111733 613.762575,401.196105 613.083645,401.196105 Z" id="Shape" fill="#666666"></path>
                    <circle id="Oval" fill="#FFFFFF" cx="513.637512" cy="86.6375125" r="28.6375125"></circle>
                    <g id="2857443" transform="translate(495.000000, 69.000000)">
                        <polygon id="Path" fill="#F8D94E" points="2.32258065 2.90322581 5.80645161 2.90322581 5.80645161 7.5483871 2.32258065 7.5483871"></polygon>
                        <polygon id="Path" fill="#F8D94E" points="2.32258065 28.4516129 5.80645161 28.4516129 5.80645161 33.0967742 2.32258065 33.0967742"></polygon>
                        <path d="M28.0997419,15.3348387 C27.8610968,14.4284516 27.5005161,13.5598065 27.0243871,12.7451613 L27.7391613,11.3161935 L24.6832258,8.26025806 L23.2542581,8.97503226 C22.4396129,8.49948387 21.5709677,8.13890323 20.6645806,7.89967742 L20.1605806,6.38709677 L15.84,6.38709677 L15.3354194,7.90025806 C14.4290323,8.13890323 13.5603871,8.49948387 12.7457419,8.9756129 L11.3167742,8.26083871 L8.26083871,11.3167742 L8.9756129,12.7457419 C8.50006452,13.5603871 8.13948387,14.4290323 7.90025806,15.3354194 L6.38709677,15.8394194 L6.38709677,20.16 L7.90025806,20.6645806 C8.13890323,21.5709677 8.49948387,22.4396129 8.9756129,23.2542581 L8.26083871,24.6832258 L11.3167742,27.7391613 L12.7457419,27.0243871 C13.5603871,27.4999355 14.4290323,27.8605161 15.3354194,28.0997419 L15.8394194,29.6129032 L20.16,29.6129032 L20.6645806,28.0997419 C21.5709677,27.8610968 22.4396129,27.5005161 23.2542581,27.0243871 L24.6832258,27.7391613 L27.7391613,24.6832258 L27.0243871,23.2542581 C27.4999355,22.4396129 27.8605161,21.5709677 28.0997419,20.6645806 L29.6129032,20.1605806 L29.6129032,15.84 L28.0997419,15.3348387 Z M18,25.5483871 C13.8309677,25.5483871 10.4516129,22.1690323 10.4516129,18 C10.4516129,13.8309677 13.8309677,10.4516129 18,10.4516129 C22.1690323,10.4516129 25.5483871,13.8309677 25.5483871,18 C25.5483871,22.1690323 22.1690323,25.5483871 18,25.5483871 Z" id="Shape" fill="#F8D94E"></path>
                        <polygon id="Path" fill="#F8D94E" points="30.1935484 2.90322581 33.6774194 2.90322581 33.6774194 7.5483871 30.1935484 7.5483871"></polygon>
                        <polygon id="Path" fill="#F8D94E" points="30.1935484 28.4516129 33.6774194 28.4516129 33.6774194 33.0967742 30.1935484 33.0967742"></polygon>
                        <g id="Group" fill="#000000">
                            <path d="M18,9.87096774 C13.5174194,9.87096774 9.87096774,13.5174194 9.87096774,18 C9.87096774,22.4825806 13.5174194,26.1290323 18,26.1290323 C22.4825806,26.1290323 26.1290323,22.4825806 26.1290323,18 C26.1290323,13.5174194 22.4825806,9.87096774 18,9.87096774 Z M18,24.9677419 C14.157871,24.9677419 11.0322581,21.842129 11.0322581,18 C11.0322581,14.157871 14.157871,11.0322581 18,11.0322581 C21.842129,11.0322581 24.9677419,14.157871 24.9677419,18 C24.9677419,21.842129 21.842129,24.9677419 18,24.9677419 Z" id="Shape"></path>
                            <polygon id="Path" points="18.5806452 12.1935484 17.4193548 12.1935484 17.4193548 20.9032258 16.2580645 20.9032258 16.2580645 22.0645161 17.4193548 22.0645161 17.4193548 23.8064516 18.5806452 23.8064516 18.5806452 22.0645161 19.7419355 22.0645161 19.7419355 20.9032258 18.5806452 20.9032258"></polygon>
                            <polygon id="Path" points="22.0645161 13.3548387 20.9032258 13.3548387 20.9032258 17.4193548 19.7419355 17.4193548 19.7419355 18.5806452 20.9032258 18.5806452 20.9032258 22.6451613 22.0645161 22.6451613 22.0645161 18.5806452 23.2258065 18.5806452 23.2258065 17.4193548 22.0645161 17.4193548"></polygon>
                            <polygon id="Path" points="16.2580645 17.4193548 16.2580645 16.2580645 15.0967742 16.2580645 15.0967742 13.3548387 13.9354839 13.3548387 13.9354839 16.2580645 12.7741935 16.2580645 12.7741935 17.4193548 13.9354839 17.4193548 13.9354839 22.6451613 15.0967742 22.6451613 15.0967742 17.4193548"></polygon>
                            <path d="M0,10.4516129 L2.90322581,10.4516129 L2.90322581,17.4193548 L5.22580645,17.4193548 L5.22580645,16.2580645 L4.06451613,16.2580645 L4.06451613,10.4516129 L8.12903226,10.4516129 L8.12903226,0 L0,0 L0,10.4516129 Z M1.16129032,1.16129032 L6.96774194,1.16129032 L6.96774194,9.29032258 L1.16129032,9.29032258 L1.16129032,1.16129032 Z" id="Shape"></path>
                            <polygon id="Path" points="2.32258065 2.32258065 5.80645161 2.32258065 5.80645161 3.48387097 2.32258065 3.48387097"></polygon>
                            <polygon id="Path" points="2.32258065 4.64516129 5.80645161 4.64516129 5.80645161 5.80645161 2.32258065 5.80645161"></polygon>
                            <polygon id="Path" points="2.32258065 6.96774194 5.80645161 6.96774194 5.80645161 8.12903226 2.32258065 8.12903226"></polygon>
                            <polygon id="Path" points="2.32258065 27.8709677 5.80645161 27.8709677 5.80645161 29.0322581 2.32258065 29.0322581"></polygon>
                            <polygon id="Path" points="2.32258065 30.1935484 5.80645161 30.1935484 5.80645161 31.3548387 2.32258065 31.3548387"></polygon>
                            <polygon id="Path" points="2.32258065 32.516129 5.80645161 32.516129 5.80645161 33.6774194 2.32258065 33.6774194"></polygon>
                            <path d="M27.8709677,0 L27.8709677,10.4516129 L31.9354839,10.4516129 L31.9354839,16.2580645 L30.7741935,16.2580645 L30.7741935,17.4193548 L33.0967742,17.4193548 L33.0967742,10.4516129 L36,10.4516129 L36,0 L27.8709677,0 Z M34.8387097,9.29032258 L29.0322581,9.29032258 L29.0322581,1.16129032 L34.8387097,1.16129032 L34.8387097,9.29032258 Z" id="Shape"></path>
                            <polygon id="Path" points="30.1935484 2.32258065 33.6774194 2.32258065 33.6774194 3.48387097 30.1935484 3.48387097"></polygon>
                            <polygon id="Path" points="30.1935484 4.64516129 33.6774194 4.64516129 33.6774194 5.80645161 30.1935484 5.80645161"></polygon>
                            <polygon id="Path" points="30.1935484 6.96774194 33.6774194 6.96774194 33.6774194 8.12903226 30.1935484 8.12903226"></polygon>
                            <polygon id="Path" points="30.1935484 27.8709677 33.6774194 27.8709677 33.6774194 29.0322581 30.1935484 29.0322581"></polygon>
                            <polygon id="Path" points="30.1935484 30.1935484 33.6774194 30.1935484 33.6774194 31.3548387 30.1935484 31.3548387"></polygon>
                            <polygon id="Path" points="30.1935484 32.516129 33.6774194 32.516129 33.6774194 33.6774194 30.1935484 33.6774194"></polygon>
                            <path d="M33.0967742,18.5806452 L30.7741935,18.5806452 L30.7741935,19.7419355 L31.9354839,19.7419355 L31.9354839,25.5483871 L27.8709677,25.5483871 L27.8709677,36 L36,36 L36,25.5483871 L33.0967742,25.5483871 L33.0967742,18.5806452 Z M34.8387097,34.8387097 L29.0322581,34.8387097 L29.0322581,26.7096774 L34.8387097,26.7096774 L34.8387097,34.8387097 Z" id="Shape"></path>
                            <path d="M4.06451613,19.7419355 L5.22580645,19.7419355 L5.22580645,18.5806452 L2.90322581,18.5806452 L2.90322581,25.5483871 L0,25.5483871 L0,36 L8.12903226,36 L8.12903226,25.5483871 L4.06451613,25.5483871 L4.06451613,19.7419355 Z M6.96774194,34.8387097 L1.16129032,34.8387097 L1.16129032,26.7096774 L6.96774194,26.7096774 L6.96774194,34.8387097 Z" id="Shape"></path>
                        </g>
                    </g>
                    <circle id="Oval" fill="#FFFFFF" cx="529.815901" cy="310.954501" r="28.6375125"></circle>
                    <path d="M539.823191,319.581521 C539.918109,318.944118 539.42572,318.383837 538.785022,318.383837 C537.952509,318.383837 537.433754,319.349498 537.952509,320.049521 C538.508177,320.79898 539.688064,320.492473 539.823191,319.581521 Z" id="Path" fill="#99F1F8"></path>
                    <circle id="Oval" fill="#F8D94E" cx="538.70065" cy="319.242715" r="8.93379019"></circle>
                    <circle id="Oval" fill="#99F1F8" cx="538.70065" cy="319.242715" r="3.57352267"></circle>
                    <path d="M540.072351,310.004 L540.072351,309.228834 L540.568695,309.228834 C541.496785,309.228834 542.251517,308.474102 542.251517,307.546671 C542.251517,306.617921 541.496785,305.863189 540.568695,305.863189 L537.013213,305.863189 C536.651337,305.863189 536.317146,305.977223 536.042937,306.171673 L536.042937,294.179009 C536.042937,293.220598 535.263157,292.440817 534.304087,292.440817 L513.638262,292.440817 C512.679191,292.440817 511.899411,293.220598 511.899411,294.179009 L511.899411,327.24156 C511.899411,328.199971 512.679191,328.979752 513.638262,328.979752 L534.304087,328.979752 C534.822841,328.979752 535.289523,328.751025 535.608554,328.389808 C541.846796,330.604569 548.3019,325.936433 548.3019,319.43387 C548.3019,314.602924 544.725326,310.639425 540.072351,310.004 Z M537.013213,306.944203 L540.568695,306.944203 C540.900909,306.944203 541.170503,307.214457 541.170503,307.546671 C541.170503,307.877566 540.900909,308.14782 540.568695,308.14782 C537.982171,308.14782 539.577985,308.14782 537.013213,308.14782 C536.680999,308.14782 536.410746,307.877566 536.410746,307.546671 C536.410746,307.214457 536.680999,306.944203 537.013213,306.944203 Z M538.991337,309.228834 L538.991337,309.918969 C538.857529,309.915673 538.72372,309.915673 538.590571,309.918969 L538.590571,309.228834 L538.991337,309.228834 Z M536.042937,308.920349 C536.317146,309.1148 536.651337,309.228834 537.013213,309.228834 L537.509557,309.228834 L537.509557,310.003341 C537.009917,310.069916 536.519506,310.17604 536.042937,310.319735 L536.042937,308.920349 Z M545.329771,324.747977 C540.889703,330.205121 532.142718,328.10769 530.578543,321.330259 C530.511309,321.039572 530.220622,320.858304 529.929935,320.925538 C529.639247,320.992772 529.45732,321.2828 529.524554,321.574146 C530.174481,324.386101 532.019456,326.640411 534.440532,327.884236 C534.337703,327.905988 535.515613,327.898738 513.638262,327.898738 C513.275067,327.898738 512.980425,327.604095 512.980425,327.24156 L512.980425,294.179009 C512.980425,293.816474 513.275067,293.521832 513.638262,293.521832 L534.304087,293.521832 C534.667281,293.521832 534.961923,293.816474 534.961923,294.179009 L534.961923,310.717865 C531.685923,312.158118 529.329444,315.431482 529.280008,319.300721 C529.276712,319.599318 529.515985,319.844524 529.814582,319.848479 C530.12834,319.848479 530.357726,319.601955 530.361681,319.314563 C530.426937,314.210727 534.996199,310.31644 540.072351,311.095561 C546.510317,312.092203 549.432351,319.704124 545.329771,324.747977 Z" id="Shape" fill="#211F1F"></path>
                    <path d="M545.053585,314.78551 C542.488154,311.324287 537.610408,310.599217 534.148526,313.165307 C530.687304,315.730738 529.962233,320.608484 532.528323,324.070366 C535.08914,327.524997 539.981388,328.248749 543.433382,325.690569 C546.886036,323.130411 547.613083,318.238822 545.053585,314.78551 Z M542.789388,324.821803 C539.813303,327.027994 535.599985,326.398501 533.397089,323.426372 C531.186943,320.445014 531.810504,316.243561 534.79252,314.033414 C537.773878,311.823268 541.974672,312.447487 544.184819,315.429504 C546.389692,318.403611 545.763495,322.616929 542.789388,324.821803 Z" id="Shape" fill="#211F1F"></path>
                    <path d="M538.790954,315.348428 C539.089551,315.348428 539.330802,315.106518 539.330802,314.807921 L539.330802,313.632648 C539.330802,313.334051 539.089551,313.092141 538.790954,313.092141 C538.491698,313.092141 538.250447,313.334051 538.250447,313.632648 L538.250447,314.807921 C538.250447,315.106518 538.491698,315.348428 538.790954,315.348428 Z" id="Path" fill="#211F1F"></path>
                    <path d="M541.958853,313.941132 C541.700464,313.791504 541.369568,313.879831 541.21994,314.13822 L540.632633,315.156614 C540.423681,315.51849 540.688002,315.967375 541.099974,315.967375 C541.287174,315.967375 541.468441,315.870479 541.568633,315.697121 L542.156599,314.678727 C542.305568,314.420338 542.217241,314.090101 541.958853,313.941132 Z" id="Path" fill="#211F1F"></path>
                    <path d="M543.061619,317.586259 L544.080013,316.998952 C544.338402,316.849324 544.426729,316.519087 544.2771,316.260039 C544.128131,316.001651 543.797895,315.913324 543.538847,316.062293 L542.521112,316.650259 C542.262723,316.799228 542.173737,317.130124 542.323365,317.388513 C542.472993,317.64756 542.80323,317.735228 543.061619,317.586259 Z" id="Path" fill="#211F1F"></path>
                    <path d="M544.586244,318.887431 L543.410312,318.887431 C543.111715,318.887431 542.869805,319.129341 542.869805,319.427938 C542.869805,319.726535 543.111715,319.968445 543.410312,319.968445 L544.586244,319.968445 C544.884841,319.968445 545.126092,319.726535 545.126092,319.427938 C545.126092,319.129341 544.884841,318.887431 544.586244,318.887431 Z" id="Path" fill="#211F1F"></path>
                    <path d="M544.080013,321.858901 L543.061619,321.271594 C542.80323,321.121966 542.472334,321.210293 542.323365,321.469341 C542.173737,321.727729 542.262723,322.058625 542.521112,322.207594 L543.538847,322.794901 C543.797236,322.94387 544.128131,322.856203 544.2771,322.597155 C544.426729,322.338766 544.338402,322.00787 544.080013,321.858901 Z" id="Path" fill="#211F1F"></path>
                    <path d="M541.568633,323.159414 C541.419664,322.901025 541.088768,322.812698 540.830379,322.961667 C540.571331,323.110636 540.483005,323.441532 540.632633,323.699921 L541.21994,324.717656 C541.369568,324.976704 541.700464,325.065031 541.958193,324.916062 C542.217241,324.766434 542.305568,324.436197 542.156599,324.177149 L541.568633,323.159414 Z" id="Path" fill="#211F1F"></path>
                    <path d="M538.790954,323.506788 C538.491698,323.506788 538.250447,323.749357 538.250447,324.047955 L538.250447,325.223228 C538.250447,325.521825 538.491698,325.763735 538.790954,325.763735 C539.089551,325.763735 539.330802,325.521825 539.330802,325.223228 L539.330802,324.047955 C539.330802,323.749357 539.088892,323.506788 538.790954,323.506788 Z" id="Path" fill="#211F1F"></path>
                    <path d="M536.751529,322.961667 C536.492481,322.812039 536.162244,322.901025 536.012616,323.159414 L535.425309,324.177808 C535.216357,324.539025 535.480019,324.988569 535.89265,324.988569 C536.07985,324.988569 536.261777,324.891673 536.361309,324.718315 L536.949275,323.699921 C537.098244,323.441532 537.009917,323.110636 536.751529,322.961667 Z" id="Path" fill="#211F1F"></path>
                    <path d="M534.51963,321.271594 L533.501895,321.858901 C533.023349,322.135087 533.223073,322.867408 533.772149,322.867408 C533.964622,322.867408 533.96594,322.839065 535.060137,322.207594 C535.318526,322.058625 535.407512,321.727729 535.257884,321.469341 C535.108915,321.210293 534.778019,321.121966 534.51963,321.271594 Z" id="Path" fill="#211F1F"></path>
                    <path d="M534.711444,319.427938 C534.711444,319.129341 534.469534,318.887431 534.170937,318.887431 L532.995664,318.887431 C532.697067,318.887431 532.455157,319.129341 532.455157,319.427938 C532.455157,319.726535 532.697067,319.968445 532.995664,319.968445 L534.170937,319.968445 C534.469534,319.968445 534.711444,319.725876 534.711444,319.427938 Z" id="Path" fill="#211F1F"></path>
                    <path d="M533.501895,316.998952 C534.608616,317.637673 534.600047,317.658766 534.789884,317.658766 C535.340278,317.658766 535.538684,316.926445 535.060796,316.650259 L534.042402,316.062293 C533.784013,315.913324 533.453118,316.001651 533.304149,316.260039 C533.15518,316.519087 533.243506,316.849324 533.501895,316.998952 Z" id="Path" fill="#211F1F"></path>
                    <path d="M536.361309,314.13822 C536.211681,313.879831 535.881444,313.791504 535.622396,313.940473 C535.364008,314.090101 535.275681,314.420338 535.42465,314.678727 L536.012616,315.697121 C536.161585,315.954851 536.491822,316.043837 536.75087,315.894868 C537.009258,315.745239 537.098244,315.415003 536.948616,315.156614 L536.361309,314.13822 Z" id="Path" fill="#211F1F"></path>
                    <path d="M540.695253,317.575053 C540.856746,317.323256 540.783579,316.989065 540.531782,316.827572 C540.280644,316.666738 539.946453,316.739904 539.785619,316.991701 L539.202926,317.900676 C538.254402,317.649538 537.35861,318.285622 537.223484,319.196575 C537.01585,320.594642 538.607709,321.536574 539.734205,320.702084 C540.419067,320.193876 540.584515,319.232169 540.088171,318.522918 L540.695253,317.575053 Z M539.09087,319.833318 C538.730312,320.100935 538.227377,319.798383 538.293292,319.355431 C538.332182,319.093746 538.555636,318.925662 538.785022,318.925662 C539.281365,318.925662 539.476475,319.547245 539.09087,319.833318 Z" id="Shape" fill="#211F1F"></path>
                    <path d="M515.740966,297.141251 L532.202042,297.141251 C532.500639,297.141251 532.742549,296.899341 532.742549,296.600744 C532.742549,296.302147 532.500639,296.060237 532.202042,296.060237 L515.740966,296.060237 C515.442369,296.060237 515.200459,296.302147 515.200459,296.600744 C515.200459,296.899341 515.442369,297.141251 515.740966,297.141251 Z" id="Path" fill="#211F1F"></path>
                    <path d="M522.803152,298.759476 C522.504554,298.759476 522.262645,299.001386 522.262645,299.299983 C522.262645,299.598581 522.504554,299.840491 522.803152,299.840491 L527.703968,299.840491 C528.002566,299.840491 528.244475,299.598581 528.244475,299.299983 C528.244475,299.001386 528.002566,298.759476 527.703968,298.759476 L522.803152,298.759476 Z" id="Path" fill="#211F1F"></path>
                    <path d="M515.740966,299.840491 L520.641783,299.840491 C520.939721,299.840491 521.181631,299.598581 521.181631,299.299983 C521.181631,299.001386 520.939721,298.759476 520.641783,298.759476 L515.740966,298.759476 C515.442369,298.759476 515.200459,299.001386 515.200459,299.299983 C515.200459,299.598581 515.442369,299.840491 515.740966,299.840491 Z" id="Path" fill="#211F1F"></path>
                    <path d="M528.353236,304.51324 L515.740966,304.51324 C515.442369,304.51324 515.200459,304.75515 515.200459,305.053747 C515.200459,305.352344 515.442369,305.594254 515.740966,305.594254 L528.353236,305.594254 C528.651174,305.594254 528.893743,305.352344 528.893743,305.053747 C528.893743,304.75515 528.651174,304.51324 528.353236,304.51324 Z" id="Path" fill="#211F1F"></path>
                    <path d="M532.202042,304.51324 L530.515264,304.51324 C530.216667,304.51324 529.974757,304.75515 529.974757,305.053747 C529.974757,305.352344 530.216667,305.594254 530.515264,305.594254 L532.202042,305.594254 C532.500639,305.594254 532.742549,305.352344 532.742549,305.053747 C532.742549,304.75515 532.500639,304.51324 532.202042,304.51324 Z" id="Path" fill="#211F1F"></path>
                    <path d="M515.740966,308.293493 L520.432831,308.293493 C520.731428,308.293493 520.973338,308.051583 520.973338,307.752986 C520.973338,307.454389 520.731428,307.212479 520.432831,307.212479 L515.740966,307.212479 C515.442369,307.212479 515.200459,307.454389 515.200459,307.752986 C515.200459,308.051583 515.442369,308.293493 515.740966,308.293493 Z" id="Path" fill="#211F1F"></path>
                    <path d="M527.522701,312.966242 L515.740966,312.966242 C515.442369,312.966242 515.200459,313.208152 515.200459,313.506749 C515.200459,313.805346 515.442369,314.047256 515.740966,314.047256 L527.522701,314.047256 C527.821298,314.047256 528.063208,313.805346 528.063208,313.506749 C528.063208,313.208152 527.821298,312.966242 527.522701,312.966242 Z" id="Path" fill="#211F1F"></path>
                    <path d="M515.740966,316.748473 L520.065022,316.748473 C520.363619,316.748473 520.605529,316.506563 520.605529,316.207966 C520.605529,315.909369 520.363619,315.667459 520.065022,315.667459 L515.740966,315.667459 C515.442369,315.667459 515.200459,315.909369 515.200459,316.207966 C515.200459,316.506563 515.442369,316.748473 515.740966,316.748473 Z" id="Path" fill="#211F1F"></path>
                    <path d="M526.551106,315.667459 L522.22705,315.667459 C521.928453,315.667459 521.686543,315.909369 521.686543,316.207966 C521.686543,316.506563 521.928453,316.748473 522.22705,316.748473 L526.551106,316.748473 C526.849704,316.748473 527.091614,316.506563 527.091614,316.207966 C527.091614,315.909369 526.849704,315.667459 526.551106,315.667459 Z" id="Path" fill="#211F1F"></path>
                    <path d="M524.017974,319.126045 L518.220707,324.401921 L516.264994,321.493729 C516.098228,321.245887 515.762059,321.179972 515.514876,321.346738 C515.267034,321.513504 515.201118,321.849014 515.367884,322.096856 L517.347986,325.041301 C517.70327,325.569943 518.446138,325.658929 518.916115,325.230479 L524.745681,319.9256 C524.965839,319.724558 524.982318,319.382456 524.781935,319.161639 C524.580233,318.940822 524.238791,318.925003 524.017974,319.126045 Z" id="Path" fill="#211F1F"></path>
                    <polygon id="Path" fill="#F13624" points="114.314306 52.9803844 104.512673 27.1171231 135.276751 30.2474498"></polygon>
                    <polygon id="Path" fill="#F13624" points="314.231377 117.466828 339.418345 106.040377 338.251641 136.9409"></polygon>
                    <polygon id="Path" fill="#F13624" points="62.7275244 274.521032 38.2036659 287.310615 37.676342 256.391635"></polygon>
                    <polygon id="Path" fill="#F13624" points="248.876827 317.814986 259.124049 343.504889 228.310534 340.90716"></polygon>
                    <circle id="Oval" stroke="#FFFFFF" stroke-width="2.15999994" fill="#01DDEF" cx="184.508372" cy="184.877941" r="63.7685577"></circle>
                    <path d="M132.21959,177.155942 L132.21959,166.078843 L134.6143,166.078843 L134.6143,177.155942 L132.21959,177.155942 Z M150.422812,177.155942 L147.981962,177.155942 L146.893038,169.925671 L143.586717,177.132871 L142.99941,177.132871 L139.693748,169.933581 L138.604165,177.155942 L136.163314,177.155942 L137.893596,166.078843 L140.296215,166.078843 L143.293393,172.868798 L146.297821,166.078843 L148.70835,166.078843 L150.422812,177.155942 Z M156.236559,166.078843 C156.967561,166.078843 157.629353,166.243632 158.221274,166.57321 C158.819127,166.898173 159.287787,167.353649 159.627251,167.940956 C159.972649,168.52299 160.144688,169.171598 160.144688,169.88744 C160.144688,170.979001 159.771606,171.887976 159.024784,172.614364 C158.277961,173.334821 157.348553,173.695378 156.236559,173.695378 L154.367195,173.695378 L154.367195,177.155942 L151.972485,177.155942 L151.972485,166.078843 L156.236559,166.078843 Z M156.128457,171.47864 C156.597116,171.47864 156.978108,171.329012 157.271432,171.030415 C157.564756,170.731818 157.711747,170.350826 157.711747,169.88744 C157.711747,169.424055 157.564756,169.04504 157.271432,168.751717 C156.982722,168.453119 156.60173,168.303491 156.128457,168.303491 L154.367195,168.303491 L154.367195,171.47864 L156.128457,171.47864 Z M167.611595,177.155942 L165.448248,173.378984 L163.911099,173.378984 L163.911099,177.155942 L161.517049,177.155942 L161.517049,166.078843 L165.989415,166.078843 C167.101409,166.078843 168.023567,166.426877 168.754569,167.122286 C169.490846,167.811762 169.859313,168.687779 169.859313,169.748359 C169.859313,170.464201 169.678705,171.1049 169.318806,171.671773 C168.958248,172.232714 168.466519,172.665778 167.842958,172.969649 L170.291719,177.155942 L167.611595,177.155942 Z M163.911099,168.29624 L163.911099,171.161587 L165.827263,171.161587 C166.321629,171.161587 166.712508,171.030415 167.001217,170.768071 C167.289268,170.500455 167.433623,170.155057 167.433623,169.732539 C167.433623,169.31068 167.289268,168.965283 167.001217,168.697666 C166.712508,168.430049 166.321629,168.29624 165.827263,168.29624 L163.911099,168.29624 Z M176.847014,177.395215 C176.012524,177.395215 175.229448,177.248883 174.498445,176.954899 C173.767443,176.656302 173.139268,176.25224 172.613921,175.742714 C172.093848,175.232528 171.681876,174.620173 171.378006,173.90433 C171.079409,173.188488 170.929781,172.425846 170.929781,171.617722 C170.929781,170.808939 171.079409,170.046956 171.378006,169.331114 C171.681876,168.615271 172.093848,168.002257 172.613921,167.492731 C173.139268,166.983204 173.767443,166.581119 174.498445,166.287795 C175.229448,165.989198 176.012524,165.83957 176.847014,165.83957 C177.675572,165.83957 178.453375,165.986562 179.179764,166.279886 C179.910766,166.57321 180.533668,166.977931 181.049127,167.492731 C181.5692,168.002257 181.978535,168.615271 182.277133,169.331114 C182.57573,170.041683 182.725358,170.803666 182.725358,171.617722 C182.725358,172.431119 182.57573,173.195739 182.277133,173.911581 C181.978535,174.62215 181.5692,175.235164 181.049127,175.749964 C180.533668,176.26015 179.910766,176.661575 179.179764,176.954899 C178.453375,177.248883 177.675572,177.395215 176.847014,177.395215 Z M174.367274,174.127784 C175.036975,174.802759 175.862896,175.140246 176.847014,175.140246 C177.830473,175.140246 178.65178,174.805395 179.310935,174.135694 C179.97009,173.461378 180.299668,172.621615 180.299668,171.617722 C180.299668,170.61317 179.97009,169.776702 179.310935,169.107001 C178.65178,168.437959 177.830473,168.103108 176.847014,168.103108 C175.862896,168.103108 175.036975,168.440595 174.367274,169.114911 C173.697572,169.789226 173.362721,170.623716 173.362721,171.617722 C173.362721,172.611728 173.697572,173.448195 174.367274,174.127784 Z M190.871194,166.078843 L193.490017,166.078843 L189.303065,177.155942 L187.040186,177.155942 L182.706242,166.078843 L185.356045,166.078843 L188.15218,173.911581 L190.871194,166.078843 Z M197.055386,174.923384 L201.481611,174.923384 L201.481611,177.155942 L194.660676,177.155942 L194.660676,166.078843 L201.311549,166.078843 L201.311549,168.29624 L197.055386,168.29624 L197.055386,170.481998 L200.894304,170.481998 L200.894304,172.652595 L197.055386,172.652595 L197.055386,174.923384 Z M207.387639,166.078843 C208.191149,166.078843 208.940608,166.217925 209.635357,166.496088 C210.336039,166.774252 210.930597,167.15788 211.419689,167.646973 C211.914056,168.131452 212.30032,168.715463 212.578484,169.400984 C212.86192,170.085846 213.003639,170.822122 213.003639,171.609812 C213.003639,172.402776 212.86192,173.144325 212.578484,173.83446 C212.295706,174.519322 211.906805,175.106629 211.412439,175.595722 C210.922687,176.079542 210.328129,176.460533 209.628106,176.738697 C208.932698,177.01686 208.185875,177.155942 207.387639,177.155942 L203.201346,177.155942 L203.201346,166.078843 L207.387639,166.078843 Z M207.333588,174.931294 C208.281453,174.931294 209.053983,174.62215 209.651177,174.004522 C210.253644,173.381621 210.554878,172.583384 210.554878,171.609812 C210.554878,170.6369 210.253644,169.843277 209.651177,169.230922 C209.053983,168.612635 208.281453,168.303491 207.333588,168.303491 L205.595397,168.303491 L205.595397,174.931294 L207.333588,174.931294 Z M223.193515,177.395215 C222.395278,177.395215 221.641205,177.248883 220.930636,176.954899 C220.224681,176.656302 219.619577,176.25224 219.115323,175.742714 C218.61041,175.232528 218.211622,174.62215 217.917639,173.911581 C217.624315,173.195739 217.477323,172.436392 217.477323,171.632883 C217.477323,170.819485 217.624315,170.054866 217.917639,169.339024 C218.211622,168.623181 218.61041,168.010167 219.115323,167.500641 C219.619577,166.990455 220.224681,166.589029 220.930636,166.295705 C221.641205,165.996449 222.395278,165.84748 223.193515,165.84748 C224.537531,165.84748 225.701599,166.254179 226.685058,167.067576 C227.67379,167.881632 228.296692,168.944849 228.554421,170.257886 L226.151802,170.257886 C225.920438,169.598731 225.542083,169.081294 225.016737,168.705576 C224.496664,168.324584 223.888923,168.134088 223.193515,168.134088 C222.256196,168.134088 221.473779,168.46828 220.845605,169.137981 C220.216771,169.802409 219.903013,170.634263 219.903013,171.632883 C219.903013,172.626888 220.216771,173.456105 220.845605,174.120533 C221.473779,174.779688 222.256196,175.109266 223.193515,175.109266 C223.919903,175.109266 224.548078,174.905587 225.078038,174.498888 C225.608658,174.086916 225.974489,173.527953 226.175531,172.822657 L228.593312,172.822657 C228.340855,174.192381 227.719931,175.297125 226.731199,176.136229 C225.742467,176.975992 224.563238,177.395215 223.193515,177.395215 Z M238.276297,177.155942 L235.588263,177.155942 L233.402506,173.355914 L231.193019,177.155942 L228.497075,177.155942 L231.942478,171.347469 L228.713278,166.078843 L231.409221,166.078843 L233.386686,169.493266 L235.379971,166.078843 L238.006044,166.078843 L234.823644,171.4325 L238.276297,177.155942 Z M188.399363,186.64184 L188.399363,188.758386 L185.77329,188.758386 L185.77329,191.554522 L183.501842,191.554522 L183.501842,188.758386 L180.875769,188.758386 L180.875769,186.64184 L183.501842,186.64184 L183.501842,183.922826 L185.77329,183.922826 L185.77329,186.64184 L188.399363,186.64184 Z M155.052716,203.009975 L160.94688,203.009975 C160.94688,204.152949 160.706947,205.183209 160.228401,206.099434 C159.754468,207.016318 159.085426,207.734797 158.219956,208.25487 C157.359759,208.774944 156.384209,209.034651 155.292649,209.034651 C154.489139,209.034651 153.73177,208.890955 153.021201,208.602245 C152.315905,208.308921 151.708164,207.909473 151.198638,207.40522 C150.688452,206.895034 150.287026,206.285316 149.993702,205.574087 C149.699719,204.858904 149.553387,204.090989 149.553387,203.272318 C149.553387,202.453648 149.697083,201.686392 149.985793,200.970549 C150.273843,200.254707 150.668018,199.641693 151.167657,199.132166 C151.667297,198.617366 152.269764,198.212645 152.97506,197.919321 C153.680356,197.625997 154.437725,197.479006 155.245849,197.479006 C156.152187,197.479006 156.997223,197.659614 157.77964,198.020172 C158.56733,198.375457 159.223849,198.874437 159.749195,199.518431 C160.279815,200.157152 160.629826,200.885518 160.799888,201.704189 L158.328057,201.704189 C158.09142,201.112268 157.699882,200.643609 157.154102,200.298871 C156.608322,199.9482 155.987398,199.773524 155.292649,199.773524 C154.313804,199.773524 153.515567,200.097828 152.897939,200.746437 C152.284925,201.395704 151.978418,202.237445 151.978418,203.272318 C151.978418,204.302578 152.282288,205.139045 152.890029,205.783039 C153.49777,206.426375 154.298643,206.748701 155.292649,206.748701 C156.008491,206.748701 156.64919,206.576003 157.216063,206.231265 C157.782277,205.880594 158.168542,205.419845 158.374198,204.848358 L155.052716,204.848358 L155.052716,203.009975 Z M168.59835,208.795377 L166.435663,205.01842 L164.898513,205.01842 L164.898513,208.795377 L162.503803,208.795377 L162.503803,197.718279 L166.97617,197.718279 C168.088823,197.718279 169.010322,198.066313 169.741984,198.761721 C170.47826,199.451197 170.846068,200.327214 170.846068,201.387795 C170.846068,202.103637 170.666119,202.744335 170.305561,203.311209 C169.945003,203.872149 169.453274,204.305214 168.830372,204.609085 L171.279133,208.795377 L168.59835,208.795377 Z M164.898513,199.935676 L164.898513,202.801023 L166.814017,202.801023 C167.308384,202.801023 167.699922,202.669851 167.988631,202.407507 C168.276682,202.13989 168.421037,201.794493 168.421037,201.371975 C168.421037,200.950116 168.276682,200.604719 167.988631,200.337102 C167.699922,200.069485 167.308384,199.935676 166.814017,199.935676 L164.898513,199.935676 Z M177.833769,209.034651 C176.999938,209.034651 176.216862,208.888318 175.485859,208.594335 C174.754197,208.295738 174.126023,207.891676 173.600676,207.382149 C173.080603,206.871963 172.668631,206.259608 172.364761,205.543766 C172.066164,204.827924 171.917195,204.065282 171.917195,203.257158 C171.917195,202.448375 172.066164,201.686392 172.364761,200.970549 C172.668631,200.254707 173.080603,199.641693 173.600676,199.132166 C174.126023,198.62264 174.754197,198.220555 175.485859,197.927231 C176.216862,197.628634 176.999938,197.479006 177.833769,197.479006 C178.662986,197.479006 179.440789,197.625997 180.166518,197.919321 C180.89818,198.212645 181.521082,198.617366 182.035882,199.132166 C182.555955,199.641693 182.96529,200.254707 183.264547,200.970549 C183.563144,201.681118 183.712113,202.443102 183.712113,203.257158 C183.712113,204.070555 183.563144,204.835175 183.264547,205.551017 C182.96529,206.261586 182.555955,206.8746 182.035882,207.3894 C181.521082,207.899586 180.89818,208.301011 180.166518,208.594335 C179.440789,208.888318 178.662986,209.034651 177.833769,209.034651 Z M175.354688,205.76722 C176.02373,206.442194 176.85031,206.779682 177.833769,206.779682 C178.817228,206.779682 179.639195,206.444831 180.298349,205.77513 C180.957504,205.100814 181.287082,204.261051 181.287082,203.257158 C181.287082,202.252606 180.957504,201.416138 180.298349,200.746437 C179.639195,200.077395 178.817228,199.742544 177.833769,199.742544 C176.85031,199.742544 176.02373,200.080031 175.354688,200.754347 C174.684986,201.428662 174.350136,202.263152 174.350136,203.257158 C174.350136,204.251163 174.684986,205.087631 175.354688,205.76722 Z M197.473949,197.718279 L199.97676,197.718279 L196.562997,208.795377 L194.430631,208.795377 L191.9588,202.58482 L189.556839,208.795377 L187.424473,208.795377 L183.93293,197.718279 L186.474631,197.718279 L188.645228,205.079721 L191.557375,197.83429 L192.360884,197.83429 L195.350152,205.079721 L197.473949,197.718279 Z M208.810754,197.718279 L208.810754,199.942927 L205.728546,199.942927 L205.728546,208.795377 L203.333836,208.795377 L203.333836,199.942927 L200.259538,199.942927 L200.259538,197.718279 L208.810754,197.718279 Z M216.686337,197.718279 L219.081047,197.718279 L219.081047,208.795377 L216.686337,208.795377 L216.686337,204.21491 L212.515205,204.21491 L212.515205,208.795377 L210.120495,208.795377 L210.120495,197.718279 L212.515205,197.718279 L212.515205,201.990262 L216.686337,201.990262 L216.686337,197.718279 Z" id="Shape" fill="#000000"></path>
                    <circle id="Oval" fill="#FFFFFF" cx="181.906576" cy="342.906576" r="27.9065756"></circle>
                    <g id="180778" transform="translate(163.000000, 323.000000)">
                        <rect id="Rectangle" fill="#F8D94E" x="19.03" y="26.2139726" width="1.30465753" height="13.6986301"></rect>
                        <rect id="Rectangle" fill="#F8D94E" x="15.7684932" y="26.2139726" width="1.30465753" height="10.4369863"></rect>
                        <rect id="Rectangle" fill="#F8D94E" x="12.5068493" y="32.0847945" width="1.30465753" height="1.30465753"></rect>
                        <rect id="Rectangle" fill="#F8D94E" x="12.5068493" y="26.2139726" width="1.30465753" height="4.56616438"></rect>
                        <rect id="Rectangle" fill="#F8D94E" x="22.2916438" y="35.3464384" width="1.30465753" height="1.30465753"></rect>
                        <rect id="Rectangle" fill="#F8D94E" x="22.2916438" y="26.2139726" width="1.30465753" height="7.82780822"></rect>
                        <rect id="Rectangle" fill="#F8D94E" x="25.5531507" y="26.2139726" width="1.30465753" height="7.17547945"></rect>
                        <circle id="Oval" fill="#F8D94E" cx="19.6823288" cy="11.2106849" r="4.56616438"></circle>
                        <path d="M27.510137,15.8727397 L27.510137,11.5916438 C27.510137,7.45273973 25.4260274,3.65561644 21.9341096,1.43315068 L19.6823288,0 L17.4305479,1.43246575 C13.9387671,3.65561644 11.8545205,7.45273973 11.8545205,11.5916438 L11.8545205,15.8727397 C8.47027397,16.5263014 5.98369863,19.4858904 5.98369863,22.9889041 L5.98369863,30.780137 L7.28835616,30.780137 C7.28835616,28.6216438 9.04369863,26.8663014 11.2021918,26.8663014 L28.1623288,26.8663014 C30.3208219,26.8663014 32.0761644,28.6216438 32.0761644,30.780137 L33.3808219,30.780137 L33.3808219,22.9889041 C33.3808219,19.4860274 30.8943836,16.5264384 27.510137,15.8727397 Z M18.1310959,2.53356164 L19.6823288,1.54726027 L21.2335616,2.53424658 C24.3464384,4.51534247 26.2054795,7.90150685 26.2054795,11.5916438 L26.2054795,19.6908219 L13.1591781,19.6908219 L13.1591781,11.5916438 C13.1591781,7.90150685 15.0182192,4.51534247 18.1310959,2.53356164 Z M11.2021918,25.5616438 C9.64506849,25.5616438 8.24520548,26.2472603 7.28835616,27.3320548 L7.28835616,22.9889041 C7.28835616,20.2028767 9.20684932,17.8382192 11.8545205,17.2094521 L11.8545205,25.5616438 L11.2021918,25.5616438 Z M13.1591781,25.5616438 L13.1591781,20.9954795 L26.2054795,20.9954795 L26.2054795,25.5616438 L13.1591781,25.5616438 Z M32.0763014,27.3320548 C31.1193151,26.2472603 29.7194521,25.5616438 28.1624658,25.5616438 L27.510137,25.5616438 L27.510137,17.2087671 C30.1579452,17.8382192 32.0763014,20.2028767 32.0763014,22.9882192 L32.0763014,27.3320548 L32.0763014,27.3320548 Z" id="Shape" fill="#333333"></path>
                        <polygon id="Path" fill="#333333" points="2.72205479 5.33986301 1.41753425 5.33986301 1.41753425 6.64452055 0.112876712 6.64452055 0.112876712 7.94917808 1.41753425 7.94917808 1.41753425 9.25369863 2.72205479 9.25369863 2.72205479 7.94917808 4.02671233 7.94917808 4.02671233 6.64452055 2.72205479 6.64452055"></polygon>
                        <polygon id="Path" fill="#333333" points="5.98369863 6.64452055 7.28835616 6.64452055 7.28835616 4.68753425 9.24534247 4.68753425 9.24534247 3.38287671 7.28835616 3.38287671 7.28835616 1.4260274 5.98369863 1.4260274 5.98369863 3.38287671 4.02671233 3.38287671 4.02671233 4.68753425 5.98369863 4.68753425"></polygon>
                        <polygon id="Path" fill="#333333" points="8.5930137 12.5153425 8.5930137 11.2106849 9.89753425 11.2106849 9.89753425 9.9060274 8.5930137 9.9060274 8.5930137 8.60136986 7.28835616 8.60136986 7.28835616 9.9060274 5.98369863 9.9060274 5.98369863 11.2106849 7.28835616 11.2106849 7.28835616 12.5153425"></polygon>
                        <polygon id="Path" fill="#333333" points="31.4239726 8.60136986 32.7286301 8.60136986 32.7286301 7.29684932 34.0332877 7.29684932 34.0332877 5.99219178 32.7286301 5.99219178 32.7286301 4.68753425 31.4239726 4.68753425 31.4239726 5.99219178 30.1193151 5.99219178 30.1193151 7.29684932 31.4239726 7.29684932"></polygon>
                        <polygon id="Path" fill="#333333" points="39.2517808 10.5583562 37.2947945 10.5583562 37.2947945 8.60136986 35.990274 8.60136986 35.990274 10.5583562 34.0332877 10.5583562 34.0332877 11.8630137 35.990274 11.8630137 35.990274 13.82 37.2947945 13.82 37.2947945 11.8630137 39.2517808 11.8630137"></polygon>
                        <polygon id="Path" fill="#333333" points="30.1193151 14.4723288 31.4239726 14.4723288 31.4239726 13.1676712 32.7286301 13.1676712 32.7286301 11.8630137 31.4239726 11.8630137 31.4239726 10.5583562 30.1193151 10.5583562 30.1193151 11.8630137 28.8147945 11.8630137 28.8147945 13.1676712 30.1193151 13.1676712"></polygon>
                    </g>
                    <circle id="Oval" fill="#FFFFFF" cx="341.906576" cy="186.906576" r="27.9065756"></circle>
                    <g id="180949" transform="translate(323.000000, 169.000000)">
                        <circle id="Oval" fill="#F8D94E" cx="8.56971821" cy="10.4059931" r="3.0606323"></circle>
                        <polygon id="Path" fill="#333333" points="11.4105773 9.03969072 10.6257663 8.09948454 7.38349141 10.8019244 6.55402062 9.97310653 5.68850859 10.8387491 7.30762199 12.4583849"></polygon>
                        <rect id="Rectangle" fill="#333333" x="13.4666254" y="8.56958763" width="9.18163574" height="1.2242268"></rect>
                        <rect id="Rectangle" fill="#333333" x="13.4666254" y="11.0180412" width="10.4058625" height="1.2242268"></rect>
                        <polygon id="Path" fill="#333333" points="11.4105773 15.1608247 10.6257663 14.2206186 7.38349141 16.9230584 6.55402062 16.0942405 5.68850859 16.9598832 7.30762199 18.5795189"></polygon>
                        <rect id="Rectangle" fill="#333333" x="13.4666254" y="14.6907216" width="12.8543162" height="1.2242268"></rect>
                        <rect id="Rectangle" fill="#333333" x="13.4666254" y="17.1391753" width="2.44845361" height="1.2242268"></rect>
                        <rect id="Rectangle" fill="#333333" x="17.1393058" y="17.1391753" width="9.18163574" height="1.2242268"></rect>
                        <polygon id="Path" fill="#333333" points="11.4105773 21.2819588 10.6257663 20.3417526 7.38349141 23.0441924 6.55402062 22.2153746 5.68850859 23.0810172 7.30762199 24.7006529"></polygon>
                        <rect id="Rectangle" fill="#333333" x="13.4666254" y="20.8118557" width="12.8543162" height="1.2242268"></rect>
                        <rect id="Rectangle" fill="#333333" x="13.4666254" y="23.2603093" width="9.18163574" height="1.2242268"></rect>
                        <rect id="Rectangle" fill="#333333" x="23.872488" y="23.2603093" width="2.44845361" height="1.2242268"></rect>
                        <rect id="Rectangle" fill="#333333" x="23.872488" y="8.56958763" width="2.44845361" height="1.2242268"></rect>
                        <path d="M36.114756,28.1572165 L34.8905292,28.1572165 L33.6663024,28.1572165 L32.4420756,28.1572165 L31.2178488,28.1572165 L31.2178488,3.0606323 C31.2178488,1.3729622 29.8448866,0 28.1573471,0 L3.06076289,0 C1.37309278,0 0.000130584192,1.3729622 0.000130584192,3.0606323 C0.000130584192,4.74830241 1.37309278,6.1212646 3.0606323,6.1212646 L3.0606323,37.9511615 L28.7693952,37.9511615 L28.7693952,34.2783505 L31.2178488,34.2783505 L31.2178488,31.8298969 L32.4420756,31.8298969 L33.6663024,31.8298969 L34.8905292,31.8298969 L36.114756,31.8298969 C37.1271753,31.8298969 37.9510309,31.0060412 37.9510309,29.9934914 C37.9510309,28.9809416 37.1271753,28.1572165 36.114756,28.1572165 Z M29.993622,3.0606323 L29.993622,28.1573471 L28.7693952,28.1573471 L28.7693952,4.89690722 L28.1572165,4.89690722 C27.1447973,4.89690722 26.3209416,4.07305155 26.3209416,3.06050172 C26.3209416,2.04795189 27.1447973,1.22409622 28.1572165,1.22409622 C29.1696357,1.22409622 29.993622,2.04808247 29.993622,3.0606323 Z M1.22435739,3.0606323 C1.22435739,2.04821306 2.04821306,1.2242268 3.0606323,1.2242268 L25.7246942,1.2242268 C25.335945,1.73716151 25.0967148,2.36892784 25.0967148,3.0606323 C25.0967148,3.75233677 25.3360756,4.38397251 25.7246942,4.8970378 L3.06076289,4.8970378 C2.04834364,4.89690722 1.22435739,4.07305155 1.22435739,3.0606323 Z M4.28498969,36.7269347 L4.28498969,6.12113402 L27.545299,6.12113402 L27.545299,28.1572165 L10.3068797,28.1572165 L4.7979244,29.993622 L10.3068797,31.8300275 L27.545299,31.8300275 L27.545299,36.7269347 L4.28498969,36.7269347 L4.28498969,36.7269347 Z M8.6689622,29.993622 L9.79394502,29.618323 L9.79394502,30.3681375 L8.6689622,29.993622 Z M29.993622,33.0541237 L28.7693952,33.0541237 L28.7693952,31.8298969 L29.993622,31.8298969 L29.993622,33.0541237 Z M31.2178488,30.6056701 L11.0181718,30.6056701 L11.0181718,29.3814433 L31.2178488,29.3814433 L31.2178488,30.6056701 L31.2178488,30.6056701 Z M33.6663024,30.6056701 L32.4420756,30.6056701 L32.4420756,29.3814433 L33.6663024,29.3814433 L33.6663024,30.6056701 Z M36.114756,30.6056701 L34.8905292,30.6056701 L34.8905292,29.3814433 L36.114756,29.3814433 C36.4525773,29.3814433 36.7268041,29.656323 36.7268041,29.993622 C36.7268041,30.330921 36.4527079,30.6056701 36.114756,30.6056701 Z" id="Shape" fill="#333333"></path>
                    </g>
                    <circle id="Oval" fill="#FFFFFF" cx="27.9065756" cy="186.906576" r="27.9065756"></circle>
                    <g id="180774" transform="translate(9.000000, 168.000000)">
                        <polygon id="Path" fill="#F8D94E" points="26.2870135 0.000128378378 5.50191216 0.000128378378 5.50191216 37.9023041 32.4002635 37.9023041 32.4002635 6.72471622"></polygon>
                        <polygon id="Path" fill="#333333" points="32.4002635 6.72471622 26.2870135 6.72471622 26.2870135 0.000128378378 25.0643378 0.000128378378 25.0643378 7.94739189 32.4002635 7.94739189"></polygon>
                        <path d="M34.8456149,12.8379662 L33.6229392,12.8379662 L13.8752635,12.8379662 L9.29035811,15.8946554 L13.8752635,18.9513446 L33.6229392,18.9513446 L34.8456149,18.9513446 C36.5310946,18.9513446 37.9023041,17.5801351 37.9023041,15.8946554 C37.9023041,14.2091757 36.5309662,12.8379662 34.8456149,12.8379662 Z M13.4491757,14.5912297 L13.4491757,17.1973108 L11.4947432,15.8946554 L13.4491757,14.5912297 Z M33.6229392,17.7285405 L14.6718514,17.7285405 L14.6718514,16.5058649 L31.7889257,16.5058649 L31.7889257,15.2831892 L14.6718514,15.2831892 L14.6718514,14.0605135 L33.6229392,14.0605135 L33.6229392,17.7285405 Z M34.8456149,17.7285405 L34.8456149,14.0606419 C35.856723,14.0606419 36.6796284,14.8835473 36.6796284,15.8946554 C36.6796284,16.9057635 35.856723,17.7285405 34.8456149,17.7285405 Z" id="Shape" fill="#333333"></path>
                        <path d="M0,31.7890541 L29.3435743,31.7890541 L29.3435743,23.2304527 L0,23.2304527 L0,31.7890541 Z M1.22267568,24.4531284 L2.44535135,24.4531284 L2.44535135,26.2871419 L3.66802703,26.2871419 L3.66802703,24.4531284 L4.8907027,24.4531284 L4.8907027,26.2871419 L6.11337838,26.2871419 L6.11337838,24.4531284 L7.33605405,24.4531284 L7.33605405,27.5098176 L8.55872973,27.5098176 L8.55872973,24.4531284 L9.78140541,24.4531284 L9.78140541,26.2871419 L11.0040811,26.2871419 L11.0040811,24.4531284 L12.2267568,24.4531284 L12.2267568,26.2871419 L13.4494324,26.2871419 L13.4494324,24.4531284 L14.6721081,24.4531284 L14.6721081,27.5098176 L15.8947838,27.5098176 L15.8947838,24.4531284 L17.1174595,24.4531284 L17.1174595,26.2871419 L18.3401351,26.2871419 L18.3401351,24.4531284 L19.5628108,24.4531284 L19.5628108,26.2871419 L20.7854865,26.2871419 L20.7854865,24.4531284 L22.0081622,24.4531284 L22.0081622,27.5098176 L23.2308378,27.5098176 L23.2308378,24.4531284 L28.1214122,24.4531284 L28.1214122,27.5098176 L28.1214122,30.5665068 L1.22267568,30.5665068 L1.22267568,24.4531284 Z" id="Shape" fill="#333333"></path>
                        <path d="M26.2870135,25.6758041 C25.2759054,25.6758041 24.453,26.4987095 24.453,27.5098176 C24.453,28.5209257 25.2759054,29.3438311 26.2870135,29.3438311 C27.2981216,29.3438311 28.121027,28.5209257 28.121027,27.5098176 C28.121027,26.4987095 27.2981216,25.6758041 26.2870135,25.6758041 Z M26.2870135,28.1211554 C25.9501486,28.1211554 25.6756757,27.8473243 25.6756757,27.5098176 C25.6756757,27.1723108 25.9501486,26.8984797 26.2870135,26.8984797 C26.6238784,26.8984797 26.8983514,27.1723108 26.8983514,27.5098176 C26.8983514,27.8471959 26.6238784,28.1211554 26.2870135,28.1211554 Z" id="Shape" fill="#333333"></path>
                        <rect id="Rectangle" fill="#333333" x="8.55860135" y="3.05681757" width="14.6718514" height="1.22267568"></rect>
                        <rect id="Rectangle" fill="#333333" x="8.55860135" y="6.11337838" width="14.6718514" height="1.22267568"></rect>
                        <rect id="Rectangle" fill="#333333" x="8.55860135" y="9.17006757" width="14.6718514" height="1.22267568"></rect>
                    </g>
                    <circle id="Oval" fill="#FFFFFF" cx="182.906576" cy="27.9065756" r="27.9065756"></circle>
                    <g id="180786" transform="translate(163.000000, 8.000000)">
                        <path d="M39.8971622,21.8790541 L34.7491892,21.8790541 L34.7491892,16.092027 L24.5831081,16.0237838 L20.5921622,14.3706757 L20.5921622,12.2264865 L19.3051351,12.2264865 L19.3051351,14.3706757 L15.3141892,16.0237838 L5.14810811,16.092027 L5.14810811,21.8790541 L0.000135135135,21.8790541 L0.000135135135,29.6010811 L11.5831081,29.6010811 L11.5831081,21.8790541 L6.43513514,21.8790541 L6.43513514,17.37 L15.3102703,17.3108108 L19.3051351,19.0804054 L19.3051351,21.8790541 L14.1571622,21.8790541 L14.1571622,29.6010811 L25.7401351,29.6010811 L25.7401351,21.8790541 L20.5921622,21.8790541 L20.5921622,19.0804054 L24.587027,17.3108108 L33.4621622,17.37 L33.4621622,21.8790541 L28.3141892,21.8790541 L28.3141892,29.6010811 L33.4621622,29.6010811 L33.4621622,31.5316216 L19.3051351,31.5316216 L19.3051351,34.7491892 L16.7312162,34.7491892 C15.3116216,34.7491892 14.1571622,35.9036486 14.1571622,37.3232432 C14.1571622,38.7428378 15.3116216,39.8972973 16.7312162,39.8972973 L23.1662162,39.8972973 C24.5858108,39.8972973 25.7402703,38.7428378 25.7402703,37.3232432 C25.7402703,35.9036486 24.5858108,34.7491892 23.1662162,34.7491892 L20.5921622,34.7491892 L20.5921622,32.8186486 L34.7491892,32.8186486 L34.7491892,29.6010811 L39.8971622,29.6010811 L39.8971622,21.8790541 L39.8971622,21.8790541 Z M10.2960811,28.3140541 L1.28716216,28.3140541 L1.28716216,23.1660811 L10.2960811,23.1660811 L10.2960811,28.3140541 Z M24.4531081,28.3140541 L15.4440541,28.3140541 L15.4440541,23.1660811 L24.4531081,23.1660811 L24.4531081,28.3140541 Z M19.9486486,17.9575676 L17.077973,16.6859459 L19.9486486,15.4974324 L22.8193243,16.6866216 L19.9486486,17.9575676 Z M24.4531081,37.322973 C24.4531081,38.0327027 23.8759459,38.61 23.1660811,38.61 L16.7312162,38.61 C16.0214865,38.61 15.4441892,38.0328378 15.4441892,37.322973 C15.4441892,36.6132432 16.0213514,36.0359459 16.7312162,36.0359459 L23.1662162,36.0359459 C23.8759459,36.0360811 24.4531081,36.6132432 24.4531081,37.322973 Z M38.6101351,28.3140541 L29.6010811,28.3140541 L29.6010811,23.1660811 L38.6101351,23.1660811 L38.6101351,28.3140541 Z" id="Shape" fill="#333333"></path>
                        <path d="M23.1662162,12.87 L16.7312162,12.87 L16.7312162,9.16351351 C15.5163514,8.18797297 14.8006757,6.71175676 14.8006757,5.14810811 C14.8006757,2.30945946 17.1101351,0 19.9486486,0 C22.7871622,0 25.0966216,2.30945946 25.0966216,5.14797297 C25.0966216,6.7122973 24.3810811,8.18851351 23.1660811,9.16337838 L23.1662162,12.87 L23.1662162,12.87 Z" id="Path" fill="#F8D94E"></path>
                        <path d="M23.8095946,9.65256757 L20.592027,9.65256757 L20.592027,6.96013514 C21.3391892,6.69378378 21.8790541,5.98581081 21.8790541,5.14797297 C21.8790541,4.08364865 21.0128378,3.21743243 19.9485135,3.21743243 C18.8841892,3.21743243 18.017973,4.08364865 18.017973,5.14797297 C18.017973,5.98581081 18.5578378,6.69364865 19.305,6.96013514 L19.305,9.65256757 L16.0874324,9.65256757 L16.0874324,10.9395946 L23.8094595,10.9395946 L23.8095946,9.65256757 L23.8095946,9.65256757 Z M19.9486486,4.50445946 C20.3032432,4.50445946 20.5921622,4.79337838 20.5921622,5.14797297 C20.5921622,5.50256757 20.3032432,5.79148649 19.9486486,5.79148649 C19.5940541,5.79148649 19.3051351,5.50256757 19.3051351,5.14797297 C19.3051351,4.79337838 19.5940541,4.50445946 19.9486486,4.50445946 Z" id="Shape" fill="#333333"></path>
                        <rect id="Rectangle" fill="#333333" x="9.6527027" y="4.50445946" width="3.21756757" height="1.28702703"></rect>
                        <polygon id="Rectangle" fill="#333333" transform="translate(11.921738, 8.472354) rotate(-22.507915) translate(-11.921738, -8.472354) " points="10.3131356 7.82885879 13.5303401 7.82885879 13.5303401 9.11584867 10.3131356 9.11584867"></polygon>
                        <polygon id="Rectangle" fill="#333333" transform="translate(27.974871, 8.472040) rotate(-67.499572) translate(-27.974871, -8.472040) " points="27.3313415 6.86314779 28.618401 6.86314779 28.618401 10.0809317 27.3313415 10.0809317"></polygon>
                        <rect id="Rectangle" fill="#333333" x="27.0271622" y="4.50445946" width="3.21756757" height="1.28702703"></rect>
                        <rect id="Rectangle" fill="#333333" transform="translate(27.973555, 1.824078) rotate(-22.507915) translate(-27.973555, -1.824078) " x="26.3649528" y="1.180583" width="3.21720444" height="1.28698988"></rect>
                        <polygon id="Rectangle" fill="#333333" transform="translate(11.923008, 1.823109) rotate(-67.499572) translate(-11.923008, -1.823109) " points="11.2794782 0.214217032 12.5665377 0.214217032 12.5665377 3.43200098 11.2794782 3.43200098"></polygon>
                    </g>
                    <polygon id="Path" fill="#01DDEF" points="263.626736 361.519593 246.363469 386.69997 229.814726 356.846844"></polygon>
                </g>
                <path d="M176.94,14 C178.166667,14 179.2,13.62 180.04,12.86 C180.88,12.1 181.3,11.1266667 181.3,9.94 C181.3,8.51333333 180.686667,7.44666667 179.46,6.74 C180.34,6.03333333 180.78,5.1 180.78,3.94 C180.78,2.80666667 180.366667,1.86666667 179.54,1.12 C178.713333,0.373333333 177.706667,0 176.52,0 L176.52,0 L171,0 L171,14 L176.94,14 Z M176.52,5.66 L173.76,5.66 L173.76,2.58 L176.52,2.58 C176.96,2.58 177.32,2.72666667 177.6,3.02 C177.88,3.31333333 178.02,3.68 178.02,4.12 C178.02,4.56 177.876667,4.92666667 177.59,5.22 C177.303333,5.51333333 176.946667,5.66 176.52,5.66 L176.52,5.66 Z M176.94,11.42 L173.76,11.42 L173.76,8.12 L176.94,8.12 C177.406667,8.12 177.793333,8.27666667 178.1,8.59 C178.406667,8.90333333 178.56,9.29333333 178.56,9.76 C178.56,10.24 178.406667,10.6366667 178.1,10.95 C177.793333,11.2633333 177.406667,11.42 176.94,11.42 L176.94,11.42 Z M188.32,14.28 C189.893333,14.28 191.18,13.84 192.18,12.96 C193.18,12.08 193.68,10.9 193.68,9.42 L193.68,9.42 L193.68,0 L190.92,0 L190.92,9.2 C190.92,9.94666667 190.703333,10.53 190.27,10.95 C189.836667,11.37 189.186667,11.58 188.32,11.58 C187.453333,11.58 186.803333,11.37 186.37,10.95 C185.936667,10.53 185.72,9.94666667 185.72,9.2 L185.72,9.2 L185.72,0 L182.98,0 L182.98,9.42 C182.98,10.9 183.48,12.08 184.48,12.96 C185.48,13.84 186.76,14.28 188.32,14.28 Z M198.92,14 L198.92,0 L196.16,0 L196.16,14 L198.92,14 Z M209.62,14 L209.62,11.36 L204.28,11.36 L204.28,0 L201.52,0 L201.52,14 L209.62,14 Z M216.74,14 C218.66,14 220.26,13.3266667 221.54,11.98 C222.833333,10.6466667 223.48,8.98666667 223.48,7 C223.48,5.01333333 222.833333,3.35333333 221.54,2.02 C220.26,0.673333333 218.66,0 216.74,0 L216.74,0 L211.18,0 L211.18,14 L216.74,14 Z M216.74,11.36 L213.94,11.36 L213.94,2.64 L216.74,2.64 C217.953333,2.64 218.94,3.04666667 219.7,3.86 C220.46,4.66 220.84,5.70666667 220.84,7 C220.84,8.28 220.46,9.33333333 219.7,10.16 C218.94,10.96 217.953333,11.36 216.74,11.36 L216.74,11.36 Z" id="BUILD" fill="#F13624"></path>
                <path d="M516.76,74 L516.76,68.6 L522.2,68.6 L522.2,65.96 L516.76,65.96 L516.76,62.64 L522.36,62.64 L522.36,60 L514,60 L514,74 L516.76,74 Z M532.48,74 L532.48,71.36 L527.14,71.36 L527.14,60 L524.38,60 L524.38,74 L532.48,74 Z M542.7,74 L542.7,71.36 L536.8,71.36 L536.8,68.22 L542.1,68.22 L542.1,65.62 L536.8,65.62 L536.8,62.64 L542.6,62.64 L542.6,60 L534.04,60 L534.04,74 L542.7,74 Z M546.72,74 L549.44,69.44 L552.16,74 L555.3,74 L551,66.8 L555.06,60 L551.94,60 L549.44,64.2 L546.94,60 L543.82,60 L547.88,66.82 L543.6,74 L546.72,74 Z M559.6,74 L559.6,60 L556.84,60 L556.84,74 L559.6,74 Z M568.14,74 C569.366667,74 570.4,73.62 571.24,72.86 C572.08,72.1 572.5,71.1266667 572.5,69.94 C572.5,68.5133333 571.886667,67.4466667 570.66,66.74 C571.54,66.0333333 571.98,65.1 571.98,63.94 C571.98,62.8066667 571.566667,61.8666667 570.74,61.12 C569.913333,60.3733333 568.906667,60 567.72,60 L567.72,60 L562.2,60 L562.2,74 L568.14,74 Z M567.72,65.66 L564.96,65.66 L564.96,62.58 L567.72,62.58 C568.16,62.58 568.52,62.7266667 568.8,63.02 C569.08,63.3133333 569.22,63.68 569.22,64.12 C569.22,64.56 569.076667,64.9266667 568.79,65.22 C568.503333,65.5133333 568.146667,65.66 567.72,65.66 L567.72,65.66 Z M568.14,71.42 L564.96,71.42 L564.96,68.12 L568.14,68.12 C568.606667,68.12 568.993333,68.2766667 569.3,68.59 C569.606667,68.9033333 569.76,69.2933333 569.76,69.76 C569.76,70.24 569.606667,70.6366667 569.3,70.95 C568.993333,71.2633333 568.606667,71.42 568.14,71.42 L568.14,71.42 Z M577.06,74 L577.06,60 L574.3,60 L574.3,74 L577.06,74 Z M587.76,74 L587.76,71.36 L582.42,71.36 L582.42,60 L579.66,60 L579.66,74 L587.76,74 Z M592.08,74 L592.08,60 L589.32,60 L589.32,74 L592.08,74 Z M600.16,74 L600.16,62.64 L603.94,62.64 L603.94,60 L593.64,60 L593.64,62.64 L597.4,62.64 L597.4,74 L600.16,74 Z M611.76,74 L611.76,68.54 L616.56,60 L613.44,60 L610.4,65.84 L607.36,60 L604.24,60 L609.02,68.54 L609.02,74 L611.76,74 Z" id="FLEXIBILITY" fill="#666666"></path>
                <path d="M163.56,456 C165.48,456 167.08,455.326667 168.36,453.98 C169.653333,452.646667 170.3,450.986667 170.3,449 C170.3,447.013333 169.653333,445.353333 168.36,444.02 C167.08,442.673333 165.48,442 163.56,442 L163.56,442 L158,442 L158,456 L163.56,456 Z M163.56,453.36 L160.76,453.36 L160.76,444.64 L163.56,444.64 C164.773333,444.64 165.76,445.046667 166.52,445.86 C167.28,446.66 167.66,447.706667 167.66,449 C167.66,450.28 167.28,451.333333 166.52,452.16 C165.76,452.96 164.773333,453.36 163.56,453.36 L163.56,453.36 Z M180.92,456 L180.92,453.36 L175.02,453.36 L175.02,450.22 L180.32,450.22 L180.32,447.62 L175.02,447.62 L175.02,444.64 L180.82,444.64 L180.82,442 L172.26,442 L172.26,456 L180.92,456 Z M190.96,456 L190.96,453.36 L185.62,453.36 L185.62,442 L182.86,442 L182.86,456 L190.96,456 Z M195.28,456 L195.28,442 L192.52,442 L192.52,456 L195.28,456 Z M204.76,456 L209.48,442 L206.46,442 L203.06,452.76 L199.64,442 L196.64,442 L201.34,456 L204.76,456 Z M219.48,456 L219.48,453.36 L213.58,453.36 L213.58,450.22 L218.88,450.22 L218.88,447.62 L213.58,447.62 L213.58,444.64 L219.38,444.64 L219.38,442 L210.82,442 L210.82,456 L219.48,456 Z M224.18,456 L224.18,451.14 L226.28,451.14 L229.1,456 L232.08,456 L228.98,450.72 C229.793333,450.346667 230.446667,449.79 230.94,449.05 C231.433333,448.31 231.68,447.506667 231.68,446.64 C231.68,445.36 231.226667,444.266667 230.32,443.36 C229.413333,442.453333 228.313333,442 227.02,442 L227.02,442 L221.42,442 L221.42,456 L224.18,456 Z M227.02,448.72 L224.18,448.72 L224.18,444.58 L227.02,444.58 C227.54,444.58 227.986667,444.78 228.36,445.18 C228.733333,445.58 228.92,446.066667 228.92,446.64 C228.92,447.213333 228.733333,447.703333 228.36,448.11 C227.986667,448.516667 227.54,448.72 227.02,448.72 L227.02,448.72 Z" id="DELIVER" fill="#F13624"></path>
                <path d="M316.62,296.28 C318.646667,296.28 320.366667,295.58 321.78,294.18 C323.193333,292.766667 323.9,291.04 323.9,289 C323.9,286.96 323.193333,285.24 321.78,283.84 C320.366667,282.426667 318.646667,281.72 316.62,281.72 C314.593333,281.72 312.873333,282.426667 311.46,283.84 C310.06,285.24 309.36,286.96 309.36,289 C309.36,291.026667 310.06,292.753333 311.46,294.18 C312.873333,295.58 314.593333,296.28 316.62,296.28 Z M316.62,293.58 C315.326667,293.58 314.253333,293.153333 313.4,292.3 C312.533333,291.433333 312.1,290.333333 312.1,289 C312.1,287.666667 312.533333,286.566667 313.4,285.7 C314.266667,284.833333 315.34,284.4 316.62,284.4 C317.9,284.4 318.973333,284.833333 319.84,285.7 C320.706667,286.566667 321.14,287.666667 321.14,289 C321.14,290.333333 320.706667,291.433333 319.84,292.3 C318.986667,293.153333 317.913333,293.58 316.62,293.58 Z M328.6,296 L328.6,291.14 L330.7,291.14 L333.52,296 L336.5,296 L333.4,290.72 C334.213333,290.346667 334.866667,289.79 335.36,289.05 C335.853333,288.31 336.1,287.506667 336.1,286.64 C336.1,285.36 335.646667,284.266667 334.74,283.36 C333.833333,282.453333 332.733333,282 331.44,282 L331.44,282 L325.84,282 L325.84,296 L328.6,296 Z M331.44,288.72 L328.6,288.72 L328.6,284.58 L331.44,284.58 C331.96,284.58 332.406667,284.78 332.78,285.18 C333.153333,285.58 333.34,286.066667 333.34,286.64 C333.34,287.213333 333.153333,287.703333 332.78,288.11 C332.406667,288.516667 331.96,288.72 331.44,288.72 L331.44,288.72 Z M344.98,296.28 C347.006667,296.28 348.66,295.66 349.94,294.42 C351.22,293.18 351.86,291.56 351.86,289.56 L351.86,289.56 L351.86,288.48 L344.84,288.48 L344.84,290.92 L349.08,290.92 C348.826667,291.76 348.346667,292.413333 347.64,292.88 C346.933333,293.346667 346.053333,293.58 345,293.58 C343.546667,293.58 342.386667,293.153333 341.52,292.3 C340.653333,291.433333 340.22,290.34 340.22,289.02 C340.22,287.673333 340.646667,286.573333 341.5,285.72 C342.353333,284.84 343.453333,284.4 344.8,284.4 C345.613333,284.4 346.36,284.58 347.04,284.94 C347.72,285.3 348.226667,285.766667 348.56,286.34 L348.56,286.34 L350.92,284.98 C350.306667,283.98 349.46,283.186667 348.38,282.6 C347.3,282.013333 346.113333,281.72 344.82,281.72 C342.74,281.72 340.993333,282.426667 339.58,283.84 C338.18,285.253333 337.48,286.98 337.48,289.02 C337.48,291.046667 338.186667,292.766667 339.6,294.18 C341.026667,295.58 342.82,296.28 344.98,296.28 Z M355.56,296 L356.4,293.48 L361.98,293.48 L362.82,296 L365.82,296 L360.9,282 L357.48,282 L352.58,296 L355.56,296 Z M361.12,290.9 L357.28,290.9 L359.2,285.18 L361.12,290.9 Z M369.94,296 L369.94,287.44 L375.94,296 L378.04,296 L378.04,282 L375.28,282 L375.28,290.54 L369.28,282 L367.18,282 L367.18,296 L369.94,296 Z M383.4,296 L383.4,282 L380.64,282 L380.64,296 L383.4,296 Z M394.88,296 L394.88,293.36 L388.94,293.36 L394.76,284.18 L394.76,282 L385.56,282 L385.56,284.64 L391.24,284.64 L385.42,293.8 L385.42,296 L394.88,296 Z M405.36,296 L405.36,293.36 L399.46,293.36 L399.46,290.22 L404.76,290.22 L404.76,287.62 L399.46,287.62 L399.46,284.64 L405.26,284.64 L405.26,282 L396.7,282 L396.7,296 L405.36,296 Z" id="ORGANIZE" fill="#F13624"></path>
                <path d="M2.76,296 L2.76,286.94 L6.7,293.42 L7.02,293.42 L10.96,286.92 L10.96,296 L13.7,296 L13.7,282 L10.86,282 L6.86,288.62 L2.84,282 L-4.54747351e-13,282 L-4.54747351e-13,296 L2.76,296 Z M22.92,296.28 C24.9466667,296.28 26.6666667,295.58 28.08,294.18 C29.4933333,292.766667 30.2,291.04 30.2,289 C30.2,286.96 29.4933333,285.24 28.08,283.84 C26.6666667,282.426667 24.9466667,281.72 22.92,281.72 C20.8933333,281.72 19.1733333,282.426667 17.76,283.84 C16.36,285.24 15.66,286.96 15.66,289 C15.66,291.026667 16.36,292.753333 17.76,294.18 C19.1733333,295.58 20.8933333,296.28 22.92,296.28 Z M22.92,293.58 C21.6266667,293.58 20.5533333,293.153333 19.7,292.3 C18.8333333,291.433333 18.4,290.333333 18.4,289 C18.4,287.666667 18.8333333,286.566667 19.7,285.7 C20.5666667,284.833333 21.64,284.4 22.92,284.4 C24.2,284.4 25.2733333,284.833333 26.14,285.7 C27.0066667,286.566667 27.44,287.666667 27.44,289 C27.44,290.333333 27.0066667,291.433333 26.14,292.3 C25.2866667,293.153333 24.2133333,293.58 22.92,293.58 Z M37.7,296 C39.62,296 41.22,295.326667 42.5,293.98 C43.7933333,292.646667 44.44,290.986667 44.44,289 C44.44,287.013333 43.7933333,285.353333 42.5,284.02 C41.22,282.673333 39.62,282 37.7,282 L37.7,282 L32.14,282 L32.14,296 L37.7,296 Z M37.7,293.36 L34.9,293.36 L34.9,284.64 L37.7,284.64 C38.9133333,284.64 39.9,285.046667 40.66,285.86 C41.42,286.66 41.8,287.706667 41.8,289 C41.8,290.28 41.42,291.333333 40.66,292.16 C39.9,292.96 38.9133333,293.36 37.7,293.36 L37.7,293.36 Z M49.16,296 L49.16,282 L46.4,282 L46.4,296 L49.16,296 Z M54.52,296 L54.52,290.6 L59.96,290.6 L59.96,287.96 L54.52,287.96 L54.52,284.64 L60.12,284.64 L60.12,282 L51.76,282 L51.76,296 L54.52,296 Z M68.42,296 L68.42,290.54 L73.22,282 L70.1,282 L67.06,287.84 L64.02,282 L60.9,282 L65.68,290.54 L65.68,296 L68.42,296 Z" id="MODIFY" fill="#F13624"></path>
            </g>
        </g>
    </g>
</svg>