<?xml version="1.0" encoding="UTF-8"?>
<svg id="HARMONIC" xmlns="http://www.w3.org/2000/svg" width="8.92in" height="3.04in" viewBox="0 0 641.95 218.77">
  <defs>
    <style>
      .cls-1 {
        fill: #fff;
      }

      .cls-2 {
        fill: #002a4c;
      }

      .cls-3 {
        fill: none;
      }

      .cls-4 {
        fill: #00a7d7;
      }
    </style>
  </defs>
  <g>
    <g>
      <path class="cls-2" d="M81.48,202.34l.02-92.36c0-17.89-10.65-29.34-28.55-29.34-8.88,0-16.45,3.06-22.27,9.67v-49.38h-11.61v98.81h11.61v-27.82c0-13.71,7.9-20.96,19.85-20.96s19.35,7.09,19.35,20.96l.02,77.93c0,10.18,7.29,12.49,10.99,12.49h.57Z"/>
      <path class="cls-2" d="M416.5,96.72c-3.71-3.69-8.88-5.79-14.53-5.79s-10.52,2.1-14.22,5.79c-5.82,5.81-6.45,15.65-6.45,24.52s.63,18.72,6.45,24.51c3.7,3.71,8.58,5.82,14.22,5.82s10.82-2.11,14.53-5.82c5.79-5.8,6.28-15.64,6.28-24.51s-.49-18.7-6.28-24.52M424.72,152.84c-5.48,5.52-13.06,9.04-22.75,9.04s-17.12-3.52-22.61-9.04c-8.06-8.21-9.69-19.33-9.69-31.6s1.62-23.37,9.69-31.61c5.49-5.47,12.95-9.02,22.61-9.02s17.26,3.55,22.75,9.02c8.07,8.25,9.69,19.37,9.69,31.61s-1.62,23.4-9.69,31.6"/>
      <path class="cls-2" d="M482.08,90.88c11.94,0,19.54,7.09,19.54,21.12v49.1h11.6v-51.04c0-9.18-2.57-16.6-8.22-22.09-4.84-4.84-11.78-7.42-20.32-7.42h-5.18c-8.55,0-15.49,2.58-20.33,7.42-5.65,5.49-8.22,12.91-8.22,22.09v51.04h11.61v-49.1c0-14.03,7.6-21.12,19.53-21.12Z"/>
      <path class="cls-2" d="M344.12,87.98c-4.84-4.84-11.78-7.42-20.33-7.42h-5.18c-8.55,0-15.48,2.58-20.32,7.42-.89.87-1.7,1.78-2.44,2.75-.74-.96-1.55-1.88-2.44-2.75-4.84-4.84-11.77-7.42-20.32-7.42h-5.18c-8.55,0-15.49,2.58-20.33,7.42-5.65,5.49-8.22,12.91-8.22,22.09v51.04h11.6v-49.1c0-14.03,7.6-21.12,19.53-21.12s19.54,7.09,19.54,21.12v49.1h11.63v-49.1c0-14.03,7.6-21.12,19.54-21.12s19.53,7.09,19.53,21.12v49.1h11.62v-51.04c0-9.18-2.58-16.6-8.23-22.09Z"/>
      <g>
        <path class="cls-4" d="M517.58,40.84c0-13.74,11.13-24.88,24.87-24.88s24.88,11.14,24.88,24.88-11.13,24.87-24.88,24.87-24.87-11.13-24.87-24.87"/>
        <polygon class="cls-1" points="557.55 40.84 534.8 51.73 534.8 29.96 557.55 40.84"/>
      </g>
      <rect class="cls-2" x="536.66" y="81.67" width="11.61" height="79.42"/>
      <path class="cls-2" d="M609.19,150.66c-.73.17-1.24.27-1.53.32-1.61.35-3.29.58-5.21.58-7.74,0-14.19-3.07-18.38-9.04-3.72-5.17-5.17-11.29-5.17-21.29s1.44-16.12,5.17-21.28c4.19-5.98,10.63-9.03,18.38-9.03,2.02,0,3.82.17,5.51.54,2.41.42,7.11,1.52,11.6,4.15,1.45.85,2.44,1.62,3.12,2.31l.18-.17v-10.72c-6.03-4.72-12.05-6.42-20.4-6.42-20,0-35.15,13.54-35.15,40.63s15.15,40.64,35.15,40.64c8.35,0,14.38-1.7,20.4-6.42v-10.83l-.13-.13c-.52.43-1.14.88-1.9,1.36-4.43,2.83-9.14,4.22-11.64,4.82Z"/>
      <path class="cls-2" d="M128.21,80.64c-12.91,0-21.62,5.13-23.79,8.53l-.07,10.87c4.68-6.6,13.53-9.41,23.7-9.41,14.5,0,20.32,5.81,20.32,17.42v8.95c-3.4-2.44-10.05-6.83-21.13-6.83-8.55,0-16.84,1.92-22.49,7.56-7.37,7.37-6.47,20.73-6.47,20.73,0,0,.07,23.45,27.53,23.45,10.64,0,16.09-1.73,22.55-8.19l.36,7.38h11.61l-.36-54.02c0-17.26-10.5-26.45-31.77-26.45ZM148.37,132.9c0,6.6-1.29,11.12-4.03,13.7-5,4.84-10.96,5.33-17.75,5.33-13.84,0-17.39-8.32-17.39-13.52s-.39-12.87,7.93-17.14c7.66-3.27,21.35-3.59,31.24,5.4v6.23ZM209.35,80.59c-8.55,0-15.48,2.58-20.32,7.42-5.66,5.49-8.23,12.91-8.23,22.09v50.98h11.61v-49.04c0-9.15,3.24-15.33,8.8-18.53,7.93-3.38,17.68-2.88,25.14,2.57l.73-11.07c-1.63-1.15-3.24-2.02-5.38-2.78-3.7-1.33-8.64-1.72-12.33-1.63Z"/>
    </g>
    <path class="cls-2" d="M630.77,165.49c4.5,0,8.04,3.49,8.04,7.94s-3.54,8.09-8.09,8.09-8.09-3.54-8.09-8.09,3.59-7.94,8.09-7.94h.05ZM630.67,166.91c-3.59,0-6.32,2.93-6.32,6.53s2.73,6.63,6.42,6.63c3.59.05,6.27-2.93,6.27-6.58s-2.68-6.58-6.32-6.58h-.05ZM629.25,177.89h-1.52v-8.4c.86-.15,1.72-.25,2.88-.25,1.42,0,2.07.25,2.63.66.5.35.86,1.01.86,1.77,0,1.06-.76,1.67-1.67,1.97v.1c.76.3,1.16.96,1.42,2.02.25,1.26.4,1.82.61,2.12h-1.57c-.25-.3-.46-1.06-.66-2.23-.2-.91-.81-1.31-1.97-1.31h-1.01v3.54ZM629.25,173.13h1.06c1.11,0,2.18-.3,2.18-1.32,0-.81-.51-1.37-2.02-1.37-.61,0-.96.05-1.21.1v2.58Z"/>
  </g>
  <rect class="cls-3" width="641.95" height="218.77"/>
</svg>